<svg xmlns="http://www.w3.org/2000/svg" xmlns:xlink="http://www.w3.org/1999/xlink" version="1.2" width="210.00mm" height="297.00mm" viewBox="0.0000 -0.0000 119.5016 169.0094">
<style type="text/css">
<![CDATA[
tspan { white-space: pre; }
]]>
</style>
<g transform="translate(8.5358, 10.6906)">
<line stroke-linejoin="round" stroke-linecap="round" stroke-width="0.1000" stroke="currentColor" x1="0.0500" y1="0" x2="102.3799" y2="0"/>
</g>
<g transform="translate(8.5358, 11.6906)">
<line stroke-linejoin="round" stroke-linecap="round" stroke-width="0.1000" stroke="currentColor" x1="0.0500" y1="0" x2="102.3799" y2="0"/>
</g>
<g transform="translate(8.5358, 12.6906)">
<line stroke-linejoin="round" stroke-linecap="round" stroke-width="0.1000" stroke="currentColor" x1="0.0500" y1="0" x2="102.3799" y2="0"/>
</g>
<g transform="translate(8.5358, 13.6906)">
<line stroke-linejoin="round" stroke-linecap="round" stroke-width="0.1000" stroke="currentColor" x1="0.0500" y1="0" x2="102.3799" y2="0"/>
</g>
<g color="rgba(0.0000%, 0.0000%, 0.0000%, 100.0000%)">
<g transform="translate(8.5358, 11.6906)">
<line stroke-linejoin="round" stroke-linecap="round" stroke-width="0.1200" stroke="currentColor" x1="0.0500" y1="-2.0000" x2="102.3799" y2="-2.0000"/>
</g>
</g>
<g color="rgba(100.0000%, 100.0000%, 100.0000%, 100.0000%)">
<g transform="translate(8.5358, 11.6906)">
<line stroke-linejoin="round" stroke-linecap="round" stroke-width="0.1200" stroke="currentColor" x1="0.0500" y1="3.0000" x2="102.3799" y2="3.0000"/>
</g>
</g>
<g transform="translate(45.2034, 11.6906)">
<rect x="0.0000" y="-1.0000" width="0.1900" height="3.0500" ry="0.0000" fill="currentColor"/>
</g>
<g transform="translate(45.2034, 25.6906)">
<rect x="0.0000" y="-2.0500" width="0.1900" height="4.0500" ry="0.0000" fill="currentColor"/>
</g>
<g transform="translate(94.3734, 11.6906)">
<rect x="0.0000" y="-1.0000" width="0.1900" height="3.0500" ry="0.0000" fill="currentColor"/>
</g>
<g transform="translate(94.3734, 25.6906)">
<rect x="0.0000" y="-2.0500" width="0.1900" height="4.0500" ry="0.0000" fill="currentColor"/>
</g>
<g transform="translate(45.2034, 7.6906)">
<rect x="0.0000" y="6.0500" width="0.1900" height="9.9500" ry="0.0000" fill="currentColor"/>
</g>
<g transform="translate(94.3734, 7.6906)">
<rect x="0.0000" y="6.0500" width="0.1900" height="9.9500" ry="0.0000" fill="currentColor"/>
</g>
<g transform="translate(8.5358, 23.6906)">
<line stroke-linejoin="round" stroke-linecap="round" stroke-width="0.1000" stroke="currentColor" x1="0.0500" y1="0" x2="102.3799" y2="0"/>
</g>
<g transform="translate(8.5358, 24.6906)">
<line stroke-linejoin="round" stroke-linecap="round" stroke-width="0.1000" stroke="currentColor" x1="0.0500" y1="0" x2="102.3799" y2="0"/>
</g>
<g transform="translate(8.5358, 25.6906)">
<line stroke-linejoin="round" stroke-linecap="round" stroke-width="0.1000" stroke="currentColor" x1="0.0500" y1="0" x2="102.3799" y2="0"/>
</g>
<g transform="translate(8.5358, 26.6906)">
<line stroke-linejoin="round" stroke-linecap="round" stroke-width="0.1000" stroke="currentColor" x1="0.0500" y1="0" x2="102.3799" y2="0"/>
</g>
<g transform="translate(8.5358, 27.6906)">
<line stroke-linejoin="round" stroke-linecap="round" stroke-width="0.1000" stroke="currentColor" x1="0.0500" y1="0" x2="102.3799" y2="0"/>
</g>
<g color="rgba(100.0000%, 100.0000%, 100.0000%, 100.0000%)">
<g transform="translate(8.5358, 25.6906)">
<line stroke-linejoin="round" stroke-linecap="round" stroke-width="0.1200" stroke="currentColor" x1="0.0500" y1="-5.0000" x2="102.3799" y2="-5.0000"/>
</g>
</g>
<g color="rgba(100.0000%, 100.0000%, 100.0000%, 100.0000%)">
<g transform="translate(8.5358, 25.6906)">
<line stroke-linejoin="round" stroke-linecap="round" stroke-width="0.1200" stroke="currentColor" x1="0.0500" y1="-4.0000" x2="102.3799" y2="-4.0000"/>
</g>
</g>
<g color="rgba(100.0000%, 100.0000%, 100.0000%, 100.0000%)">
<g transform="translate(8.5358, 25.6906)">
<line stroke-linejoin="round" stroke-linecap="round" stroke-width="0.1200" stroke="currentColor" x1="0.0500" y1="-3.0000" x2="102.3799" y2="-3.0000"/>
</g>
</g>
<g transform="translate(8.5358, 22.6906)">
<rect x="64.4792" y="-0.1000" width="2.0661" height="0.2000" ry="0.1000" fill="currentColor"/>
</g>
<g transform="translate(8.5358, 22.6906)">
<rect x="37.4242" y="-0.1000" width="2.0661" height="0.2000" ry="0.1000" fill="currentColor"/>
</g>
<g transform="translate(8.5358, 22.6906)">
<rect x="19.7642" y="-0.1000" width="2.0661" height="0.2000" ry="0.1000" fill="currentColor"/>
</g>
<g transform="translate(8.5358, 22.6906)">
<rect x="12.9451" y="-0.1000" width="2.0661" height="0.2000" ry="0.1000" fill="currentColor"/>
</g>
<g transform="translate(8.5358, 14.6906)">
<rect x="97.6924" y="-0.1000" width="2.0661" height="0.2000" ry="0.1000" fill="currentColor"/>
</g>
<g transform="translate(8.5358, 14.6906)">
<rect x="86.4441" y="-0.1000" width="2.0661" height="0.2000" ry="0.1000" fill="currentColor"/>
</g>
<g transform="translate(8.5358, 14.6906)">
<rect x="78.2317" y="-0.1000" width="2.0661" height="0.2000" ry="0.1000" fill="currentColor"/>
</g>
<g transform="translate(8.5358, 15.6906)">
<rect x="78.2317" y="-0.1000" width="2.0661" height="0.2000" ry="0.1000" fill="currentColor"/>
</g>
<g transform="translate(79.4688, 11.6906)">
<rect x="-0.0650" y="-3.1900" width="0.1300" height="2.5038" ry="0.0400" fill="currentColor"/>
</g>
<a style="color:inherit;" xlink:href="textedit://C:/Users/grego/AppData/Local/Temp/lilypond-intavolatura-all/MeruloXI-Vtone-03-cis-stage1.ly:606:23:24">
<g transform="translate(78.2296, 11.1906)">
<path transform="scale(0.0040, -0.0040)" d="M217 136c56 0 109 -27 109 -89c0 -18 -5 -38 -13 -55c-31 -66 -113 -128 -204 -128c-56 0 -109 27 -109 89c0 18 5 38 13 55c31 66 113 128 204 128z" fill="currentColor"/>
</g>
</a>
<g transform="translate(77.4107, 11.6906)">
<rect x="-0.0650" y="-3.1900" width="0.1300" height="3.0038" ry="0.0400" fill="currentColor"/>
</g>
<a style="color:inherit;" xlink:href="textedit://C:/Users/grego/AppData/Local/Temp/lilypond-intavolatura-all/MeruloXI-Vtone-03-cis-stage1.ly:606:16:17">
<g transform="translate(76.1715, 11.6906)">
<path transform="scale(0.0040, -0.0040)" d="M217 136c56 0 109 -27 109 -89c0 -18 -5 -38 -13 -55c-31 -66 -113 -128 -204 -128c-56 0 -109 27 -109 89c0 18 5 38 13 55c31 66 113 128 204 128z" fill="currentColor"/>
</g>
</a>
<g transform="translate(73.4244, 25.6906)">
<rect x="-0.0650" y="-0.7410" width="0.1300" height="3.2410" ry="0.0400" fill="currentColor"/>
</g>
<g transform="translate(73.4244, 25.6906)">
<rect x="-0.0650" y="-1.7410" width="0.1300" height="3.2410" ry="0.0400" fill="currentColor"/>
</g>
<g transform="translate(96.4985, 24.6906)">
<polygon stroke-linejoin="round" stroke-linecap="round" stroke-width="0.0800" fill="currentColor" stroke="currentColor" points="8.2762 -0.2000 8.2762 0.2000 0.0400 0.2000 0.0400 -0.2000"/>
</g>
<g transform="translate(74.6718, 25.6906)">
<rect x="-0.0650" y="-5.5000" width="0.1300" height="2.2410" ry="0.0400" fill="currentColor"/>
</g>
<g transform="translate(88.3511, 11.6906)">
<rect x="-0.0650" y="-3.0000" width="0.1300" height="3.3138" ry="0.0400" fill="currentColor"/>
</g>
<a style="color:inherit;" xlink:href="textedit://C:/Users/grego/AppData/Local/Temp/lilypond-intavolatura-all/MeruloXI-Vtone-03-cis-stage1.ly:770:4:5">
<g transform="translate(87.1119, 28.1906)">
<path transform="scale(0.0040, -0.0040)" d="M303 37c7 9 11 18 11 27c0 22 -20 42 -43 42c-4 0 -7 0 -11 -1c-31 -9 -78 -40 -115 -64s-84 -53 -104 -78c-7 -9 -10 -18 -10 -27c0 -22 20 -42 43 -42c4 0 7 0 11 1c31 9 77 40 114 64s84 53 104 78zM262 136c46 0 82 -21 82 -71c0 -19 -4 -39 -10 -57
c-12 -37 -32 -72 -64 -94c-53 -36 -113 -50 -187 -50c-46 0 -83 21 -83 71c0 19 5 39 11 57c12 37 31 72 63 94c53 36 114 50 188 50z" fill="currentColor"/>
</g>
</a>
<a style="color:inherit;" xlink:href="textedit://C:/Users/grego/AppData/Local/Temp/lilypond-intavolatura-all/MeruloXI-Vtone-03-cis-stage1.ly:622:6:7">
<g transform="translate(87.1119, 15.6906)">
<path transform="scale(0.0040, -0.0040)" d="M303 37c7 9 11 18 11 27c0 22 -20 42 -43 42c-4 0 -7 0 -11 -1c-31 -9 -78 -40 -115 -64s-84 -53 -104 -78c-7 -9 -10 -18 -10 -27c0 -22 20 -42 43 -42c4 0 7 0 11 1c31 9 77 40 114 64s84 53 104 78zM262 136c46 0 82 -21 82 -71c0 -19 -4 -39 -10 -57
c-12 -37 -32 -72 -64 -94c-53 -36 -113 -50 -187 -50c-46 0 -83 21 -83 71c0 19 5 39 11 57c12 37 31 72 63 94c53 36 114 50 188 50z" fill="currentColor"/>
</g>
</a>
<a style="color:inherit;" xlink:href="textedit://C:/Users/grego/AppData/Local/Temp/lilypond-intavolatura-all/MeruloXI-Vtone-03-cis-stage1.ly:617:6:7">
<g transform="translate(87.1119, 14.6906)">
<path transform="scale(0.0040, -0.0040)" d="M303 37c7 9 11 18 11 27c0 22 -20 42 -43 42c-4 0 -7 0 -11 -1c-31 -9 -78 -40 -115 -64s-84 -53 -104 -78c-7 -9 -10 -18 -10 -27c0 -22 20 -42 43 -42c4 0 7 0 11 1c31 9 77 40 114 64s84 53 104 78zM262 136c46 0 82 -21 82 -71c0 -19 -4 -39 -10 -57
c-12 -37 -32 -72 -64 -94c-53 -36 -113 -50 -187 -50c-46 0 -83 21 -83 71c0 19 5 39 11 57c12 37 31 72 63 94c53 36 114 50 188 50z" fill="currentColor"/>
</g>
</a>
<a style="color:inherit;" xlink:href="textedit://C:/Users/grego/AppData/Local/Temp/lilypond-intavolatura-all/MeruloXI-Vtone-03-cis-stage1.ly:612:6:7">
<g transform="translate(87.1119, 12.1906)">
<path transform="scale(0.0040, -0.0040)" d="M217 136c56 0 109 -27 109 -89c0 -18 -5 -38 -13 -55c-31 -66 -113 -128 -204 -128c-56 0 -109 27 -109 89c0 18 5 38 13 55c31 66 113 128 204 128z" fill="currentColor"/>
</g>
</a>
<g transform="translate(85.6432, 11.6906)">
<rect x="-0.0650" y="-3.1900" width="0.1300" height="3.0038" ry="0.0400" fill="currentColor"/>
</g>
<a style="color:inherit;" xlink:href="textedit://C:/Users/grego/AppData/Local/Temp/lilypond-intavolatura-all/MeruloXI-Vtone-03-cis-stage1.ly:606:35:36">
<g transform="translate(84.4040, 11.6906)">
<path transform="scale(0.0040, -0.0040)" d="M217 136c56 0 109 -27 109 -89c0 -18 -5 -38 -13 -55c-31 -66 -113 -128 -204 -128c-56 0 -109 27 -109 89c0 18 5 38 13 55c31 66 113 128 204 128z" fill="currentColor"/>
</g>
</a>
<a style="color:inherit;" xlink:href="textedit://C:/Users/grego/AppData/Local/Temp/lilypond-intavolatura-all/MeruloXI-Vtone-03-cis-stage1.ly:593:6:7">
<g transform="translate(62.4153, 11.1906)">
<path transform="scale(0.0040, -0.0040)" d="M303 37c7 9 11 18 11 27c0 22 -20 42 -43 42c-4 0 -7 0 -11 -1c-31 -9 -78 -40 -115 -64s-84 -53 -104 -78c-7 -9 -10 -18 -10 -27c0 -22 20 -42 43 -42c4 0 7 0 11 1c31 9 77 40 114 64s84 53 104 78zM262 136c46 0 82 -21 82 -71c0 -19 -4 -39 -10 -57
c-12 -37 -32 -72 -64 -94c-53 -36 -113 -50 -187 -50c-46 0 -83 21 -83 71c0 19 5 39 11 57c12 37 31 72 63 94c53 36 114 50 188 50z" fill="currentColor"/>
</g>
</a>
<g transform="translate(83.5851, 11.6906)">
<rect x="-0.0650" y="-3.1900" width="0.1300" height="2.5038" ry="0.0400" fill="currentColor"/>
</g>
<a style="color:inherit;" xlink:href="textedit://C:/Users/grego/AppData/Local/Temp/lilypond-intavolatura-all/MeruloXI-Vtone-03-cis-stage1.ly:606:31:32">
<g transform="translate(82.3459, 11.1906)">
<path transform="scale(0.0040, -0.0040)" d="M217 136c56 0 109 -27 109 -89c0 -18 -5 -38 -13 -55c-31 -66 -113 -128 -204 -128c-56 0 -109 27 -109 89c0 18 5 38 13 55c31 66 113 128 204 128z" fill="currentColor"/>
</g>
</a>
<g transform="translate(81.5269, 11.6906)">
<rect x="-0.0650" y="-3.1900" width="0.1300" height="3.0038" ry="0.0400" fill="currentColor"/>
</g>
<a style="color:inherit;" xlink:href="textedit://C:/Users/grego/AppData/Local/Temp/lilypond-intavolatura-all/MeruloXI-Vtone-03-cis-stage1.ly:606:27:28">
<g transform="translate(80.2877, 11.6906)">
<path transform="scale(0.0040, -0.0040)" d="M217 136c56 0 109 -27 109 -89c0 -18 -5 -38 -13 -55c-31 -66 -113 -128 -204 -128c-56 0 -109 27 -109 89c0 18 5 38 13 55c31 66 113 128 204 128z" fill="currentColor"/>
</g>
</a>
<g transform="translate(65.2924, 25.6906)">
<rect x="-0.0650" y="-0.8138" width="0.1300" height="2.8180" ry="0.0400" fill="currentColor"/>
</g>
<a style="color:inherit;" xlink:href="textedit://C:/Users/grego/AppData/Local/Temp/lilypond-intavolatura-all/MeruloXI-Vtone-03-cis-stage1.ly:748:9:10">
<g transform="translate(65.2274, 24.6906)">
<path transform="scale(0.0040, -0.0040)" d="M217 136c56 0 109 -27 109 -89c0 -18 -5 -38 -13 -55c-31 -66 -113 -128 -204 -128c-56 0 -109 27 -109 89c0 18 5 38 13 55c31 66 113 128 204 128z" fill="currentColor"/>
</g>
</a>
<g transform="translate(62.4803, 25.6906)">
<rect x="-0.0650" y="-0.3138" width="0.1300" height="2.4996" ry="0.0400" fill="currentColor"/>
</g>
<a style="color:inherit;" xlink:href="textedit://C:/Users/grego/AppData/Local/Temp/lilypond-intavolatura-all/MeruloXI-Vtone-03-cis-stage1.ly:743:6:7">
<g transform="translate(68.0394, 24.1906)">
<path transform="scale(0.0040, -0.0040)" d="M217 136c56 0 109 -27 109 -89c0 -18 -5 -38 -13 -55c-31 -66 -113 -128 -204 -128c-56 0 -109 27 -109 89c0 18 5 38 13 55c31 66 113 128 204 128z" fill="currentColor"/>
</g>
</a>
<g transform="translate(63.6545, 25.6906)">
<rect x="-0.0650" y="-4.3333" width="0.1300" height="2.6471" ry="0.0400" fill="currentColor"/>
</g>
<g transform="translate(62.4803, 11.6906)">
<rect x="-0.0650" y="2.2590" width="0.1300" height="2.4077" ry="0.0400" fill="currentColor"/>
</g>
<g transform="translate(63.7277, 11.6906)">
<rect x="-0.0650" y="-3.6667" width="0.1300" height="2.9077" ry="0.0400" fill="currentColor"/>
</g>
<a style="color:inherit;" xlink:href="textedit://C:/Users/grego/AppData/Local/Temp/lilypond-intavolatura-all/MeruloXI-Vtone-03-cis-stage1.ly:748:6:7">
<g transform="translate(62.4153, 25.1906)">
<path transform="scale(0.0040, -0.0040)" d="M217 136c56 0 109 -27 109 -89c0 -18 -5 -38 -13 -55c-31 -66 -113 -128 -204 -128c-56 0 -109 27 -109 89c0 18 5 38 13 55c31 66 113 128 204 128z" fill="currentColor"/>
</g>
</a>
<g transform="translate(74.6636, 7.9806)">
<path transform="scale(0.0040, -0.0040)" d="M0 0v-375h-16v375h16zM0 0c0 -197 207 -336 207 -533c0 -71 -15 -141 -41 -207c-5 -8 -13 -12 -20 -12c-12 0 -23 9 -23 23v4c26 61 42 126 42 192c0 103 -94 208 -165 283v250z" fill="currentColor"/>
</g>
<a style="color:inherit;" xlink:href="textedit://C:/Users/grego/AppData/Local/Temp/lilypond-intavolatura-all/MeruloXI-Vtone-03-cis-stage1.ly:599:6:7">
<g transform="translate(62.4153, 13.6906)">
<path transform="scale(0.0040, -0.0040)" d="M303 37c7 9 11 18 11 27c0 22 -20 42 -43 42c-4 0 -7 0 -11 -1c-31 -9 -78 -40 -115 -64s-84 -53 -104 -78c-7 -9 -10 -18 -10 -27c0 -22 20 -42 43 -42c4 0 7 0 11 1c31 9 77 40 114 64s84 53 104 78zM262 136c46 0 82 -21 82 -71c0 -19 -4 -39 -10 -57
c-12 -37 -32 -72 -64 -94c-53 -36 -113 -50 -187 -50c-46 0 -83 21 -83 71c0 19 5 39 11 57c12 37 31 72 63 94c53 36 114 50 188 50z" fill="currentColor"/>
</g>
</a>
<g transform="translate(74.5986, 11.6906)">
<rect x="-0.0650" y="-3.7500" width="0.1300" height="3.0638" ry="0.0400" fill="currentColor"/>
</g>
<a style="color:inherit;" xlink:href="textedit://C:/Users/grego/AppData/Local/Temp/lilypond-intavolatura-all/MeruloXI-Vtone-03-cis-stage1.ly:765:6:7">
<g transform="translate(73.3594, 24.6906)">
<path transform="scale(0.0040, -0.0040)" d="M303 37c7 9 11 18 11 27c0 22 -20 42 -43 42c-4 0 -7 0 -11 -1c-31 -9 -78 -40 -115 -64s-84 -53 -104 -78c-7 -9 -10 -18 -10 -27c0 -22 20 -42 43 -42c4 0 7 0 11 1c31 9 77 40 114 64s84 53 104 78zM262 136c46 0 82 -21 82 -71c0 -19 -4 -39 -10 -57
c-12 -37 -32 -72 -64 -94c-53 -36 -113 -50 -187 -50c-46 0 -83 21 -83 71c0 19 5 39 11 57c12 37 31 72 63 94c53 36 114 50 188 50z" fill="currentColor"/>
</g>
</a>
<a style="color:inherit;" xlink:href="textedit://C:/Users/grego/AppData/Local/Temp/lilypond-intavolatura-all/MeruloXI-Vtone-03-cis-stage1.ly:760:6:7">
<g transform="translate(73.3594, 23.6906)">
<path transform="scale(0.0040, -0.0040)" d="M303 37c7 9 11 18 11 27c0 22 -20 42 -43 42c-4 0 -7 0 -11 -1c-31 -9 -78 -40 -115 -64s-84 -53 -104 -78c-7 -9 -10 -18 -10 -27c0 -22 20 -42 43 -42c4 0 7 0 11 1c31 9 77 40 114 64s84 53 104 78zM262 136c46 0 82 -21 82 -71c0 -19 -4 -39 -10 -57
c-12 -37 -32 -72 -64 -94c-53 -36 -113 -50 -187 -50c-46 0 -83 21 -83 71c0 19 5 39 11 57c12 37 31 72 63 94c53 36 114 50 188 50z" fill="currentColor"/>
</g>
</a>
<a style="color:inherit;" xlink:href="textedit://C:/Users/grego/AppData/Local/Temp/lilypond-intavolatura-all/MeruloXI-Vtone-03-cis-stage1.ly:755:6:7">
<g transform="translate(73.3594, 22.6906)">
<path transform="scale(0.0040, -0.0040)" d="M303 37c7 9 11 18 11 27c0 22 -20 42 -43 42c-4 0 -7 0 -11 -1c-31 -9 -78 -40 -115 -64s-84 -53 -104 -78c-7 -9 -10 -18 -10 -27c0 -22 20 -42 43 -42c4 0 7 0 11 1c31 9 77 40 114 64s84 53 104 78zM262 136c46 0 82 -21 82 -71c0 -19 -4 -39 -10 -57
c-12 -37 -32 -72 -64 -94c-53 -36 -113 -50 -187 -50c-46 0 -83 21 -83 71c0 19 5 39 11 57c12 37 31 72 63 94c53 36 114 50 188 50z" fill="currentColor"/>
</g>
</a>
<a style="color:inherit;" xlink:href="textedit://C:/Users/grego/AppData/Local/Temp/lilypond-intavolatura-all/MeruloXI-Vtone-03-cis-stage1.ly:606:4:5">
<g transform="translate(73.3594, 11.1906)">
<path transform="scale(0.0040, -0.0040)" d="M217 136c56 0 109 -27 109 -89c0 -18 -5 -38 -13 -55c-31 -66 -113 -128 -204 -128c-56 0 -109 27 -109 89c0 18 5 38 13 55c31 66 113 128 204 128z" fill="currentColor"/>
</g>
</a>
<g transform="translate(70.6773, 28.6506)">
<path transform="scale(0.0040, -0.0040)" d="M0 0h-16v375h16v-375zM0 0v250c97 59 224 148 224 259c0 57 -15 112 -40 163v5c0 14 11 22 23 22c7 0 15 -3 20 -11c25 -56 40 -117 40 -179c0 -203 -267 -306 -267 -509z" fill="currentColor"/>
</g>
<a style="color:inherit;" xlink:href="textedit://C:/Users/grego/AppData/Local/Temp/lilypond-intavolatura-all/MeruloXI-Vtone-03-cis-stage1.ly:742:6:7">
<g transform="translate(62.4153, 24.1906)">
<path transform="scale(0.0040, -0.0040)" d="M217 136c56 0 109 -27 109 -89c0 -18 -5 -38 -13 -55c-31 -66 -113 -128 -204 -128c-56 0 -109 27 -109 89c0 18 5 38 13 55c31 66 113 128 204 128z" fill="currentColor"/>
</g>
</a>
<g transform="translate(70.6123, 25.6906)">
<rect x="-0.0650" y="-0.3138" width="0.1300" height="3.3138" ry="0.0400" fill="currentColor"/>
</g>
<a style="color:inherit;" xlink:href="textedit://C:/Users/grego/AppData/Local/Temp/lilypond-intavolatura-all/MeruloXI-Vtone-03-cis-stage1.ly:748:17:18">
<g transform="translate(70.5473, 25.1906)">
<path transform="scale(0.0040, -0.0040)" d="M217 136c56 0 109 -27 109 -89c0 -18 -5 -38 -13 -55c-31 -66 -113 -128 -204 -128c-56 0 -109 27 -109 89c0 18 5 38 13 55c31 66 113 128 204 128z" fill="currentColor"/>
</g>
</a>
<g transform="translate(69.2786, 25.6906)">
<rect x="-0.0650" y="-4.3333" width="0.1300" height="2.6471" ry="0.0400" fill="currentColor"/>
</g>
<a style="color:inherit;" xlink:href="textedit://C:/Users/grego/AppData/Local/Temp/lilypond-intavolatura-all/MeruloXI-Vtone-03-cis-stage1.ly:748:14:15">
<g transform="translate(68.0394, 27.6906)">
<path transform="scale(0.0040, -0.0040)" d="M84 54c-46 0 -87 33 -87 79c0 40 33 72 73 72c25 0 48 -15 56 -39c10 -28 6 -59 35 -59c16 0 54 48 61 63c3 6 8 9 14 9s12 -3 14 -9l-123 -420c-8 -7 -17 -10 -27 -10s-20 3 -28 10l117 326c-34 -12 -69 -22 -105 -22z" fill="currentColor"/>
</g>
</a>
<a style="color:inherit;" xlink:href="textedit://C:/Users/grego/AppData/Local/Temp/lilypond-intavolatura-all/MeruloXI-Vtone-03-cis-stage1.ly:630:6:7">
<g transform="translate(106.5726, 12.6906)">
<path transform="scale(0.0040, -0.0040)" d="M303 37c7 9 11 18 11 27c0 22 -20 42 -43 42c-4 0 -7 0 -11 -1c-31 -9 -78 -40 -115 -64s-84 -53 -104 -78c-7 -9 -10 -18 -10 -27c0 -22 20 -42 43 -42c4 0 7 0 11 1c31 9 77 40 114 64s84 53 104 78zM262 136c46 0 82 -21 82 -71c0 -19 -4 -39 -10 -57
c-12 -37 -32 -72 -64 -94c-53 -36 -113 -50 -187 -50c-46 0 -83 21 -83 71c0 19 5 39 11 57c12 37 31 72 63 94c53 36 114 50 188 50z" fill="currentColor"/>
</g>
</a>
<g transform="translate(104.7497, 25.6906)">
<rect x="-0.0650" y="-1.0000" width="0.1300" height="3.3138" ry="0.0400" fill="currentColor"/>
</g>
<a style="color:inherit;" xlink:href="textedit://C:/Users/grego/AppData/Local/Temp/lilypond-intavolatura-all/MeruloXI-Vtone-03-cis-stage1.ly:774:16:17">
<g transform="translate(103.5105, 28.1906)">
<path transform="scale(0.0040, -0.0040)" d="M217 136c56 0 109 -27 109 -89c0 -18 -5 -38 -13 -55c-31 -66 -113 -128 -204 -128c-56 0 -109 27 -109 89c0 18 5 38 13 55c31 66 113 128 204 128z" fill="currentColor"/>
</g>
</a>
<g transform="translate(102.1877, 25.6906)">
<rect x="-0.0650" y="-1.0000" width="0.1300" height="2.3138" ry="0.0400" fill="currentColor"/>
</g>
<a style="color:inherit;" xlink:href="textedit://C:/Users/grego/AppData/Local/Temp/lilypond-intavolatura-all/MeruloXI-Vtone-03-cis-stage1.ly:774:13:14">
<g transform="translate(100.9485, 27.1906)">
<path transform="scale(0.0040, -0.0040)" d="M217 136c56 0 109 -27 109 -89c0 -18 -5 -38 -13 -55c-31 -66 -113 -128 -204 -128c-56 0 -109 27 -109 89c0 18 5 38 13 55c31 66 113 128 204 128z" fill="currentColor"/>
</g>
</a>
<a style="color:inherit;" xlink:href="textedit://C:/Users/grego/AppData/Local/Temp/lilypond-intavolatura-all/MeruloXI-Vtone-03-cis-stage1.ly:637:6:7">
<g transform="translate(106.5726, 13.6906)">
<path transform="scale(0.0040, -0.0040)" d="M303 37c7 9 11 18 11 27c0 22 -20 42 -43 42c-4 0 -7 0 -11 -1c-31 -9 -78 -40 -115 -64s-84 -53 -104 -78c-7 -9 -10 -18 -10 -27c0 -22 20 -42 43 -42c4 0 7 0 11 1c31 9 77 40 114 64s84 53 104 78zM262 136c46 0 82 -21 82 -71c0 -19 -4 -39 -10 -57
c-12 -37 -32 -72 -64 -94c-53 -36 -113 -50 -187 -50c-46 0 -83 21 -83 71c0 19 5 39 11 57c12 37 31 72 63 94c53 36 114 50 188 50z" fill="currentColor"/>
</g>
</a>
<g transform="translate(99.3756, 25.6906)">
<rect x="-0.0650" y="-1.0000" width="0.1300" height="2.8138" ry="0.0400" fill="currentColor"/>
</g>
<a style="color:inherit;" xlink:href="textedit://C:/Users/grego/AppData/Local/Temp/lilypond-intavolatura-all/MeruloXI-Vtone-03-cis-stage1.ly:774:10:11">
<g transform="translate(98.1364, 27.6906)">
<path transform="scale(0.0040, -0.0040)" d="M217 136c56 0 109 -27 109 -89c0 -18 -5 -38 -13 -55c-31 -66 -113 -128 -204 -128c-56 0 -109 27 -109 89c0 18 5 38 13 55c31 66 113 128 204 128z" fill="currentColor"/>
</g>
</a>
<a style="color:inherit;" xlink:href="textedit://C:/Users/grego/AppData/Local/Temp/lilypond-intavolatura-all/MeruloXI-Vtone-03-cis-stage1.ly:643:9:10">
<g transform="translate(95.3243, 11.6906)">
<path stroke-width="0.0800" stroke-linejoin="round" stroke-linecap="round" stroke="currentColor" fill="currentColor" d="M0.8887 3.7500C2.1244 4.6900 9.6776 4.6900 10.9133 3.7500L10.9133 3.7500C9.6776 4.5700 2.1244 4.5700 0.8887 3.7500z"/>
</g>
</a>
<a style="color:inherit;" xlink:href="textedit://C:/Users/grego/AppData/Local/Temp/lilypond-intavolatura-all/MeruloXI-Vtone-03-cis-stage1.ly:606:21:22">
<g transform="translate(77.3457, 8.5006)">
<polygon stroke-linejoin="round" stroke-linecap="round" stroke-width="0.0800" fill="currentColor" stroke="currentColor" points="8.3225 -0.2000 8.3225 0.2000 0.0400 0.2000 0.0400 -0.2000"/>
</g>
<g transform="translate(77.3457, 9.3106)">
<polygon stroke-linejoin="round" stroke-linecap="round" stroke-width="0.0800" fill="currentColor" stroke="currentColor" points="6.2644 -0.2000 6.2644 0.2000 0.0400 0.2000 0.0400 -0.2000"/>
</g>
</a>
<g transform="translate(62.4153, 27.8806)">
<polygon stroke-linejoin="round" stroke-linecap="round" stroke-width="0.0800" fill="currentColor" stroke="currentColor" points="2.9021 -0.3900 2.9021 0.0100 0.0400 0.2000 0.0400 -0.2000"/>
</g>
<a style="color:inherit;" xlink:href="textedit://C:/Users/grego/AppData/Local/Temp/lilypond-intavolatura-all/MeruloXI-Vtone-03-cis-stage1.ly:587:9:10">
<g transform="translate(47.4786, 8.6906)">
<polygon stroke-linejoin="round" stroke-linecap="round" stroke-width="0.0800" fill="currentColor" stroke="currentColor" points="14.2470 -0.2000 14.2470 0.2000 0.0400 0.2000 0.0400 -0.2000"/>
</g>
<g transform="translate(47.4786, 9.5006)">
<polygon stroke-linejoin="round" stroke-linecap="round" stroke-width="0.0800" fill="currentColor" stroke="currentColor" points="14.2470 -0.2000 14.2470 0.2000 0.0400 0.2000 0.0400 -0.2000"/>
</g>
</a>
<a style="color:inherit;" xlink:href="textedit://C:/Users/grego/AppData/Local/Temp/lilypond-intavolatura-all/MeruloXI-Vtone-03-cis-stage1.ly:576:11:12">
<g transform="translate(29.8186, 9.5006)">
<polygon stroke-linejoin="round" stroke-linecap="round" stroke-width="0.0800" fill="currentColor" stroke="currentColor" points="14.4970 -0.5100 14.4970 -0.1100 0.0400 0.2000 0.0400 -0.2000"/>
</g>
<g transform="translate(29.8186, 10.3106)">
<polygon stroke-linejoin="round" stroke-linecap="round" stroke-width="0.0800" fill="currentColor" stroke="currentColor" points="14.4970 -0.5100 14.4970 -0.1100 0.0400 0.2000 0.0400 -0.2000"/>
</g>
</a>
<g transform="translate(107.8850, 25.6906)">
<rect x="-0.0650" y="-3.0000" width="0.1300" height="3.2410" ry="0.0400" fill="currentColor"/>
</g>
<g transform="translate(106.6376, 11.6906)">
<rect x="-0.0650" y="3.2590" width="0.1300" height="2.2410" ry="0.0400" fill="currentColor"/>
</g>
<g transform="translate(106.6376, 11.6906)">
<rect x="-0.0650" y="2.2590" width="0.1300" height="2.4077" ry="0.0400" fill="currentColor"/>
</g>
<g transform="translate(107.8850, 11.6906)">
<rect x="-0.0650" y="-2.5000" width="0.1300" height="3.2410" ry="0.0400" fill="currentColor"/>
</g>
<a style="color:inherit;" xlink:href="textedit://C:/Users/grego/AppData/Local/Temp/lilypond-intavolatura-all/MeruloXI-Vtone-03-cis-stage1.ly:777:4:5">
<g transform="translate(106.5726, 26.1906)">
<path transform="scale(0.0040, -0.0040)" d="M303 37c7 9 11 18 11 27c0 22 -20 42 -43 42c-4 0 -7 0 -11 -1c-31 -9 -78 -40 -115 -64s-84 -53 -104 -78c-7 -9 -10 -18 -10 -27c0 -22 20 -42 43 -42c4 0 7 0 11 1c31 9 77 40 114 64s84 53 104 78zM262 136c46 0 82 -21 82 -71c0 -19 -4 -39 -10 -57
c-12 -37 -32 -72 -64 -94c-53 -36 -113 -50 -187 -50c-46 0 -83 21 -83 71c0 19 5 39 11 57c12 37 31 72 63 94c53 36 114 50 188 50z" fill="currentColor"/>
</g>
</a>
<a style="color:inherit;" xlink:href="textedit://C:/Users/grego/AppData/Local/Temp/lilypond-intavolatura-all/MeruloXI-Vtone-03-cis-stage1.ly:644:6:7">
<g transform="translate(106.5726, 14.6906)">
<path transform="scale(0.0040, -0.0040)" d="M303 37c7 9 11 18 11 27c0 22 -20 42 -43 42c-4 0 -7 0 -11 -1c-31 -9 -78 -40 -115 -64s-84 -53 -104 -78c-7 -9 -10 -18 -10 -27c0 -22 20 -42 43 -42c4 0 7 0 11 1c31 9 77 40 114 64s84 53 104 78zM262 136c46 0 82 -21 82 -71c0 -19 -4 -39 -10 -57
c-12 -37 -32 -72 -64 -94c-53 -36 -113 -50 -187 -50c-46 0 -83 21 -83 71c0 19 5 39 11 57c12 37 31 72 63 94c53 36 114 50 188 50z" fill="currentColor"/>
</g>
</a>
<a style="color:inherit;" xlink:href="textedit://C:/Users/grego/AppData/Local/Temp/lilypond-intavolatura-all/MeruloXI-Vtone-03-cis-stage1.ly:774:4:5">
<g transform="translate(95.3243, 28.1906)">
<path transform="scale(0.0040, -0.0040)" d="M217 136c56 0 109 -27 109 -89c0 -18 -5 -38 -13 -55c-31 -66 -113 -128 -204 -128c-56 0 -109 27 -109 89c0 18 5 38 13 55c31 66 113 128 204 128z" fill="currentColor"/>
</g>
</a>
<a style="color:inherit;" xlink:href="textedit://C:/Users/grego/AppData/Local/Temp/lilypond-intavolatura-all/MeruloXI-Vtone-03-cis-stage1.ly:643:6:7">
<g transform="translate(95.3243, 14.6906)">
<path transform="scale(0.0040, -0.0040)" d="M303 37c7 9 11 18 11 27c0 22 -20 42 -43 42c-4 0 -7 0 -11 -1c-31 -9 -78 -40 -115 -64s-84 -53 -104 -78c-7 -9 -10 -18 -10 -27c0 -22 20 -42 43 -42c4 0 7 0 11 1c31 9 77 40 114 64s84 53 104 78zM262 136c46 0 82 -21 82 -71c0 -19 -4 -39 -10 -57
c-12 -37 -32 -72 -64 -94c-53 -36 -113 -50 -187 -50c-46 0 -83 21 -83 71c0 19 5 39 11 57c12 37 31 72 63 94c53 36 114 50 188 50z" fill="currentColor"/>
</g>
</a>
<a style="color:inherit;" xlink:href="textedit://C:/Users/grego/AppData/Local/Temp/lilypond-intavolatura-all/MeruloXI-Vtone-03-cis-stage1.ly:636:6:7">
<g transform="translate(95.3243, 13.1906)">
<path transform="scale(0.0040, -0.0040)" d="M303 37c7 9 11 18 11 27c0 22 -20 42 -43 42c-4 0 -7 0 -11 -1c-31 -9 -78 -40 -115 -64s-84 -53 -104 -78c-7 -9 -10 -18 -10 -27c0 -22 20 -42 43 -42c4 0 7 0 11 1c31 9 77 40 114 64s84 53 104 78zM262 136c46 0 82 -21 82 -71c0 -19 -4 -39 -10 -57
c-12 -37 -32 -72 -64 -94c-53 -36 -113 -50 -187 -50c-46 0 -83 21 -83 71c0 19 5 39 11 57c12 37 31 72 63 94c53 36 114 50 188 50z" fill="currentColor"/>
</g>
</a>
<a style="color:inherit;" xlink:href="textedit://C:/Users/grego/AppData/Local/Temp/lilypond-intavolatura-all/MeruloXI-Vtone-03-cis-stage1.ly:629:6:7">
<g transform="translate(95.3243, 12.1906)">
<path transform="scale(0.0040, -0.0040)" d="M303 37c7 9 11 18 11 27c0 22 -20 42 -43 42c-4 0 -7 0 -11 -1c-31 -9 -78 -40 -115 -64s-84 -53 -104 -78c-7 -9 -10 -18 -10 -27c0 -22 20 -42 43 -42c4 0 7 0 11 1c31 9 77 40 114 64s84 53 104 78zM262 136c46 0 82 -21 82 -71c0 -19 -4 -39 -10 -57
c-12 -37 -32 -72 -64 -94c-53 -36 -113 -50 -187 -50c-46 0 -83 21 -83 71c0 19 5 39 11 57c12 37 31 72 63 94c53 36 114 50 188 50z" fill="currentColor"/>
</g>
</a>
<g transform="translate(91.9171, 11.6906)">
<rect x="-0.0650" y="-2.5000" width="0.1300" height="3.3138" ry="0.0400" fill="currentColor"/>
</g>
<a style="color:inherit;" xlink:href="textedit://C:/Users/grego/AppData/Local/Temp/lilypond-intavolatura-all/MeruloXI-Vtone-03-cis-stage1.ly:612:11:12">
<g transform="translate(90.6779, 12.6906)">
<path transform="scale(0.0040, -0.0040)" d="M217 136c56 0 109 -27 109 -89c0 -18 -5 -38 -13 -55c-31 -66 -113 -128 -204 -128c-56 0 -109 27 -109 89c0 18 5 38 13 55c31 66 113 128 204 128z" fill="currentColor"/>
</g>
</a>
<g transform="translate(88.4243, 25.6906)">
<rect x="-0.0650" y="-1.0000" width="0.1300" height="3.2410" ry="0.0400" fill="currentColor"/>
</g>
<g transform="translate(87.1769, 11.6906)">
<rect x="-0.0650" y="4.2590" width="0.1300" height="2.2410" ry="0.0400" fill="currentColor"/>
</g>
<g transform="translate(87.1769, 11.6906)">
<rect x="-0.0650" y="3.2590" width="0.1300" height="2.2410" ry="0.0400" fill="currentColor"/>
</g>
<g transform="translate(96.5635, 25.6906)">
<rect x="-0.0650" y="-1.0000" width="0.1300" height="3.3138" ry="0.0400" fill="currentColor"/>
</g>
<g transform="translate(95.3893, 11.6906)">
<rect x="-0.0650" y="3.2590" width="0.1300" height="2.2410" ry="0.0400" fill="currentColor"/>
</g>
<g transform="translate(95.3893, 11.6906)">
<rect x="-0.0650" y="1.7590" width="0.1300" height="2.5743" ry="0.0400" fill="currentColor"/>
</g>
<g transform="translate(96.6367, 11.6906)">
<rect x="-0.0650" y="-3.0000" width="0.1300" height="3.2410" ry="0.0400" fill="currentColor"/>
</g>
<g transform="translate(33.9999, 11.6906)">
<rect x="-0.0650" y="-2.2792" width="0.1300" height="3.0930" ry="0.0400" fill="currentColor"/>
</g>
<a style="color:inherit;" xlink:href="textedit://C:/Users/grego/AppData/Local/Temp/lilypond-intavolatura-all/MeruloXI-Vtone-03-cis-stage1.ly:576:18:19">
<g transform="translate(32.7607, 12.6906)">
<path transform="scale(0.0040, -0.0040)" d="M217 136c56 0 109 -27 109 -89c0 -18 -5 -38 -13 -55c-31 -66 -113 -128 -204 -128c-56 0 -109 27 -109 89c0 18 5 38 13 55c31 66 113 128 204 128z" fill="currentColor"/>
</g>
</a>
<g transform="translate(31.9418, 11.6906)">
<rect x="-0.0650" y="-2.2353" width="0.1300" height="3.5491" ry="0.0400" fill="currentColor"/>
</g>
<a style="color:inherit;" xlink:href="textedit://C:/Users/grego/AppData/Local/Temp/lilypond-intavolatura-all/MeruloXI-Vtone-03-cis-stage1.ly:576:13:14">
<g transform="translate(30.7026, 13.1906)">
<path transform="scale(0.0040, -0.0040)" d="M217 136c56 0 109 -27 109 -89c0 -18 -5 -38 -13 -55c-31 -66 -113 -128 -204 -128c-56 0 -109 27 -109 89c0 18 5 38 13 55c31 66 113 128 204 128z" fill="currentColor"/>
</g>
</a>
<g transform="translate(28.7094, 25.6906)">
<rect x="-0.0650" y="0.7590" width="0.1300" height="2.9077" ry="0.0400" fill="currentColor"/>
</g>
<g transform="translate(29.9568, 25.6906)">
<rect x="-0.0650" y="-5.5000" width="0.1300" height="2.2410" ry="0.0400" fill="currentColor"/>
</g>
<g transform="translate(28.7094, 11.6906)">
<rect x="-0.0650" y="2.2590" width="0.1300" height="2.4077" ry="0.0400" fill="currentColor"/>
</g>
<a style="color:inherit;" xlink:href="textedit://C:/Users/grego/AppData/Local/Temp/lilypond-intavolatura-all/MeruloXI-Vtone-03-cis-stage1.ly:576:31:32">
<g transform="translate(38.9351, 13.1906)">
<path transform="scale(0.0040, -0.0040)" d="M217 136c56 0 109 -27 109 -89c0 -18 -5 -38 -13 -55c-31 -66 -113 -128 -204 -128c-56 0 -109 27 -109 89c0 18 5 38 13 55c31 66 113 128 204 128z" fill="currentColor"/>
</g>
</a>
<a style="color:inherit;" xlink:href="textedit://C:/Users/grego/AppData/Local/Temp/lilypond-intavolatura-all/MeruloXI-Vtone-03-cis-stage1.ly:576:40:41">
<g transform="translate(43.0514, 12.1906)">
<path transform="scale(0.0040, -0.0040)" d="M217 136c56 0 109 -27 109 -89c0 -18 -5 -38 -13 -55c-31 -66 -113 -128 -204 -128c-56 0 -109 27 -109 89c0 18 5 38 13 55c31 66 113 128 204 128z" fill="currentColor"/>
</g>
</a>
<g transform="translate(42.2324, 11.6906)">
<rect x="-0.0650" y="-2.4547" width="0.1300" height="3.2685" ry="0.0400" fill="currentColor"/>
</g>
<a style="color:inherit;" xlink:href="textedit://C:/Users/grego/AppData/Local/Temp/lilypond-intavolatura-all/MeruloXI-Vtone-03-cis-stage1.ly:576:36:37">
<g transform="translate(40.9932, 12.6906)">
<path transform="scale(0.0040, -0.0040)" d="M217 136c56 0 109 -27 109 -89c0 -18 -5 -38 -13 -55c-31 -66 -113 -128 -204 -128c-56 0 -109 27 -109 89c0 18 5 38 13 55c31 66 113 128 204 128z" fill="currentColor"/>
</g>
</a>
<g transform="translate(40.1743, 11.6906)">
<rect x="-0.0650" y="-2.4108" width="0.1300" height="3.7246" ry="0.0400" fill="currentColor"/>
</g>
<g transform="translate(38.1162, 11.6906)">
<rect x="-0.0650" y="-2.3669" width="0.1300" height="3.1807" ry="0.0400" fill="currentColor"/>
</g>
<a style="color:inherit;" xlink:href="textedit://C:/Users/grego/AppData/Local/Temp/lilypond-intavolatura-all/MeruloXI-Vtone-03-cis-stage1.ly:576:27:28">
<g transform="translate(36.8770, 12.6906)">
<path transform="scale(0.0040, -0.0040)" d="M217 136c56 0 109 -27 109 -89c0 -18 -5 -38 -13 -55c-31 -66 -113 -128 -204 -128c-56 0 -109 27 -109 89c0 18 5 38 13 55c31 66 113 128 204 128z" fill="currentColor"/>
</g>
</a>
<g transform="translate(36.0580, 11.6906)">
<rect x="-0.0650" y="-2.3231" width="0.1300" height="3.6369" ry="0.0400" fill="currentColor"/>
</g>
<a style="color:inherit;" xlink:href="textedit://C:/Users/grego/AppData/Local/Temp/lilypond-intavolatura-all/MeruloXI-Vtone-03-cis-stage1.ly:576:22:23">
<g transform="translate(34.8188, 13.1906)">
<path transform="scale(0.0040, -0.0040)" d="M217 136c56 0 109 -27 109 -89c0 -18 -5 -38 -13 -55c-31 -66 -113 -128 -204 -128c-56 0 -109 27 -109 89c0 18 5 38 13 55c31 66 113 128 204 128z" fill="currentColor"/>
</g>
</a>
<a style="color:inherit;" xlink:href="textedit://C:/Users/grego/AppData/Local/Temp/lilypond-intavolatura-all/MeruloXI-Vtone-03-cis-stage1.ly:701:6:7">
<g transform="translate(21.8253, 22.6906)">
<path transform="scale(0.0040, -0.0040)" d="M303 37c7 9 11 18 11 27c0 22 -20 42 -43 42c-4 0 -7 0 -11 -1c-31 -9 -78 -40 -115 -64s-84 -53 -104 -78c-7 -9 -10 -18 -10 -27c0 -22 20 -42 43 -42c4 0 7 0 11 1c31 9 77 40 114 64s84 53 104 78zM262 136c46 0 82 -21 82 -71c0 -19 -4 -39 -10 -57
c-12 -37 -32 -72 -64 -94c-53 -36 -113 -50 -187 -50c-46 0 -83 21 -83 71c0 19 5 39 11 57c12 37 31 72 63 94c53 36 114 50 188 50z" fill="currentColor"/>
</g>
</a>
<g transform="translate(21.8903, 11.6906)">
<rect x="-0.0650" y="2.2590" width="0.1300" height="2.4077" ry="0.0400" fill="currentColor"/>
</g>
<g transform="translate(23.0645, 11.6906)">
<rect x="-0.0650" y="-2.5000" width="0.1300" height="3.3138" ry="0.0400" fill="currentColor"/>
</g>
<g transform="translate(23.5795, 12.1906)">
<path transform="scale(0.0040, -0.0040)" d="M0 0c0 31 25 56 56 56s56 -25 56 -56s-25 -56 -56 -56s-56 25 -56 56z" fill="currentColor"/>
</g>
<a style="color:inherit;" xlink:href="textedit://C:/Users/grego/AppData/Local/Temp/lilypond-intavolatura-all/MeruloXI-Vtone-03-cis-stage1.ly:690:6:7">
<g transform="translate(12.0342, 24.6906)">
<path transform="scale(0.0040, -0.0040)" d="M0 119c0 8 5 15 13 18l46 17v158c0 10 8 19 18 19s19 -9 19 -19v-145l83 31v158c0 10 9 19 19 19s18 -9 18 -19v-145l32 12c2 1 5 1 7 1c11 0 20 -9 20 -20v-60c0 -8 -5 -16 -13 -19l-46 -16v-160l32 11c2 1 5 1 7 1c11 0 20 -9 20 -20v-60c0 -8 -5 -15 -13 -18l-46 -17
v-158c0 -10 -8 -19 -18 -19s-19 9 -19 19v145l-83 -31v-158c0 -10 -9 -19 -19 -19s-18 9 -18 19v145l-32 -12c-2 -1 -5 -1 -7 -1c-11 0 -20 9 -20 20v60c0 8 5 16 13 19l46 16v160l-32 -11c-2 -1 -5 -1 -7 -1c-11 0 -20 9 -20 20v60zM179 95l-83 -30v-160l83 30v160z" fill="currentColor"/>
</g>
<g transform="translate(13.1342, 26.1906)">
<path transform="scale(0.0040, -0.0040)" d="M0 119c0 8 5 15 13 18l46 17v158c0 10 8 19 18 19s19 -9 19 -19v-145l83 31v158c0 10 9 19 19 19s18 -9 18 -19v-145l32 12c2 1 5 1 7 1c11 0 20 -9 20 -20v-60c0 -8 -5 -16 -13 -19l-46 -16v-160l32 11c2 1 5 1 7 1c11 0 20 -9 20 -20v-60c0 -8 -5 -15 -13 -18l-46 -17
v-158c0 -10 -8 -19 -18 -19s-19 9 -19 19v145l-83 -31v-158c0 -10 -9 -19 -19 -19s-18 9 -18 19v145l-32 -12c-2 -1 -5 -1 -7 -1c-11 0 -20 9 -20 20v60c0 8 5 16 13 19l46 16v160l-32 -11c-2 -1 -5 -1 -7 -1c-11 0 -20 9 -20 20v60zM179 95l-83 -30v-160l83 30v160z" fill="currentColor"/>
</g>
<g transform="translate(14.2342, 24.1906)">
<path transform="scale(0.0040, -0.0040)" d="M0 119c0 8 5 15 13 18l46 17v158c0 10 8 19 18 19s19 -9 19 -19v-145l83 31v158c0 10 9 19 19 19s18 -9 18 -19v-145l32 12c2 1 5 1 7 1c11 0 20 -9 20 -20v-60c0 -8 -5 -16 -13 -19l-46 -16v-160l32 11c2 1 5 1 7 1c11 0 20 -9 20 -20v-60c0 -8 -5 -15 -13 -18l-46 -17
v-158c0 -10 -8 -19 -18 -19s-19 9 -19 19v145l-83 -31v-158c0 -10 -9 -19 -19 -19s-18 9 -18 19v145l-32 -12c-2 -1 -5 -1 -7 -1c-11 0 -20 9 -20 20v60c0 8 5 16 13 19l46 16v160l-32 -11c-2 -1 -5 -1 -7 -1c-11 0 -20 9 -20 20v60zM179 95l-83 -30v-160l83 30v160z" fill="currentColor"/>
</g>
<g transform="translate(15.3342, 25.6906)">
<path transform="scale(0.0040, -0.0040)" d="M0 119c0 8 5 15 13 18l46 17v158c0 10 8 19 18 19s19 -9 19 -19v-145l83 31v158c0 10 9 19 19 19s18 -9 18 -19v-145l32 12c2 1 5 1 7 1c11 0 20 -9 20 -20v-60c0 -8 -5 -16 -13 -19l-46 -16v-160l32 11c2 1 5 1 7 1c11 0 20 -9 20 -20v-60c0 -8 -5 -15 -13 -18l-46 -17
v-158c0 -10 -8 -19 -18 -19s-19 9 -19 19v145l-83 -31v-158c0 -10 -9 -19 -19 -19s-18 9 -18 19v145l-32 -12c-2 -1 -5 -1 -7 -1c-11 0 -20 9 -20 20v60c0 8 5 16 13 19l46 16v160l-32 -11c-2 -1 -5 -1 -7 -1c-11 0 -20 9 -20 20v60zM179 95l-83 -30v-160l83 30v160z" fill="currentColor"/>
</g>
<g transform="translate(16.4342, 27.1906)">
<path transform="scale(0.0040, -0.0040)" d="M0 119c0 8 5 15 13 18l46 17v158c0 10 8 19 18 19s19 -9 19 -19v-145l83 31v158c0 10 9 19 19 19s18 -9 18 -19v-145l32 12c2 1 5 1 7 1c11 0 20 -9 20 -20v-60c0 -8 -5 -16 -13 -19l-46 -16v-160l32 11c2 1 5 1 7 1c11 0 20 -9 20 -20v-60c0 -8 -5 -15 -13 -18l-46 -17
v-158c0 -10 -8 -19 -18 -19s-19 9 -19 19v145l-83 -31v-158c0 -10 -9 -19 -19 -19s-18 9 -18 19v145l-32 -12c-2 -1 -5 -1 -7 -1c-11 0 -20 9 -20 20v60c0 8 5 16 13 19l46 16v160l-32 -11c-2 -1 -5 -1 -7 -1c-11 0 -20 9 -20 20v60zM179 95l-83 -30v-160l83 30v160z" fill="currentColor"/>
</g>
<g transform="translate(17.5342, 25.1906)">
<path transform="scale(0.0040, -0.0040)" d="M0 119c0 8 5 15 13 18l46 17v158c0 10 8 19 18 19s19 -9 19 -19v-145l83 31v158c0 10 9 19 19 19s18 -9 18 -19v-145l32 12c2 1 5 1 7 1c11 0 20 -9 20 -20v-60c0 -8 -5 -16 -13 -19l-46 -16v-160l32 11c2 1 5 1 7 1c11 0 20 -9 20 -20v-60c0 -8 -5 -15 -13 -18l-46 -17
v-158c0 -10 -8 -19 -18 -19s-19 9 -19 19v145l-83 -31v-158c0 -10 -9 -19 -19 -19s-18 9 -18 19v145l-32 -12c-2 -1 -5 -1 -7 -1c-11 0 -20 9 -20 20v60c0 8 5 16 13 19l46 16v160l-32 -11c-2 -1 -5 -1 -7 -1c-11 0 -20 9 -20 20v60zM179 95l-83 -30v-160l83 30v160z" fill="currentColor"/>
</g>
<g transform="translate(18.6342, 26.6906)">
<path transform="scale(0.0040, -0.0040)" d="M0 119c0 8 5 15 13 18l46 17v158c0 10 8 19 18 19s19 -9 19 -19v-145l83 31v158c0 10 9 19 19 19s18 -9 18 -19v-145l32 12c2 1 5 1 7 1c11 0 20 -9 20 -20v-60c0 -8 -5 -16 -13 -19l-46 -16v-160l32 11c2 1 5 1 7 1c11 0 20 -9 20 -20v-60c0 -8 -5 -15 -13 -18l-46 -17
v-158c0 -10 -8 -19 -18 -19s-19 9 -19 19v145l-83 -31v-158c0 -10 -9 -19 -19 -19s-18 9 -18 19v145l-32 -12c-2 -1 -5 -1 -7 -1c-11 0 -20 9 -20 20v60c0 8 5 16 13 19l46 16v160l-32 -11c-2 -1 -5 -1 -7 -1c-11 0 -20 9 -20 20v60zM179 95l-83 -30v-160l83 30v160z" fill="currentColor"/>
</g>
</a>
<g transform="scale(0.7000, 0.7000)">
<g transform="translate(13.3369, 35.2722)">
<path transform="scale(0.0040, -0.0040)" d="M557 -125c0 28 23 51 51 51s51 -23 51 -51s-23 -51 -51 -51s-51 23 -51 51zM557 125c0 28 23 51 51 51s51 -23 51 -51s-23 -51 -51 -51s-51 23 -51 51zM232 263c172 0 293 -88 293 -251c0 -263 -263 -414 -516 -521c-3 -3 -6 -4 -9 -4c-7 0 -13 6 -13 13c0 3 1 6 4 9
c202 118 412 265 412 493c0 120 -63 235 -171 235c-74 0 -129 -54 -154 -126c11 5 22 8 34 8c55 0 100 -45 100 -100c0 -58 -44 -106 -100 -106c-60 0 -112 47 -112 106c0 133 102 244 232 244z" fill="currentColor"/>
</g>
</g>
<g transform="scale(0.4500, 0.4500)">
<g transform="translate(20.7463, 50.4234)">
<path transform="scale(0.0040, -0.0040)" d="M318 0c0 -33 7 -73 45 -73c29 0 57 31 88 31c123 0 229 -89 229 -208c0 -169 -93 -250 -265 -250c-83 0 -152 61 -152 142c0 42 34 77 76 77s76 -35 76 -77c0 -39 -49 -37 -49 -76c0 -23 24 -38 49 -38c116 0 140 90 140 222c0 106 -12 180 -104 180
c-72 0 -119 -71 -119 -149c0 -9 -7 -14 -14 -14s-13 5 -13 14c0 76 -31 147 -84 200v-471c0 -6 -4 -10 -10 -10h-21c-6 0 -10 4 -10 10v980c0 6 4 10 10 10h21c6 0 10 -4 10 -10v-471c53 53 84 124 84 200c0 9 6 14 13 14s14 -5 14 -14c0 -78 47 -149 119 -149
c92 0 104 74 104 180c0 132 -24 222 -140 222c-25 0 -49 -15 -49 -38c0 -39 49 -37 49 -76c0 -42 -34 -77 -76 -77s-76 35 -76 77c0 81 69 142 152 142c172 0 265 -81 265 -250c0 -119 -106 -208 -229 -208c-31 0 -59 31 -88 31c-38 0 -45 -40 -45 -73zM129 -500h-119
c-6 0 -10 4 -10 10v980c0 6 4 10 10 10h119c6 0 10 -4 10 -10v-980c0 -6 -4 -10 -10 -10z" fill="currentColor"/>
</g>
</g>
<a style="color:inherit;" xlink:href="textedit://C:/Users/grego/AppData/Local/Temp/lilypond-intavolatura-all/MeruloXI-Vtone-03-cis-stage1.ly:550:6:7">
<g transform="translate(12.0342, 9.6906)">
<path transform="scale(0.0040, -0.0040)" d="M0 119c0 8 5 15 13 18l46 17v158c0 10 8 19 18 19s19 -9 19 -19v-145l83 31v158c0 10 9 19 19 19s18 -9 18 -19v-145l32 12c2 1 5 1 7 1c11 0 20 -9 20 -20v-60c0 -8 -5 -16 -13 -19l-46 -16v-160l32 11c2 1 5 1 7 1c11 0 20 -9 20 -20v-60c0 -8 -5 -15 -13 -18l-46 -17
v-158c0 -10 -8 -19 -18 -19s-19 9 -19 19v145l-83 -31v-158c0 -10 -9 -19 -19 -19s-18 9 -18 19v145l-32 -12c-2 -1 -5 -1 -7 -1c-11 0 -20 9 -20 20v60c0 8 5 16 13 19l46 16v160l-32 -11c-2 -1 -5 -1 -7 -1c-11 0 -20 9 -20 20v60zM179 95l-83 -30v-160l83 30v160z" fill="currentColor"/>
</g>
<g transform="translate(13.1342, 11.1906)">
<path transform="scale(0.0040, -0.0040)" d="M0 119c0 8 5 15 13 18l46 17v158c0 10 8 19 18 19s19 -9 19 -19v-145l83 31v158c0 10 9 19 19 19s18 -9 18 -19v-145l32 12c2 1 5 1 7 1c11 0 20 -9 20 -20v-60c0 -8 -5 -16 -13 -19l-46 -16v-160l32 11c2 1 5 1 7 1c11 0 20 -9 20 -20v-60c0 -8 -5 -15 -13 -18l-46 -17
v-158c0 -10 -8 -19 -18 -19s-19 9 -19 19v145l-83 -31v-158c0 -10 -9 -19 -19 -19s-18 9 -18 19v145l-32 -12c-2 -1 -5 -1 -7 -1c-11 0 -20 9 -20 20v60c0 8 5 16 13 19l46 16v160l-32 -11c-2 -1 -5 -1 -7 -1c-11 0 -20 9 -20 20v60zM179 95l-83 -30v-160l83 30v160z" fill="currentColor"/>
</g>
<g transform="translate(14.2342, 9.1906)">
<path transform="scale(0.0040, -0.0040)" d="M0 119c0 8 5 15 13 18l46 17v158c0 10 8 19 18 19s19 -9 19 -19v-145l83 31v158c0 10 9 19 19 19s18 -9 18 -19v-145l32 12c2 1 5 1 7 1c11 0 20 -9 20 -20v-60c0 -8 -5 -16 -13 -19l-46 -16v-160l32 11c2 1 5 1 7 1c11 0 20 -9 20 -20v-60c0 -8 -5 -15 -13 -18l-46 -17
v-158c0 -10 -8 -19 -18 -19s-19 9 -19 19v145l-83 -31v-158c0 -10 -9 -19 -19 -19s-18 9 -18 19v145l-32 -12c-2 -1 -5 -1 -7 -1c-11 0 -20 9 -20 20v60c0 8 5 16 13 19l46 16v160l-32 -11c-2 -1 -5 -1 -7 -1c-11 0 -20 9 -20 20v60zM179 95l-83 -30v-160l83 30v160z" fill="currentColor"/>
</g>
<g transform="translate(15.3342, 10.6906)">
<path transform="scale(0.0040, -0.0040)" d="M0 119c0 8 5 15 13 18l46 17v158c0 10 8 19 18 19s19 -9 19 -19v-145l83 31v158c0 10 9 19 19 19s18 -9 18 -19v-145l32 12c2 1 5 1 7 1c11 0 20 -9 20 -20v-60c0 -8 -5 -16 -13 -19l-46 -16v-160l32 11c2 1 5 1 7 1c11 0 20 -9 20 -20v-60c0 -8 -5 -15 -13 -18l-46 -17
v-158c0 -10 -8 -19 -18 -19s-19 9 -19 19v145l-83 -31v-158c0 -10 -9 -19 -19 -19s-18 9 -18 19v145l-32 -12c-2 -1 -5 -1 -7 -1c-11 0 -20 9 -20 20v60c0 8 5 16 13 19l46 16v160l-32 -11c-2 -1 -5 -1 -7 -1c-11 0 -20 9 -20 20v60zM179 95l-83 -30v-160l83 30v160z" fill="currentColor"/>
</g>
<g transform="translate(16.4342, 12.1906)">
<path transform="scale(0.0040, -0.0040)" d="M0 119c0 8 5 15 13 18l46 17v158c0 10 8 19 18 19s19 -9 19 -19v-145l83 31v158c0 10 9 19 19 19s18 -9 18 -19v-145l32 12c2 1 5 1 7 1c11 0 20 -9 20 -20v-60c0 -8 -5 -16 -13 -19l-46 -16v-160l32 11c2 1 5 1 7 1c11 0 20 -9 20 -20v-60c0 -8 -5 -15 -13 -18l-46 -17
v-158c0 -10 -8 -19 -18 -19s-19 9 -19 19v145l-83 -31v-158c0 -10 -9 -19 -19 -19s-18 9 -18 19v145l-32 -12c-2 -1 -5 -1 -7 -1c-11 0 -20 9 -20 20v60c0 8 5 16 13 19l46 16v160l-32 -11c-2 -1 -5 -1 -7 -1c-11 0 -20 9 -20 20v60zM179 95l-83 -30v-160l83 30v160z" fill="currentColor"/>
</g>
<g transform="translate(17.5342, 10.1906)">
<path transform="scale(0.0040, -0.0040)" d="M0 119c0 8 5 15 13 18l46 17v158c0 10 8 19 18 19s19 -9 19 -19v-145l83 31v158c0 10 9 19 19 19s18 -9 18 -19v-145l32 12c2 1 5 1 7 1c11 0 20 -9 20 -20v-60c0 -8 -5 -16 -13 -19l-46 -16v-160l32 11c2 1 5 1 7 1c11 0 20 -9 20 -20v-60c0 -8 -5 -15 -13 -18l-46 -17
v-158c0 -10 -8 -19 -18 -19s-19 9 -19 19v145l-83 -31v-158c0 -10 -9 -19 -19 -19s-18 9 -18 19v145l-32 -12c-2 -1 -5 -1 -7 -1c-11 0 -20 9 -20 20v60c0 8 5 16 13 19l46 16v160l-32 -11c-2 -1 -5 -1 -7 -1c-11 0 -20 9 -20 20v60zM179 95l-83 -30v-160l83 30v160z" fill="currentColor"/>
</g>
<g transform="translate(18.6342, 11.6906)">
<path transform="scale(0.0040, -0.0040)" d="M0 119c0 8 5 15 13 18l46 17v158c0 10 8 19 18 19s19 -9 19 -19v-145l83 31v158c0 10 9 19 19 19s18 -9 18 -19v-145l32 12c2 1 5 1 7 1c11 0 20 -9 20 -20v-60c0 -8 -5 -16 -13 -19l-46 -16v-160l32 11c2 1 5 1 7 1c11 0 20 -9 20 -20v-60c0 -8 -5 -15 -13 -18l-46 -17
v-158c0 -10 -8 -19 -18 -19s-19 9 -19 19v145l-83 -31v-158c0 -10 -9 -19 -19 -19s-18 9 -18 19v145l-32 -12c-2 -1 -5 -1 -7 -1c-11 0 -20 9 -20 20v60c0 8 5 16 13 19l46 16v160l-32 -11c-2 -1 -5 -1 -7 -1c-11 0 -20 9 -20 20v60zM179 95l-83 -30v-160l83 30v160z" fill="currentColor"/>
</g>
</a>
<g transform="scale(0.5000, 0.5000)">
<g transform="translate(18.6717, 25.3811)">
<path transform="scale(0.0040, -0.0040)" d="M266 -635h-6c-108 0 -195 88 -195 197c0 58 53 103 112 103c54 0 95 -47 95 -103c0 -52 -43 -95 -95 -95c-11 0 -21 2 -31 6c26 -39 68 -65 117 -65h4zM401 151c24 -116 46 -231 60 -354c77 27 112 92 112 160c0 90 -62 183 -172 194zM74 28c0 -135 129 -247 264 -247
c28 0 55 2 82 6c-14 127 -37 245 -63 364c-79 -8 -124 -61 -124 -119c0 -44 25 -91 81 -123c5 -5 7 -10 7 -15c0 -11 -10 -22 -22 -22c-3 0 -6 1 -9 2c-80 43 -117 115 -117 185c0 88 58 174 160 197c-14 58 -29 117 -46 175c-107 -121 -213 -243 -213 -403zM250 553
c-29 96 -52 193 -52 310c0 142 40 249 149 328c3 2 7 3 10 3c4 0 7 0 10 -3c71 -84 133 -245 133 -358c0 -143 -86 -255 -180 -364c21 -68 39 -138 56 -207c5 0 10 1 14 1c155 0 255 -129 255 -261c0 -76 -33 -155 -107 -210c-22 -17 -47 -28 -73 -36c3 -35 5 -70 5 -105
c0 -19 -1 -39 -2 -58c-7 -119 -88 -225 -202 -228l1 43c93 2 153 92 159 191c1 18 2 37 2 55c0 31 -1 61 -4 92c-29 -5 -58 -8 -89 -8c-188 0 -333 172 -333 374c0 177 131 306 248 441zM247 780c0 -71 17 -129 35 -188c80 97 147 200 147 327c0 39 -7 82 -21 126
c-104 -50 -161 -146 -161 -265z" fill="currentColor"/>
</g>
</g>
<g transform="scale(0.4500, 0.4500)">
<g transform="translate(20.7463, 32.6457)">
<path transform="scale(0.0040, -0.0040)" d="M318 0c0 -33 7 -73 45 -73c29 0 57 31 88 31c123 0 229 -89 229 -208c0 -169 -93 -250 -265 -250c-83 0 -152 61 -152 142c0 42 34 77 76 77s76 -35 76 -77c0 -39 -49 -37 -49 -76c0 -23 24 -38 49 -38c116 0 140 90 140 222c0 106 -12 180 -104 180
c-72 0 -119 -71 -119 -149c0 -9 -7 -14 -14 -14s-13 5 -13 14c0 76 -31 147 -84 200v-471c0 -6 -4 -10 -10 -10h-21c-6 0 -10 4 -10 10v980c0 6 4 10 10 10h21c6 0 10 -4 10 -10v-471c53 53 84 124 84 200c0 9 6 14 13 14s14 -5 14 -14c0 -78 47 -149 119 -149
c92 0 104 74 104 180c0 132 -24 222 -140 222c-25 0 -49 -15 -49 -38c0 -39 49 -37 49 -76c0 -42 -34 -77 -76 -77s-76 35 -76 77c0 81 69 142 152 142c172 0 265 -81 265 -250c0 -119 -106 -208 -229 -208c-31 0 -59 31 -88 31c-38 0 -45 -40 -45 -73zM129 -500h-119
c-6 0 -10 4 -10 10v980c0 6 4 10 10 10h119c6 0 10 -4 10 -10v-980c0 -6 -4 -10 -10 -10z" fill="currentColor"/>
</g>
</g>
<a style="color:inherit;" xlink:href="textedit://C:/Users/grego/AppData/Local/Temp/lilypond-intavolatura-all/MeruloXI-Vtone-03-cis-stage1.ly:569:6:7">
<g transform="translate(21.8253, 13.6906)">
<path transform="scale(0.0040, -0.0040)" d="M303 37c7 9 11 18 11 27c0 22 -20 42 -43 42c-4 0 -7 0 -11 -1c-31 -9 -78 -40 -115 -64s-84 -53 -104 -78c-7 -9 -10 -18 -10 -27c0 -22 20 -42 43 -42c4 0 7 0 11 1c31 9 77 40 114 64s84 53 104 78zM262 136c46 0 82 -21 82 -71c0 -19 -4 -39 -10 -57
c-12 -37 -32 -72 -64 -94c-53 -36 -113 -50 -187 -50c-46 0 -83 21 -83 71c0 19 5 39 11 57c12 37 31 72 63 94c53 36 114 50 188 50z" fill="currentColor"/>
</g>
</a>
<a style="color:inherit;" xlink:href="textedit://C:/Users/grego/AppData/Local/Temp/lilypond-intavolatura-all/MeruloXI-Vtone-03-cis-stage1.ly:562:6:7">
<g transform="translate(21.8253, 12.6906)">
<path transform="scale(0.0040, -0.0040)" d="M217 136c56 0 109 -27 109 -89c0 -18 -5 -38 -13 -55c-31 -66 -113 -128 -204 -128c-56 0 -109 27 -109 89c0 18 5 38 13 55c31 66 113 128 204 128z" fill="currentColor"/>
</g>
</a>
<g transform="translate(8.4758, 19.1906)">
<rect x="0.0000" y="-8.5500" width="0.1600" height="17.1000" ry="0.0500" fill="currentColor"/>
</g>
<a style="color:inherit;" xlink:href="textedit://C:/Users/grego/AppData/Local/Temp/lilypond-intavolatura-all/MeruloXI-Vtone-03-cis-stage1.ly:563:6:7">
<g transform="translate(25.8323, 13.1906)">
<path transform="scale(0.0040, -0.0040)" d="M217 136c56 0 109 -27 109 -89c0 -18 -5 -38 -13 -55c-31 -66 -113 -128 -204 -128c-56 0 -109 27 -109 89c0 18 5 38 13 55c31 66 113 128 204 128z" fill="currentColor"/>
</g>
</a>
<g transform="translate(29.8836, 11.6906)">
<rect x="-0.0650" y="-2.1914" width="0.1300" height="3.0052" ry="0.0400" fill="currentColor"/>
</g>
<a style="color:inherit;" xlink:href="textedit://C:/Users/grego/AppData/Local/Temp/lilypond-intavolatura-all/MeruloXI-Vtone-03-cis-stage1.ly:718:6:7">
<g transform="translate(28.6444, 26.1906)">
<path transform="scale(0.0040, -0.0040)" d="M303 37c7 9 11 18 11 27c0 22 -20 42 -43 42c-4 0 -7 0 -11 -1c-31 -9 -78 -40 -115 -64s-84 -53 -104 -78c-7 -9 -10 -18 -10 -27c0 -22 20 -42 43 -42c4 0 7 0 11 1c31 9 77 40 114 64s84 53 104 78zM262 136c46 0 82 -21 82 -71c0 -19 -4 -39 -10 -57
c-12 -37 -32 -72 -64 -94c-53 -36 -113 -50 -187 -50c-46 0 -83 21 -83 71c0 19 5 39 11 57c12 37 31 72 63 94c53 36 114 50 188 50z" fill="currentColor"/>
</g>
</a>
<a style="color:inherit;" xlink:href="textedit://C:/Users/grego/AppData/Local/Temp/lilypond-intavolatura-all/MeruloXI-Vtone-03-cis-stage1.ly:713:6:7">
<g transform="translate(28.6444, 22.6906)">
<path transform="scale(0.0040, -0.0040)" d="M303 37c7 9 11 18 11 27c0 22 -20 42 -43 42c-4 0 -7 0 -11 -1c-31 -9 -78 -40 -115 -64s-84 -53 -104 -78c-7 -9 -10 -18 -10 -27c0 -22 20 -42 43 -42c4 0 7 0 11 1c31 9 77 40 114 64s84 53 104 78zM262 136c46 0 82 -21 82 -71c0 -19 -4 -39 -10 -57
c-12 -37 -32 -72 -64 -94c-53 -36 -113 -50 -187 -50c-46 0 -83 21 -83 71c0 19 5 39 11 57c12 37 31 72 63 94c53 36 114 50 188 50z" fill="currentColor"/>
</g>
</a>
<a style="color:inherit;" xlink:href="textedit://C:/Users/grego/AppData/Local/Temp/lilypond-intavolatura-all/MeruloXI-Vtone-03-cis-stage1.ly:581:6:7">
<g transform="translate(28.6444, 13.6906)">
<path transform="scale(0.0040, -0.0040)" d="M303 37c7 9 11 18 11 27c0 22 -20 42 -43 42c-4 0 -7 0 -11 -1c-31 -9 -78 -40 -115 -64s-84 -53 -104 -78c-7 -9 -10 -18 -10 -27c0 -22 20 -42 43 -42c4 0 7 0 11 1c31 9 77 40 114 64s84 53 104 78zM262 136c46 0 82 -21 82 -71c0 -19 -4 -39 -10 -57
c-12 -37 -32 -72 -64 -94c-53 -36 -113 -50 -187 -50c-46 0 -83 21 -83 71c0 19 5 39 11 57c12 37 31 72 63 94c53 36 114 50 188 50z" fill="currentColor"/>
</g>
</a>
<a style="color:inherit;" xlink:href="textedit://C:/Users/grego/AppData/Local/Temp/lilypond-intavolatura-all/MeruloXI-Vtone-03-cis-stage1.ly:576:6:7">
<g transform="translate(28.6444, 12.6906)">
<path transform="scale(0.0040, -0.0040)" d="M217 136c56 0 109 -27 109 -89c0 -18 -5 -38 -13 -55c-31 -66 -113 -128 -204 -128c-56 0 -109 27 -109 89c0 18 5 38 13 55c31 66 113 128 204 128z" fill="currentColor"/>
</g>
</a>
<g transform="translate(27.1365, 9.7306)">
<path transform="scale(0.0040, -0.0040)" d="M0 0v-375h-16v375h16zM0 0c0 -197 207 -336 207 -533c0 -71 -15 -141 -41 -207c-5 -8 -13 -12 -20 -12c-12 0 -23 9 -23 23v4c26 61 42 126 42 192c0 103 -94 208 -165 283v250z" fill="currentColor"/>
</g>
<g transform="translate(27.0715, 11.6906)">
<rect x="-0.0650" y="-2.0000" width="0.1300" height="3.3138" ry="0.0400" fill="currentColor"/>
</g>
<g transform="translate(23.1377, 25.6906)">
<rect x="-0.0650" y="-5.5000" width="0.1300" height="2.2410" ry="0.0400" fill="currentColor"/>
</g>
<g transform="translate(49.3517, 11.6906)">
<rect x="-0.0650" y="-3.0000" width="0.1300" height="3.8138" ry="0.0400" fill="currentColor"/>
</g>
<a style="color:inherit;" xlink:href="textedit://C:/Users/grego/AppData/Local/Temp/lilypond-intavolatura-all/MeruloXI-Vtone-03-cis-stage1.ly:587:11:12">
<g transform="translate(48.1125, 12.6906)">
<path transform="scale(0.0040, -0.0040)" d="M217 136c56 0 109 -27 109 -89c0 -18 -5 -38 -13 -55c-31 -66 -113 -128 -204 -128c-56 0 -109 27 -109 89c0 18 5 38 13 55c31 66 113 128 204 128z" fill="currentColor"/>
</g>
</a>
<g transform="translate(46.3694, 25.6906)">
<rect x="-0.0650" y="-1.2410" width="0.1300" height="3.2410" ry="0.0400" fill="currentColor"/>
</g>
<g transform="translate(55.5261, 11.6906)">
<rect x="-0.0650" y="-3.0000" width="0.1300" height="3.3138" ry="0.0400" fill="currentColor"/>
</g>
<a style="color:inherit;" xlink:href="textedit://C:/Users/grego/AppData/Local/Temp/lilypond-intavolatura-all/MeruloXI-Vtone-03-cis-stage1.ly:587:23:24">
<g transform="translate(54.2869, 12.1906)">
<path transform="scale(0.0040, -0.0040)" d="M217 136c56 0 109 -27 109 -89c0 -18 -5 -38 -13 -55c-31 -66 -113 -128 -204 -128c-56 0 -109 27 -109 89c0 18 5 38 13 55c31 66 113 128 204 128z" fill="currentColor"/>
</g>
</a>
<g transform="translate(53.4680, 11.6906)">
<rect x="-0.0650" y="-3.0000" width="0.1300" height="3.8138" ry="0.0400" fill="currentColor"/>
</g>
<a style="color:inherit;" xlink:href="textedit://C:/Users/grego/AppData/Local/Temp/lilypond-intavolatura-all/MeruloXI-Vtone-03-cis-stage1.ly:587:19:20">
<g transform="translate(52.2288, 12.6906)">
<path transform="scale(0.0040, -0.0040)" d="M217 136c56 0 109 -27 109 -89c0 -18 -5 -38 -13 -55c-31 -66 -113 -128 -204 -128c-56 0 -109 27 -109 89c0 18 5 38 13 55c31 66 113 128 204 128z" fill="currentColor"/>
</g>
</a>
<g transform="translate(51.4099, 11.6906)">
<rect x="-0.0650" y="-3.0000" width="0.1300" height="3.3138" ry="0.0400" fill="currentColor"/>
</g>
<a style="color:inherit;" xlink:href="textedit://C:/Users/grego/AppData/Local/Temp/lilypond-intavolatura-all/MeruloXI-Vtone-03-cis-stage1.ly:587:27:28">
<g transform="translate(56.3451, 12.6906)">
<path transform="scale(0.0040, -0.0040)" d="M217 136c56 0 109 -27 109 -89c0 -18 -5 -38 -13 -55c-31 -66 -113 -128 -204 -128c-56 0 -109 27 -109 89c0 18 5 38 13 55c31 66 113 128 204 128z" fill="currentColor"/>
</g>
</a>
<a style="color:inherit;" xlink:href="textedit://C:/Users/grego/AppData/Local/Temp/lilypond-intavolatura-all/MeruloXI-Vtone-03-cis-stage1.ly:587:15:16">
<g transform="translate(50.1707, 12.1906)">
<path transform="scale(0.0040, -0.0040)" d="M217 136c56 0 109 -27 109 -89c0 -18 -5 -38 -13 -55c-31 -66 -113 -128 -204 -128c-56 0 -109 27 -109 89c0 18 5 38 13 55c31 66 113 128 204 128z" fill="currentColor"/>
</g>
</a>
<g transform="translate(57.5843, 11.6906)">
<rect x="-0.0650" y="-3.0000" width="0.1300" height="3.8138" ry="0.0400" fill="currentColor"/>
</g>
<a style="color:inherit;" xlink:href="textedit://C:/Users/grego/AppData/Local/Temp/lilypond-intavolatura-all/MeruloXI-Vtone-03-cis-stage1.ly:587:35:36">
<g transform="translate(60.4614, 11.6906)">
<path transform="scale(0.0040, -0.0040)" d="M217 136c56 0 109 -27 109 -89c0 -18 -5 -38 -13 -55c-31 -66 -113 -128 -204 -128c-56 0 -109 27 -109 89c0 18 5 38 13 55c31 66 113 128 204 128z" fill="currentColor"/>
</g>
</a>
<a style="color:inherit;" xlink:href="textedit://C:/Users/grego/AppData/Local/Temp/lilypond-intavolatura-all/MeruloXI-Vtone-03-cis-stage1.ly:735:6:7">
<g transform="translate(46.3044, 24.1906)">
<path transform="scale(0.0040, -0.0040)" d="M303 37c7 9 11 18 11 27c0 22 -20 42 -43 42c-4 0 -7 0 -11 -1c-31 -9 -78 -40 -115 -64s-84 -53 -104 -78c-7 -9 -10 -18 -10 -27c0 -22 20 -42 43 -42c4 0 7 0 11 1c31 9 77 40 114 64s84 53 104 78zM262 136c46 0 82 -21 82 -71c0 -19 -4 -39 -10 -57
c-12 -37 -32 -72 -64 -94c-53 -36 -113 -50 -187 -50c-46 0 -83 21 -83 71c0 19 5 39 11 57c12 37 31 72 63 94c53 36 114 50 188 50z" fill="currentColor"/>
</g>
</a>
<a style="color:inherit;" xlink:href="textedit://C:/Users/grego/AppData/Local/Temp/lilypond-intavolatura-all/MeruloXI-Vtone-03-cis-stage1.ly:730:6:7">
<g transform="translate(46.3044, 23.1906)">
<path transform="scale(0.0040, -0.0040)" d="M303 37c7 9 11 18 11 27c0 22 -20 42 -43 42c-4 0 -7 0 -11 -1c-31 -9 -78 -40 -115 -64s-84 -53 -104 -78c-7 -9 -10 -18 -10 -27c0 -22 20 -42 43 -42c4 0 7 0 11 1c31 9 77 40 114 64s84 53 104 78zM262 136c46 0 82 -21 82 -71c0 -19 -4 -39 -10 -57
c-12 -37 -32 -72 -64 -94c-53 -36 -113 -50 -187 -50c-46 0 -83 21 -83 71c0 19 5 39 11 57c12 37 31 72 63 94c53 36 114 50 188 50z" fill="currentColor"/>
</g>
</a>
<a style="color:inherit;" xlink:href="textedit://C:/Users/grego/AppData/Local/Temp/lilypond-intavolatura-all/MeruloXI-Vtone-03-cis-stage1.ly:725:6:7">
<g transform="translate(46.3044, 22.1906)">
<path transform="scale(0.0040, -0.0040)" d="M303 37c7 9 11 18 11 27c0 22 -20 42 -43 42c-4 0 -7 0 -11 -1c-31 -9 -78 -40 -115 -64s-84 -53 -104 -78c-7 -9 -10 -18 -10 -27c0 -22 20 -42 43 -42c4 0 7 0 11 1c31 9 77 40 114 64s84 53 104 78zM262 136c46 0 82 -21 82 -71c0 -19 -4 -39 -10 -57
c-12 -37 -32 -72 -64 -94c-53 -36 -113 -50 -187 -50c-46 0 -83 21 -83 71c0 19 5 39 11 57c12 37 31 72 63 94c53 36 114 50 188 50z" fill="currentColor"/>
</g>
</a>
<a style="color:inherit;" xlink:href="textedit://C:/Users/grego/AppData/Local/Temp/lilypond-intavolatura-all/MeruloXI-Vtone-03-cis-stage1.ly:587:4:5">
<g transform="translate(46.3044, 11.6906)">
<path transform="scale(0.0040, -0.0040)" d="M217 136c56 0 109 -27 109 -89c0 -18 -5 -38 -13 -55c-31 -66 -113 -128 -204 -128c-56 0 -109 27 -109 89c0 18 5 38 13 55c31 66 113 128 204 128z" fill="currentColor"/>
</g>
</a>
<g transform="translate(47.5436, 11.6906)">
<rect x="-0.0650" y="-3.0000" width="0.1300" height="2.8138" ry="0.0400" fill="currentColor"/>
</g>
<g transform="translate(61.7006, 11.6906)">
<rect x="-0.0650" y="-3.0000" width="0.1300" height="2.8138" ry="0.0400" fill="currentColor"/>
</g>
<g transform="translate(44.2906, 11.6906)">
<rect x="-0.0650" y="-2.4986" width="0.1300" height="2.8124" ry="0.0400" fill="currentColor"/>
</g>
<g transform="translate(46.3694, 25.6906)">
<rect x="-0.0650" y="-2.2410" width="0.1300" height="3.2410" ry="0.0400" fill="currentColor"/>
</g>
<a style="color:inherit;" xlink:href="textedit://C:/Users/grego/AppData/Local/Temp/lilypond-intavolatura-all/MeruloXI-Vtone-03-cis-stage1.ly:587:31:32">
<g transform="translate(58.4032, 12.1906)">
<path transform="scale(0.0040, -0.0040)" d="M217 136c56 0 109 -27 109 -89c0 -18 -5 -38 -13 -55c-31 -66 -113 -128 -204 -128c-56 0 -109 27 -109 89c0 18 5 38 13 55c31 66 113 128 204 128z" fill="currentColor"/>
</g>
</a>
<g transform="translate(47.6168, 25.6906)">
<rect x="-0.0650" y="-6.0000" width="0.1300" height="2.2410" ry="0.0400" fill="currentColor"/>
</g>
<g transform="translate(59.6424, 11.6906)">
<rect x="-0.0650" y="-3.0000" width="0.1300" height="3.3138" ry="0.0400" fill="currentColor"/>
</g>
</svg>
