<svg xmlns="http://www.w3.org/2000/svg" xmlns:xlink="http://www.w3.org/1999/xlink" version="1.2" width="210.00mm" height="297.00mm" viewBox="0.0000 -0.0000 119.5016 169.0094">
<style type="text/css">
<![CDATA[
tspan { white-space: pre; }
]]>
</style>
<g transform="translate(8.5358, 10.6906)">
<line stroke-linejoin="round" stroke-linecap="round" stroke-width="0.1000" stroke="currentColor" x1="0.0500" y1="0" x2="102.3799" y2="0"/>
</g>
<g transform="translate(8.5358, 11.6906)">
<line stroke-linejoin="round" stroke-linecap="round" stroke-width="0.1000" stroke="currentColor" x1="0.0500" y1="0" x2="102.3799" y2="0"/>
</g>
<g transform="translate(8.5358, 12.6906)">
<line stroke-linejoin="round" stroke-linecap="round" stroke-width="0.1000" stroke="currentColor" x1="0.0500" y1="0" x2="102.3799" y2="0"/>
</g>
<g transform="translate(8.5358, 13.6906)">
<line stroke-linejoin="round" stroke-linecap="round" stroke-width="0.1000" stroke="currentColor" x1="0.0500" y1="0" x2="102.3799" y2="0"/>
</g>
<g color="rgba(100.0000%, 100.0000%, 100.0000%, 100.0000%)">
<g transform="translate(8.5358, 11.6906)">
<line stroke-linejoin="round" stroke-linecap="round" stroke-width="0.1200" stroke="currentColor" x1="0.0500" y1="-2.0000" x2="102.3799" y2="-2.0000"/>
</g>
</g>
<g color="rgba(0.0000%, 0.0000%, 0.0000%, 100.0000%)">
<g transform="translate(8.5358, 11.6906)">
<line stroke-linejoin="round" stroke-linecap="round" stroke-width="0.1200" stroke="currentColor" x1="0.0500" y1="3.0000" x2="102.3799" y2="3.0000"/>
</g>
</g>
<g transform="translate(107.5577, 11.6906)">
<rect x="0.0000" y="-1.0000" width="0.1900" height="3.0500" ry="0.0000" fill="currentColor"/>
</g>
<g transform="translate(107.5577, 25.6906)">
<rect x="0.0000" y="-2.0500" width="0.1900" height="4.0500" ry="0.0000" fill="currentColor"/>
</g>
<g transform="translate(107.5577, 7.6906)">
<rect x="0.0000" y="6.0500" width="0.1900" height="9.9500" ry="0.0000" fill="currentColor"/>
</g>
<g transform="translate(60.6804, 7.6906)">
<rect x="0.0000" y="6.0500" width="0.1900" height="9.9500" ry="0.0000" fill="currentColor"/>
</g>
<g transform="translate(60.6804, 11.6906)">
<rect x="0.0000" y="-1.0000" width="0.1900" height="3.0500" ry="0.0000" fill="currentColor"/>
</g>
<g transform="translate(60.6804, 25.6906)">
<rect x="0.0000" y="-2.0500" width="0.1900" height="4.0500" ry="0.0000" fill="currentColor"/>
</g>
<g transform="translate(8.5358, 14.6906)">
<rect x="74.8615" y="-0.1000" width="2.0661" height="0.2000" ry="0.1000" fill="currentColor"/>
</g>
<g transform="translate(8.5358, 14.6906)">
<rect x="71.0569" y="-0.1000" width="2.0661" height="0.2000" ry="0.1000" fill="currentColor"/>
</g>
<g transform="translate(8.5358, 14.6906)">
<rect x="52.6562" y="-0.1000" width="2.0661" height="0.2000" ry="0.1000" fill="currentColor"/>
</g>
<g transform="translate(8.5358, 14.6906)">
<rect x="42.7947" y="-0.1000" width="2.0661" height="0.2000" ry="0.1000" fill="currentColor"/>
</g>
<g transform="translate(8.5358, 14.6906)">
<rect x="38.2129" y="-0.1000" width="1.9563" height="0.2000" ry="0.1000" fill="currentColor"/>
</g>
<g transform="translate(8.5358, 14.6906)">
<rect x="33.6127" y="-0.1000" width="1.9563" height="0.2000" ry="0.1000" fill="currentColor"/>
</g>
<g transform="translate(8.5358, 23.6906)">
<line stroke-linejoin="round" stroke-linecap="round" stroke-width="0.1000" stroke="currentColor" x1="0.0500" y1="0" x2="102.3799" y2="0"/>
</g>
<g transform="translate(8.5358, 24.6906)">
<line stroke-linejoin="round" stroke-linecap="round" stroke-width="0.1000" stroke="currentColor" x1="0.0500" y1="0" x2="102.3799" y2="0"/>
</g>
<g transform="translate(8.5358, 25.6906)">
<line stroke-linejoin="round" stroke-linecap="round" stroke-width="0.1000" stroke="currentColor" x1="0.0500" y1="0" x2="102.3799" y2="0"/>
</g>
<g transform="translate(8.5358, 26.6906)">
<line stroke-linejoin="round" stroke-linecap="round" stroke-width="0.1000" stroke="currentColor" x1="0.0500" y1="0" x2="102.3799" y2="0"/>
</g>
<g transform="translate(8.5358, 27.6906)">
<line stroke-linejoin="round" stroke-linecap="round" stroke-width="0.1000" stroke="currentColor" x1="0.0500" y1="0" x2="102.3799" y2="0"/>
</g>
<g color="rgba(0.0000%, 0.0000%, 0.0000%, 100.0000%)">
<g transform="translate(8.5358, 25.6906)">
<line stroke-linejoin="round" stroke-linecap="round" stroke-width="0.1200" stroke="currentColor" x1="0.0500" y1="-5.0000" x2="102.3799" y2="-5.0000"/>
</g>
</g>
<g color="rgba(0.0000%, 0.0000%, 0.0000%, 100.0000%)">
<g transform="translate(8.5358, 25.6906)">
<line stroke-linejoin="round" stroke-linecap="round" stroke-width="0.1200" stroke="currentColor" x1="0.0500" y1="-4.0000" x2="102.3799" y2="-4.0000"/>
</g>
</g>
<g color="rgba(0.0000%, 0.0000%, 0.0000%, 100.0000%)">
<g transform="translate(8.5358, 25.6906)">
<line stroke-linejoin="round" stroke-linecap="round" stroke-width="0.1200" stroke="currentColor" x1="0.0500" y1="-3.0000" x2="102.3799" y2="-3.0000"/>
</g>
</g>
<a style="color:inherit;" xlink:href="textedit://C:/Users/grego/AppData/Local/Temp/lilypond-intavolatura-MeruloI-Itone-02/a-stage5.ly:593:6:7">
<g transform="translate(79.9371, 14.6906)">
<path transform="scale(0.0040, -0.0040)" d="M303 37c7 9 11 18 11 27c0 22 -20 42 -43 42c-4 0 -7 0 -11 -1c-31 -9 -78 -40 -115 -64s-84 -53 -104 -78c-7 -9 -10 -18 -10 -27c0 -22 20 -42 43 -42c4 0 7 0 11 1c31 9 77 40 114 64s84 53 104 78zM262 136c46 0 82 -21 82 -71c0 -19 -4 -39 -10 -57
c-12 -37 -32 -72 -64 -94c-53 -36 -113 -50 -187 -50c-46 0 -83 21 -83 71c0 19 5 39 11 57c12 37 31 72 63 94c53 36 114 50 188 50z" fill="currentColor"/>
</g>
</a>
<g transform="translate(80.0021, 11.6906)">
<rect x="-0.0650" y="3.2590" width="0.1300" height="2.2410" ry="0.0400" fill="currentColor"/>
</g>
<g transform="translate(81.2495, 11.6906)">
<rect x="-0.0650" y="-2.5000" width="0.1300" height="3.2410" ry="0.0400" fill="currentColor"/>
</g>
<a style="color:inherit;" xlink:href="textedit://C:/Users/grego/AppData/Local/Temp/lilypond-intavolatura-MeruloI-Itone-02/a-stage5.ly:683:6:7">
<g transform="translate(79.9371, 27.6906)">
<path transform="scale(0.0040, -0.0040)" d="M303 37c7 9 11 18 11 27c0 22 -20 42 -43 42c-4 0 -7 0 -11 -1c-31 -9 -78 -40 -115 -64s-84 -53 -104 -78c-7 -9 -10 -18 -10 -27c0 -22 20 -42 43 -42c4 0 7 0 11 1c31 9 77 40 114 64s84 53 104 78zM262 136c46 0 82 -21 82 -71c0 -19 -4 -39 -10 -57
c-12 -37 -32 -72 -64 -94c-53 -36 -113 -50 -187 -50c-46 0 -83 21 -83 71c0 19 5 39 11 57c12 37 31 72 63 94c53 36 114 50 188 50z" fill="currentColor"/>
</g>
</a>
<a style="color:inherit;" xlink:href="textedit://C:/Users/grego/AppData/Local/Temp/lilypond-intavolatura-MeruloI-Itone-02/a-stage5.ly:676:6:7">
<g transform="translate(79.9371, 25.1906)">
<path transform="scale(0.0040, -0.0040)" d="M303 37c7 9 11 18 11 27c0 22 -20 42 -43 42c-4 0 -7 0 -11 -1c-31 -9 -78 -40 -115 -64s-84 -53 -104 -78c-7 -9 -10 -18 -10 -27c0 -22 20 -42 43 -42c4 0 7 0 11 1c31 9 77 40 114 64s84 53 104 78zM262 136c46 0 82 -21 82 -71c0 -19 -4 -39 -10 -57
c-12 -37 -32 -72 -64 -94c-53 -36 -113 -50 -187 -50c-46 0 -83 21 -83 71c0 19 5 39 11 57c12 37 31 72 63 94c53 36 114 50 188 50z" fill="currentColor"/>
</g>
</a>
<g transform="translate(81.2495, 25.6906)">
<rect x="-0.0650" y="-3.6667" width="0.1300" height="2.9077" ry="0.0400" fill="currentColor"/>
</g>
<a style="color:inherit;" xlink:href="textedit://C:/Users/grego/AppData/Local/Temp/lilypond-intavolatura-MeruloI-Itone-02/a-stage5.ly:580:6:7">
<g transform="translate(79.9371, 12.6906)">
<path transform="scale(0.0040, -0.0040)" d="M303 37c7 9 11 18 11 27c0 22 -20 42 -43 42c-4 0 -7 0 -11 -1c-31 -9 -78 -40 -115 -64s-84 -53 -104 -78c-7 -9 -10 -18 -10 -27c0 -22 20 -42 43 -42c4 0 7 0 11 1c31 9 77 40 114 64s84 53 104 78zM262 136c46 0 82 -21 82 -71c0 -19 -4 -39 -10 -57
c-12 -37 -32 -72 -64 -94c-53 -36 -113 -50 -187 -50c-46 0 -83 21 -83 71c0 19 5 39 11 57c12 37 31 72 63 94c53 36 114 50 188 50z" fill="currentColor"/>
</g>
</a>
<g transform="translate(78.8762, 25.6906)">
<rect x="-0.0650" y="-2.9992" width="0.1300" height="2.8130" ry="0.0400" fill="currentColor"/>
</g>
<a style="color:inherit;" xlink:href="textedit://C:/Users/grego/AppData/Local/Temp/lilypond-intavolatura-MeruloI-Itone-02/a-stage5.ly:675:23:24">
<g transform="translate(77.6370, 25.6906)">
<path transform="scale(0.0040, -0.0040)" d="M217 136c56 0 109 -27 109 -89c0 -18 -5 -38 -13 -55c-31 -66 -113 -128 -204 -128c-56 0 -109 27 -109 89c0 18 5 38 13 55c31 66 113 128 204 128z" fill="currentColor"/>
</g>
</a>
<g transform="translate(76.5761, 25.6906)">
<rect x="-0.0650" y="-2.9723" width="0.1300" height="3.2861" ry="0.0400" fill="currentColor"/>
</g>
<a style="color:inherit;" xlink:href="textedit://C:/Users/grego/AppData/Local/Temp/lilypond-intavolatura-MeruloI-Itone-02/a-stage5.ly:675:21:22">
<g transform="translate(75.3369, 26.1906)">
<path transform="scale(0.0040, -0.0040)" d="M217 136c56 0 109 -27 109 -89c0 -18 -5 -38 -13 -55c-31 -66 -113 -128 -204 -128c-56 0 -109 27 -109 89c0 18 5 38 13 55c31 66 113 128 204 128z" fill="currentColor"/>
</g>
</a>
<g transform="translate(84.9809, 11.6906)">
<rect x="-0.0650" y="-2.5000" width="0.1300" height="3.3138" ry="0.0400" fill="currentColor"/>
</g>
<g transform="translate(85.0541, 25.6906)">
<rect x="-0.0650" y="-3.0000" width="0.1300" height="3.2410" ry="0.0400" fill="currentColor"/>
</g>
<g transform="translate(83.8067, 25.6906)">
<rect x="-0.0650" y="1.7590" width="0.1300" height="2.5743" ry="0.0400" fill="currentColor"/>
</g>
<g transform="translate(83.8067, 11.6906)">
<rect x="-0.0650" y="3.2590" width="0.1300" height="2.2410" ry="0.0400" fill="currentColor"/>
</g>
<a style="color:inherit;" xlink:href="textedit://C:/Users/grego/AppData/Local/Temp/lilypond-intavolatura-MeruloI-Itone-02/a-stage5.ly:684:6:7">
<g transform="translate(83.7417, 27.1906)">
<path transform="scale(0.0040, -0.0040)" d="M303 37c7 9 11 18 11 27c0 22 -20 42 -43 42c-4 0 -7 0 -11 -1c-31 -9 -78 -40 -115 -64s-84 -53 -104 -78c-7 -9 -10 -18 -10 -27c0 -22 20 -42 43 -42c4 0 7 0 11 1c31 9 77 40 114 64s84 53 104 78zM262 136c46 0 82 -21 82 -71c0 -19 -4 -39 -10 -57
c-12 -37 -32 -72 -64 -94c-53 -36 -113 -50 -187 -50c-46 0 -83 21 -83 71c0 19 5 39 11 57c12 37 31 72 63 94c53 36 114 50 188 50z" fill="currentColor"/>
</g>
</a>
<a style="color:inherit;" xlink:href="textedit://C:/Users/grego/AppData/Local/Temp/lilypond-intavolatura-MeruloI-Itone-02/a-stage5.ly:676:9:10">
<g transform="translate(83.7417, 26.1906)">
<path transform="scale(0.0040, -0.0040)" d="M303 37c7 9 11 18 11 27c0 22 -20 42 -43 42c-4 0 -7 0 -11 -1c-31 -9 -78 -40 -115 -64s-84 -53 -104 -78c-7 -9 -10 -18 -10 -27c0 -22 20 -42 43 -42c4 0 7 0 11 1c31 9 77 40 114 64s84 53 104 78zM262 136c46 0 82 -21 82 -71c0 -19 -4 -39 -10 -57
c-12 -37 -32 -72 -64 -94c-53 -36 -113 -50 -187 -50c-46 0 -83 21 -83 71c0 19 5 39 11 57c12 37 31 72 63 94c53 36 114 50 188 50z" fill="currentColor"/>
</g>
</a>
<a style="color:inherit;" xlink:href="textedit://C:/Users/grego/AppData/Local/Temp/lilypond-intavolatura-MeruloI-Itone-02/a-stage5.ly:595:6:7">
<g transform="translate(83.7417, 14.6906)">
<path transform="scale(0.0040, -0.0040)" d="M303 37c7 9 11 18 11 27c0 22 -20 42 -43 42c-4 0 -7 0 -11 -1c-31 -9 -78 -40 -115 -64s-84 -53 -104 -78c-7 -9 -10 -18 -10 -27c0 -22 20 -42 43 -42c4 0 7 0 11 1c31 9 77 40 114 64s84 53 104 78zM262 136c46 0 82 -21 82 -71c0 -19 -4 -39 -10 -57
c-12 -37 -32 -72 -64 -94c-53 -36 -113 -50 -187 -50c-46 0 -83 21 -83 71c0 19 5 39 11 57c12 37 31 72 63 94c53 36 114 50 188 50z" fill="currentColor"/>
</g>
</a>
<a style="color:inherit;" xlink:href="textedit://C:/Users/grego/AppData/Local/Temp/lilypond-intavolatura-MeruloI-Itone-02/a-stage5.ly:581:6:7">
<g transform="translate(83.7417, 12.6906)">
<path transform="scale(0.0040, -0.0040)" d="M217 136c56 0 109 -27 109 -89c0 -18 -5 -38 -13 -55c-31 -66 -113 -128 -204 -128c-56 0 -109 27 -109 89c0 18 5 38 13 55c31 66 113 128 204 128z" fill="currentColor"/>
</g>
</a>
<g transform="translate(80.0021, 25.6906)">
<rect x="-0.0650" y="2.2590" width="0.1300" height="2.4077" ry="0.0400" fill="currentColor"/>
</g>
<a style="color:inherit;" xlink:href="textedit://C:/Users/grego/AppData/Local/Temp/lilypond-intavolatura-MeruloI-Itone-02/a-stage5.ly:675:11:12">
<g transform="translate(63.8365, 26.6906)">
<path transform="scale(0.0040, -0.0040)" d="M217 136c56 0 109 -27 109 -89c0 -18 -5 -38 -13 -55c-31 -66 -113 -128 -204 -128c-56 0 -109 27 -109 89c0 18 5 38 13 55c31 66 113 128 204 128z" fill="currentColor"/>
</g>
</a>
<g transform="translate(65.0757, 25.6906)">
<rect x="-0.0650" y="-2.8377" width="0.1300" height="3.6515" ry="0.0400" fill="currentColor"/>
</g>
<g transform="translate(61.6014, 25.6906)">
<rect x="-0.0650" y="2.7590" width="0.1300" height="2.2410" ry="0.0400" fill="currentColor"/>
</g>
<g transform="translate(62.7756, 25.6906)">
<rect x="-0.0650" y="-2.8108" width="0.1300" height="3.1246" ry="0.0400" fill="currentColor"/>
</g>
<a style="color:inherit;" xlink:href="textedit://C:/Users/grego/AppData/Local/Temp/lilypond-intavolatura-MeruloI-Itone-02/a-stage5.ly:677:9:10">
<g transform="translate(91.5078, 21.1906)">
<polygon stroke-linejoin="round" stroke-linecap="round" stroke-width="0.0800" fill="currentColor" stroke="currentColor" points="15.4860 -0.5100 15.4860 -0.1100 0.0400 0.2000 0.0400 -0.2000"/>
</g>
<g transform="translate(94.5971, 21.9389)">
<polygon stroke-linejoin="round" stroke-linecap="round" stroke-width="0.0800" fill="currentColor" stroke="currentColor" points="12.3967 -0.4483 12.3967 -0.0483 0.0400 0.2000 0.0400 -0.2000"/>
</g>
<g transform="translate(101.4974, 22.6111)">
<polygon stroke-linejoin="round" stroke-linecap="round" stroke-width="0.0800" fill="currentColor" stroke="currentColor" points="5.4964 -0.3105 5.4964 0.0895 0.0400 0.2000 0.0400 -0.2000"/>
</g>
</a>
<g transform="translate(74.2760, 25.6906)">
<rect x="-0.0650" y="-2.9454" width="0.1300" height="3.7592" ry="0.0400" fill="currentColor"/>
</g>
<a style="color:inherit;" xlink:href="textedit://C:/Users/grego/AppData/Local/Temp/lilypond-intavolatura-MeruloI-Itone-02/a-stage5.ly:675:19:20">
<g transform="translate(73.0368, 26.6906)">
<path transform="scale(0.0040, -0.0040)" d="M217 136c56 0 109 -27 109 -89c0 -18 -5 -38 -13 -55c-31 -66 -113 -128 -204 -128c-56 0 -109 27 -109 89c0 18 5 38 13 55c31 66 113 128 204 128z" fill="currentColor"/>
</g>
</a>
<g transform="translate(71.9759, 25.6906)">
<rect x="-0.0650" y="-2.9185" width="0.1300" height="3.2323" ry="0.0400" fill="currentColor"/>
</g>
<a style="color:inherit;" xlink:href="textedit://C:/Users/grego/AppData/Local/Temp/lilypond-intavolatura-MeruloI-Itone-02/a-stage5.ly:675:17:18">
<g transform="translate(70.7367, 26.1906)">
<path transform="scale(0.0040, -0.0040)" d="M217 136c56 0 109 -27 109 -89c0 -18 -5 -38 -13 -55c-31 -66 -113 -128 -204 -128c-56 0 -109 27 -109 89c0 18 5 38 13 55c31 66 113 128 204 128z" fill="currentColor"/>
</g>
</a>
<g transform="translate(69.6758, 25.6906)">
<rect x="-0.0650" y="-2.8915" width="0.1300" height="3.7053" ry="0.0400" fill="currentColor"/>
</g>
<a style="color:inherit;" xlink:href="textedit://C:/Users/grego/AppData/Local/Temp/lilypond-intavolatura-MeruloI-Itone-02/a-stage5.ly:675:15:16">
<g transform="translate(68.4366, 26.6906)">
<path transform="scale(0.0040, -0.0040)" d="M217 136c56 0 109 -27 109 -89c0 -18 -5 -38 -13 -55c-31 -66 -113 -128 -204 -128c-56 0 -109 27 -109 89c0 18 5 38 13 55c31 66 113 128 204 128z" fill="currentColor"/>
</g>
</a>
<g transform="translate(67.3758, 25.6906)">
<rect x="-0.0650" y="-2.8646" width="0.1300" height="3.1784" ry="0.0400" fill="currentColor"/>
</g>
<a style="color:inherit;" xlink:href="textedit://C:/Users/grego/AppData/Local/Temp/lilypond-intavolatura-MeruloI-Itone-02/a-stage5.ly:675:13:14">
<g transform="translate(66.1366, 26.1906)">
<path transform="scale(0.0040, -0.0040)" d="M217 136c56 0 109 -27 109 -89c0 -18 -5 -38 -13 -55c-31 -66 -113 -128 -204 -128c-56 0 -109 27 -109 89c0 18 5 38 13 55c31 66 113 128 204 128z" fill="currentColor"/>
</g>
</a>
<g transform="translate(106.9688, 25.6906)">
<rect x="-0.0650" y="-4.8087" width="0.1300" height="3.1225" ry="0.0400" fill="currentColor"/>
</g>
<g transform="translate(109.5577, 23.6906)">
<path transform="scale(0.0040, -0.0040)" d="M4 -91c-4 0 -5 4 -5 7c0 14 22 43 26 49l65 90c5 6 27 36 37 36c1 0 2 -1 3 -2l58 -79l33 45c5 6 27 36 37 36c1 0 2 -1 3 -2l57 -79l404 577c6 8 28 38 39 38c4 0 5 -3 5 -6c0 -13 -20 -40 -24 -46l-437 -625c-5 -7 -28 -39 -39 -39c-1 0 -2 1 -3 2l-58 79l-33 -45
c-5 -6 -27 -36 -37 -36c-1 0 -2 1 -3 2l-58 79l-33 -45c-6 -8 -27 -36 -37 -36z" fill="currentColor"/>
</g>
<g transform="translate(109.5577, 26.1906)">
<path transform="scale(0.0040, -0.0040)" d="M4 -91c-4 0 -5 4 -5 7c0 14 22 43 26 49l65 90c5 6 27 36 37 36c1 0 2 -1 3 -2l58 -79l33 45c5 6 27 36 37 36c1 0 2 -1 3 -2l57 -79l316 452c6 8 28 38 39 38c4 0 5 -3 5 -6c0 -13 -19 -40 -23 -46l-350 -500c-5 -7 -28 -39 -39 -39c-1 0 -2 1 -3 2l-58 79l-33 -45
c-5 -6 -27 -36 -37 -36c-1 0 -2 1 -3 2l-58 79l-33 -45c-6 -8 -27 -36 -37 -36z" fill="currentColor"/>
</g>
<g transform="translate(109.5577, 13.1906)">
<path transform="scale(0.0040, -0.0040)" d="M4 -91c-4 0 -5 4 -5 7c0 14 22 43 26 49l65 90c5 6 27 36 37 36c1 0 2 -1 3 -2l58 -79l33 45c5 6 27 36 37 36c1 0 2 -1 3 -2l57 -79l316 452c6 8 28 38 39 38c4 0 5 -3 5 -6c0 -13 -19 -40 -23 -46l-350 -500c-5 -7 -28 -39 -39 -39c-1 0 -2 1 -3 2l-58 79l-33 -45
c-5 -6 -27 -36 -37 -36c-1 0 -2 1 -3 2l-58 79l-33 -45c-6 -8 -27 -36 -37 -36z" fill="currentColor"/>
</g>
<g transform="translate(108.9037, 22.6906)">
<rect x="-0.0000" y="-0.1000" width="1.9620" height="0.2000" ry="0.1000" fill="currentColor"/>
</g>
<g transform="translate(109.5577, 22.6906)">
<path transform="scale(0.0040, -0.0040)" d="M4 -91c-4 0 -5 4 -5 7c0 14 22 43 26 49l65 90c5 6 27 36 37 36c1 0 2 -1 3 -2l58 -79l33 45c5 6 27 36 37 36c1 0 2 -1 3 -2l57 -79l404 577c6 8 28 38 39 38c4 0 5 -3 5 -6c0 -13 -20 -40 -24 -46l-437 -625c-5 -7 -28 -39 -39 -39c-1 0 -2 1 -3 2l-58 79l-33 -45
c-5 -6 -27 -36 -37 -36c-1 0 -2 1 -3 2l-58 79l-33 -45c-6 -8 -27 -36 -37 -36z" fill="currentColor"/>
</g>
<a style="color:inherit;" xlink:href="textedit://C:/Users/grego/AppData/Local/Temp/lilypond-intavolatura-MeruloI-Itone-02/a-stage5.ly:677:27:28">
<g transform="translate(105.7296, 24.1906)">
<path transform="scale(0.0040, -0.0040)" d="M217 136c56 0 109 -27 109 -89c0 -18 -5 -38 -13 -55c-31 -66 -113 -128 -204 -128c-56 0 -109 27 -109 89c0 18 5 38 13 55c31 66 113 128 204 128z" fill="currentColor"/>
</g>
</a>
<g transform="translate(105.1667, 25.6906)">
<rect x="-0.0650" y="-4.7727" width="0.1300" height="3.5865" ry="0.0400" fill="currentColor"/>
</g>
<a style="color:inherit;" xlink:href="textedit://C:/Users/grego/AppData/Local/Temp/lilypond-intavolatura-MeruloI-Itone-02/a-stage5.ly:677:25:26">
<g transform="translate(103.9275, 24.6906)">
<path transform="scale(0.0040, -0.0040)" d="M217 136c56 0 109 -27 109 -89c0 -18 -5 -38 -13 -55c-31 -66 -113 -128 -204 -128c-56 0 -109 27 -109 89c0 18 5 38 13 55c31 66 113 128 204 128z" fill="currentColor"/>
</g>
</a>
<g transform="translate(103.3645, 25.6906)">
<rect x="-0.0650" y="-4.7367" width="0.1300" height="4.0505" ry="0.0400" fill="currentColor"/>
</g>
<a style="color:inherit;" xlink:href="textedit://C:/Users/grego/AppData/Local/Temp/lilypond-intavolatura-MeruloI-Itone-02/a-stage5.ly:677:23:24">
<g transform="translate(102.1253, 25.1906)">
<path transform="scale(0.0040, -0.0040)" d="M217 136c56 0 109 -27 109 -89c0 -18 -5 -38 -13 -55c-31 -66 -113 -128 -204 -128c-56 0 -109 27 -109 89c0 18 5 38 13 55c31 66 113 128 204 128z" fill="currentColor"/>
</g>
</a>
<a style="color:inherit;" xlink:href="textedit://C:/Users/grego/AppData/Local/Temp/lilypond-intavolatura-MeruloI-Itone-02/a-stage5.ly:571:10:11">
<g transform="translate(42.4746, 16.6906)">
<polygon stroke-linejoin="round" stroke-linecap="round" stroke-width="0.0800" fill="currentColor" stroke="currentColor" points="6.9903 -0.2000 6.9903 0.2000 0.0400 0.2000 0.0400 -0.2000"/>
</g>
<g transform="translate(42.4746, 17.5006)">
<polygon stroke-linejoin="round" stroke-linecap="round" stroke-width="0.0800" fill="currentColor" stroke="currentColor" points="6.9903 -0.2000 6.9903 0.2000 0.0400 0.2000 0.0400 -0.2000"/>
</g>
</a>
<a style="color:inherit;" xlink:href="textedit://C:/Users/grego/AppData/Local/Temp/lilypond-intavolatura-MeruloI-Itone-02/a-stage5.ly:580:9:10">
<g transform="translate(79.9371, 11.6906)">
<path stroke-width="0.0800" stroke-linejoin="round" stroke-linecap="round" stroke="currentColor" fill="currentColor" d="M1.7124 0.7429C2.1801 0.1862 3.1370 0.1862 3.6046 0.7429L3.6046 0.7429C3.1370 0.3062 2.1801 0.3062 1.7124 0.7429z"/>
</g>
</a>
<g transform="translate(56.1451, 22.6906)">
<polygon stroke-linejoin="round" stroke-linecap="round" stroke-width="0.0800" fill="currentColor" stroke="currentColor" points="2.8880 -0.0100 2.8880 0.3900 0.0400 0.2000 0.0400 -0.2000"/>
</g>
<a style="color:inherit;" xlink:href="textedit://C:/Users/grego/AppData/Local/Temp/lilypond-intavolatura-MeruloI-Itone-02/a-stage5.ly:592:9:10">
<g transform="translate(61.5364, 11.6906)">
<path stroke-width="0.0800" stroke-linejoin="round" stroke-linecap="round" stroke="currentColor" fill="currentColor" d="M0.8887 3.7500C2.3583 4.7394 16.5961 4.7394 18.0657 3.7500L18.0657 3.7500C16.5961 4.6194 2.3583 4.6194 0.8887 3.7500z"/>
</g>
</a>
<g transform="translate(56.1451, 8.8806)">
<polygon stroke-linejoin="round" stroke-linecap="round" stroke-width="0.0800" fill="currentColor" stroke="currentColor" points="2.8880 0.1100 2.8880 0.5100 0.0400 0.2000 0.0400 -0.2000"/>
</g>
<a style="color:inherit;" xlink:href="textedit://C:/Users/grego/AppData/Local/Temp/lilypond-intavolatura-MeruloI-Itone-02/a-stage5.ly:675:9:10">
<g transform="translate(62.7106, 22.8806)">
<polygon stroke-linejoin="round" stroke-linecap="round" stroke-width="0.0800" fill="currentColor" stroke="currentColor" points="16.1906 -0.3900 16.1906 0.0100 0.0400 0.2000 0.0400 -0.2000"/>
</g>
<g transform="translate(62.7106, 23.6906)">
<polygon stroke-linejoin="round" stroke-linecap="round" stroke-width="0.0800" fill="currentColor" stroke="currentColor" points="16.1906 -0.3900 16.1906 0.0100 0.0400 0.2000 0.0400 -0.2000"/>
</g>
</a>
<a style="color:inherit;" xlink:href="textedit://C:/Users/grego/AppData/Local/Temp/lilypond-intavolatura-MeruloI-Itone-02/a-stage5.ly:667:9:10">
<g transform="translate(51.6749, 25.6906)">
<path stroke-width="0.0800" stroke-linejoin="round" stroke-linecap="round" stroke="currentColor" fill="currentColor" d="M1.5774 3.0000C2.7010 3.9097 8.4029 3.9097 9.5265 3.0000L9.5265 3.0000C8.4029 3.7897 2.7010 3.7897 1.5774 3.0000z"/>
</g>
</a>
<a style="color:inherit;" xlink:href="textedit://C:/Users/grego/AppData/Local/Temp/lilypond-intavolatura-MeruloI-Itone-02/a-stage5.ly:572:9:10">
<g transform="translate(51.6749, 11.6906)">
<path stroke-width="0.0800" stroke-linejoin="round" stroke-linecap="round" stroke="currentColor" fill="currentColor" d="M0.8887 3.7500C2.0530 4.6713 8.3622 4.6713 9.5265 3.7500L9.5265 3.7500C8.3622 4.5513 2.0530 4.5513 0.8887 3.7500z"/>
</g>
</a>
<g transform="translate(33.5825, 28.8806)">
<polygon stroke-linejoin="round" stroke-linecap="round" stroke-width="0.0800" fill="currentColor" stroke="currentColor" points="2.8880 0.1100 2.8880 0.5100 0.0400 0.2000 0.0400 -0.2000"/>
</g>
<a style="color:inherit;" xlink:href="textedit://C:/Users/grego/AppData/Local/Temp/lilypond-intavolatura-MeruloI-Itone-02/a-stage5.ly:653:8:9">
<g transform="translate(39.1786, 25.6906)">
<path stroke-width="0.0800" stroke-linejoin="round" stroke-linecap="round" stroke="currentColor" fill="currentColor" d="M1.7124 -1.7500C3.0012 -2.7027 11.6596 -2.7027 12.9484 -1.7500L12.9484 -1.7500C11.6596 -2.5827 3.0012 -2.5827 1.7124 -1.7500z"/>
</g>
</a>
<a style="color:inherit;" xlink:href="textedit://C:/Users/grego/AppData/Local/Temp/lilypond-intavolatura-MeruloI-Itone-02/a-stage5.ly:561:10:11">
<g transform="translate(39.1786, 11.6906)">
<path stroke-width="0.0800" stroke-linejoin="round" stroke-linecap="round" stroke="currentColor" fill="currentColor" d="M1.7124 -1.0000C2.9736 -1.9462 11.0351 -1.9462 12.2963 -1.0000L12.2963 -1.0000C11.0351 -1.8262 2.9736 -1.8262 1.7124 -1.0000z"/>
</g>
</a>
<a style="color:inherit;" xlink:href="textedit://C:/Users/grego/AppData/Local/Temp/lilypond-intavolatura-MeruloI-Itone-02/a-stage5.ly:663:9:10">
<g transform="translate(26.3740, 27.8806)">
<polygon stroke-linejoin="round" stroke-linecap="round" stroke-width="0.0800" fill="currentColor" stroke="currentColor" points="5.4964 -0.2000 5.4964 0.2000 0.0400 0.2000 0.0400 -0.2000"/>
</g>
<g transform="translate(26.3740, 28.6906)">
<polygon stroke-linejoin="round" stroke-linecap="round" stroke-width="0.0800" fill="currentColor" stroke="currentColor" points="5.4964 -0.2000 5.4964 0.2000 0.0400 0.2000 0.0400 -0.2000"/>
</g>
<g transform="translate(26.3740, 29.5006)">
<polygon stroke-linejoin="round" stroke-linecap="round" stroke-width="0.0800" fill="currentColor" stroke="currentColor" points="5.4964 -0.2000 5.4964 0.2000 0.0400 0.2000 0.0400 -0.2000"/>
</g>
</a>
<a style="color:inherit;" xlink:href="textedit://C:/Users/grego/AppData/Local/Temp/lilypond-intavolatura-MeruloI-Itone-02/a-stage5.ly:569:9:10">
<g transform="translate(23.5759, 11.6906)">
<path stroke-width="0.0800" stroke-linejoin="round" stroke-linecap="round" stroke="currentColor" fill="currentColor" d="M1.5774 3.0000C2.9540 3.9717 13.8911 3.9717 15.2677 3.0000L15.2677 3.0000C13.8911 3.8517 2.9540 3.8517 1.5774 3.0000z"/>
</g>
</a>
<g transform="translate(90.3986, 25.6906)">
<rect x="-0.0650" y="1.2590" width="0.1300" height="2.7410" ry="0.0400" fill="currentColor"/>
</g>
<g transform="translate(91.5728, 25.6906)">
<rect x="-0.0650" y="-4.5013" width="0.1300" height="3.3151" ry="0.0400" fill="currentColor"/>
</g>
<g transform="translate(92.0878, 24.1906)">
<path transform="scale(0.0040, -0.0040)" d="M0 0c0 31 25 56 56 56s56 -25 56 -56s-25 -56 -56 -56s-56 25 -56 56z" fill="currentColor"/>
</g>
<g transform="translate(90.3986, 11.6906)">
<rect x="-0.0650" y="2.7590" width="0.1300" height="2.2410" ry="0.0400" fill="currentColor"/>
</g>
<g transform="translate(91.6460, 11.6906)">
<rect x="-0.0650" y="-2.0000" width="0.1300" height="3.2410" ry="0.0400" fill="currentColor"/>
</g>
<a style="color:inherit;" xlink:href="textedit://C:/Users/grego/AppData/Local/Temp/lilypond-intavolatura-MeruloI-Itone-02/a-stage5.ly:685:6:7">
<g transform="translate(90.3336, 26.6906)">
<path transform="scale(0.0040, -0.0040)" d="M303 37c7 9 11 18 11 27c0 22 -20 42 -43 42c-4 0 -7 0 -11 -1c-31 -9 -78 -40 -115 -64s-84 -53 -104 -78c-7 -9 -10 -18 -10 -27c0 -22 20 -42 43 -42c4 0 7 0 11 1c31 9 77 40 114 64s84 53 104 78zM262 136c46 0 82 -21 82 -71c0 -19 -4 -39 -10 -57
c-12 -37 -32 -72 -64 -94c-53 -36 -113 -50 -187 -50c-46 0 -83 21 -83 71c0 19 5 39 11 57c12 37 31 72 63 94c53 36 114 50 188 50z" fill="currentColor"/>
</g>
</a>
<a style="color:inherit;" xlink:href="textedit://C:/Users/grego/AppData/Local/Temp/lilypond-intavolatura-MeruloI-Itone-02/a-stage5.ly:677:6:7">
<g transform="translate(90.3336, 24.6906)">
<path transform="scale(0.0040, -0.0040)" d="M217 136c56 0 109 -27 109 -89c0 -18 -5 -38 -13 -55c-31 -66 -113 -128 -204 -128c-56 0 -109 27 -109 89c0 18 5 38 13 55c31 66 113 128 204 128z" fill="currentColor"/>
</g>
</a>
<a style="color:inherit;" xlink:href="textedit://C:/Users/grego/AppData/Local/Temp/lilypond-intavolatura-MeruloI-Itone-02/a-stage5.ly:596:6:7">
<g transform="translate(90.3336, 14.1906)">
<path transform="scale(0.0040, -0.0040)" d="M303 37c7 9 11 18 11 27c0 22 -20 42 -43 42c-4 0 -7 0 -11 -1c-31 -9 -78 -40 -115 -64s-84 -53 -104 -78c-7 -9 -10 -18 -10 -27c0 -22 20 -42 43 -42c4 0 7 0 11 1c31 9 77 40 114 64s84 53 104 78zM262 136c46 0 82 -21 82 -71c0 -19 -4 -39 -10 -57
c-12 -37 -32 -72 -64 -94c-53 -36 -113 -50 -187 -50c-46 0 -83 21 -83 71c0 19 5 39 11 57c12 37 31 72 63 94c53 36 114 50 188 50z" fill="currentColor"/>
</g>
</a>
<a style="color:inherit;" xlink:href="textedit://C:/Users/grego/AppData/Local/Temp/lilypond-intavolatura-MeruloI-Itone-02/a-stage5.ly:583:6:7">
<g transform="translate(90.3336, 13.1906)">
<path transform="scale(0.0040, -0.0040)" d="M303 37c7 9 11 18 11 27c0 22 -20 42 -43 42c-4 0 -7 0 -11 -1c-31 -9 -78 -40 -115 -64s-84 -53 -104 -78c-7 -9 -10 -18 -10 -27c0 -22 20 -42 43 -42c4 0 7 0 11 1c31 9 77 40 114 64s84 53 104 78zM262 136c46 0 82 -21 82 -71c0 -19 -4 -39 -10 -57
c-12 -37 -32 -72 -64 -94c-53 -36 -113 -50 -187 -50c-46 0 -83 21 -83 71c0 19 5 39 11 57c12 37 31 72 63 94c53 36 114 50 188 50z" fill="currentColor"/>
</g>
</a>
<g transform="translate(88.2769, 11.6906)">
<rect x="-0.0650" y="-2.0000" width="0.1300" height="3.3138" ry="0.0400" fill="currentColor"/>
</g>
<a style="color:inherit;" xlink:href="textedit://C:/Users/grego/AppData/Local/Temp/lilypond-intavolatura-MeruloI-Itone-02/a-stage5.ly:582:6:7">
<g transform="translate(87.0377, 13.1906)">
<path transform="scale(0.0040, -0.0040)" d="M217 136c56 0 109 -27 109 -89c0 -18 -5 -38 -13 -55c-31 -66 -113 -128 -204 -128c-56 0 -109 27 -109 89c0 18 5 38 13 55c31 66 113 128 204 128z" fill="currentColor"/>
</g>
</a>
<g transform="translate(101.5624, 25.6906)">
<rect x="-0.0650" y="-4.7008" width="0.1300" height="3.5146" ry="0.0400" fill="currentColor"/>
</g>
<a style="color:inherit;" xlink:href="textedit://C:/Users/grego/AppData/Local/Temp/lilypond-intavolatura-MeruloI-Itone-02/a-stage5.ly:677:19:20">
<g transform="translate(100.3232, 24.6906)">
<path transform="scale(0.0040, -0.0040)" d="M217 136c56 0 109 -27 109 -89c0 -18 -5 -38 -13 -55c-31 -66 -113 -128 -204 -128c-56 0 -109 27 -109 89c0 18 5 38 13 55c31 66 113 128 204 128z" fill="currentColor"/>
</g>
</a>
<g transform="translate(99.2623, 25.6906)">
<rect x="-0.0650" y="-4.6548" width="0.1300" height="3.9686" ry="0.0400" fill="currentColor"/>
</g>
<a style="color:inherit;" xlink:href="textedit://C:/Users/grego/AppData/Local/Temp/lilypond-intavolatura-MeruloI-Itone-02/a-stage5.ly:677:17:18">
<g transform="translate(98.0231, 25.1906)">
<path transform="scale(0.0040, -0.0040)" d="M217 136c56 0 109 -27 109 -89c0 -18 -5 -38 -13 -55c-31 -66 -113 -128 -204 -128c-56 0 -109 27 -109 89c0 18 5 38 13 55c31 66 113 128 204 128z" fill="currentColor"/>
</g>
</a>
<g transform="translate(96.9622, 25.6906)">
<rect x="-0.0650" y="-4.6089" width="0.1300" height="3.4227" ry="0.0400" fill="currentColor"/>
</g>
<a style="color:inherit;" xlink:href="textedit://C:/Users/grego/AppData/Local/Temp/lilypond-intavolatura-MeruloI-Itone-02/a-stage5.ly:677:15:16">
<g transform="translate(95.7230, 24.6906)">
<path transform="scale(0.0040, -0.0040)" d="M217 136c56 0 109 -27 109 -89c0 -18 -5 -38 -13 -55c-31 -66 -113 -128 -204 -128c-56 0 -109 27 -109 89c0 18 5 38 13 55c31 66 113 128 204 128z" fill="currentColor"/>
</g>
</a>
<g transform="translate(94.6621, 25.6906)">
<rect x="-0.0650" y="-4.5630" width="0.1300" height="3.8768" ry="0.0400" fill="currentColor"/>
</g>
<a style="color:inherit;" xlink:href="textedit://C:/Users/grego/AppData/Local/Temp/lilypond-intavolatura-MeruloI-Itone-02/a-stage5.ly:677:11:12">
<g transform="translate(93.4229, 25.1906)">
<path transform="scale(0.0040, -0.0040)" d="M217 136c56 0 109 -27 109 -89c0 -18 -5 -38 -13 -55c-31 -66 -113 -128 -204 -128c-56 0 -109 27 -109 89c0 18 5 38 13 55c31 66 113 128 204 128z" fill="currentColor"/>
</g>
</a>
<a style="color:inherit;" xlink:href="textedit://C:/Users/grego/AppData/Local/Temp/lilypond-intavolatura-MeruloI-Itone-02/a-stage5.ly:663:15:16">
<g transform="translate(31.7804, 25.6906)">
<path transform="scale(0.0040, -0.0040)" d="M217 136c56 0 109 -27 109 -89c0 -18 -5 -38 -13 -55c-31 -66 -113 -128 -204 -128c-56 0 -109 27 -109 89c0 18 5 38 13 55c31 66 113 128 204 128z" fill="currentColor"/>
</g>
</a>
<g transform="translate(30.0432, 25.6906)">
<rect x="-0.0650" y="0.6862" width="0.1300" height="3.1238" ry="0.0400" fill="currentColor"/>
</g>
<a style="color:inherit;" xlink:href="textedit://C:/Users/grego/AppData/Local/Temp/lilypond-intavolatura-MeruloI-Itone-02/a-stage5.ly:663:13:14">
<g transform="translate(29.9782, 26.1906)">
<path transform="scale(0.0040, -0.0040)" d="M217 136c56 0 109 -27 109 -89c0 -18 -5 -38 -13 -55c-31 -66 -113 -128 -204 -128c-56 0 -109 27 -109 89c0 18 5 38 13 55c31 66 113 128 204 128z" fill="currentColor"/>
</g>
</a>
<g transform="translate(28.2411, 25.6906)">
<rect x="-0.0650" y="0.1862" width="0.1300" height="3.6238" ry="0.0400" fill="currentColor"/>
</g>
<a style="color:inherit;" xlink:href="textedit://C:/Users/grego/AppData/Local/Temp/lilypond-intavolatura-MeruloI-Itone-02/a-stage5.ly:663:11:12">
<g transform="translate(28.1761, 25.6906)">
<path transform="scale(0.0040, -0.0040)" d="M217 136c56 0 109 -27 109 -89c0 -18 -5 -38 -13 -55c-31 -66 -113 -128 -204 -128c-56 0 -109 27 -109 89c0 18 5 38 13 55c31 66 113 128 204 128z" fill="currentColor"/>
</g>
</a>
<g transform="translate(31.8454, 25.6906)">
<rect x="-0.0650" y="0.1862" width="0.1300" height="3.6238" ry="0.0400" fill="currentColor"/>
</g>
<g transform="translate(26.4390, 25.6906)">
<rect x="-0.0650" y="0.6862" width="0.1300" height="3.1238" ry="0.0400" fill="currentColor"/>
</g>
<a style="color:inherit;" xlink:href="textedit://C:/Users/grego/AppData/Local/Temp/lilypond-intavolatura-MeruloI-Itone-02/a-stage5.ly:663:6:7">
<g transform="translate(26.3740, 26.1906)">
<path transform="scale(0.0040, -0.0040)" d="M217 136c56 0 109 -27 109 -89c0 -18 -5 -38 -13 -55c-31 -66 -113 -128 -204 -128c-56 0 -109 27 -109 89c0 18 5 38 13 55c31 66 113 128 204 128z" fill="currentColor"/>
</g>
</a>
<g transform="translate(23.7059, 29.0256)">
<path transform="scale(0.0040, -0.0040)" d="M0 0h-16v375h16v-375zM0 0v250c97 59 224 148 224 259c0 57 -15 112 -40 163v5c0 14 11 22 23 22c7 0 15 -3 20 -11c25 -56 40 -117 40 -179c0 -203 -267 -306 -267 -509z" fill="currentColor"/>
</g>
<g transform="translate(23.6409, 25.6906)">
<rect x="-0.0650" y="0.1862" width="0.1300" height="3.1888" ry="0.0400" fill="currentColor"/>
</g>
<g transform="translate(39.2436, 11.6906)">
<rect x="-0.0650" y="2.6862" width="0.1300" height="2.3138" ry="0.0400" fill="currentColor"/>
</g>
<g transform="translate(40.4910, 11.6906)">
<rect x="-0.0650" y="-3.6667" width="0.1300" height="2.9077" ry="0.0400" fill="currentColor"/>
</g>
<a style="color:inherit;" xlink:href="textedit://C:/Users/grego/AppData/Local/Temp/lilypond-intavolatura-MeruloI-Itone-02/a-stage5.ly:666:6:7">
<g transform="translate(39.1786, 27.6906)">
<path transform="scale(0.0040, -0.0040)" d="M365 0h-355c-6 0 -10 4 -10 10v136c0 6 4 10 10 10h355c6 0 10 -4 10 -10v-136c0 -6 -4 -10 -10 -10z" fill="currentColor"/>
</g>
</a>
<a style="color:inherit;" xlink:href="textedit://C:/Users/grego/AppData/Local/Temp/lilypond-intavolatura-MeruloI-Itone-02/a-stage5.ly:653:6:7">
<g transform="translate(39.1786, 24.6906)">
<path transform="scale(0.0040, -0.0040)" d="M303 37c7 9 11 18 11 27c0 22 -20 42 -43 42c-4 0 -7 0 -11 -1c-31 -9 -78 -40 -115 -64s-84 -53 -104 -78c-7 -9 -10 -18 -10 -27c0 -22 20 -42 43 -42c4 0 7 0 11 1c31 9 77 40 114 64s84 53 104 78zM262 136c46 0 82 -21 82 -71c0 -19 -4 -39 -10 -57
c-12 -37 -32 -72 -64 -94c-53 -36 -113 -50 -187 -50c-46 0 -83 21 -83 71c0 19 5 39 11 57c12 37 31 72 63 94c53 36 114 50 188 50z" fill="currentColor"/>
</g>
</a>
<a style="color:inherit;" xlink:href="textedit://C:/Users/grego/AppData/Local/Temp/lilypond-intavolatura-MeruloI-Itone-02/a-stage5.ly:570:6:7">
<g transform="translate(39.1786, 14.1906)">
<path transform="scale(0.0040, -0.0040)" d="M217 136c56 0 109 -27 109 -89c0 -18 -5 -38 -13 -55c-31 -66 -113 -128 -204 -128c-56 0 -109 27 -109 89c0 18 5 38 13 55c31 66 113 128 204 128z" fill="currentColor"/>
</g>
</a>
<a style="color:inherit;" xlink:href="textedit://C:/Users/grego/AppData/Local/Temp/lilypond-intavolatura-MeruloI-Itone-02/a-stage5.ly:561:6:7">
<g transform="translate(39.1786, 11.1906)">
<path transform="scale(0.0040, -0.0040)" d="M303 37c7 9 11 18 11 27c0 22 -20 42 -43 42c-4 0 -7 0 -11 -1c-31 -9 -78 -40 -115 -64s-84 -53 -104 -78c-7 -9 -10 -18 -10 -27c0 -22 20 -42 43 -42c4 0 7 0 11 1c31 9 77 40 114 64s84 53 104 78zM262 136c46 0 82 -21 82 -71c0 -19 -4 -39 -10 -57
c-12 -37 -32 -72 -64 -94c-53 -36 -113 -50 -187 -50c-46 0 -83 21 -83 71c0 19 5 39 11 57c12 37 31 72 63 94c53 36 114 50 188 50z" fill="currentColor"/>
</g>
</a>
<g transform="translate(23.6409, 11.6906)">
<rect x="-0.0650" y="2.7590" width="0.1300" height="2.2410" ry="0.0400" fill="currentColor"/>
</g>
<g transform="translate(36.4456, 25.6906)">
<rect x="-0.0650" y="1.1862" width="0.1300" height="2.3069" ry="0.0400" fill="currentColor"/>
</g>
<a style="color:inherit;" xlink:href="textedit://C:/Users/grego/AppData/Local/Temp/lilypond-intavolatura-MeruloI-Itone-02/a-stage5.ly:665:6:7">
<g transform="translate(36.3806, 26.6906)">
<path transform="scale(0.0040, -0.0040)" d="M217 136c56 0 109 -27 109 -89c0 -18 -5 -38 -13 -55c-31 -66 -113 -128 -204 -128c-56 0 -109 27 -109 89c0 18 5 38 13 55c31 66 113 128 204 128z" fill="currentColor"/>
</g>
</a>
<g transform="translate(33.6475, 25.6906)">
<rect x="-0.0650" y="0.6862" width="0.1300" height="2.5107" ry="0.0400" fill="currentColor"/>
</g>
<a style="color:inherit;" xlink:href="textedit://C:/Users/grego/AppData/Local/Temp/lilypond-intavolatura-MeruloI-Itone-02/a-stage5.ly:664:6:7">
<g transform="translate(33.5825, 26.1906)">
<path transform="scale(0.0040, -0.0040)" d="M217 136c56 0 109 -27 109 -89c0 -18 -5 -38 -13 -55c-31 -66 -113 -128 -204 -128c-56 0 -109 27 -109 89c0 18 5 38 13 55c31 66 113 128 204 128z" fill="currentColor"/>
</g>
</a>
<g transform="translate(17.2557, 11.6906)">
<rect x="-0.0650" y="2.7590" width="0.1300" height="2.2410" ry="0.0400" fill="currentColor"/>
</g>
<g transform="translate(18.5031, 11.6906)">
<rect x="-0.0650" y="-3.3333" width="0.1300" height="3.0743" ry="0.0400" fill="currentColor"/>
</g>
<a style="color:inherit;" xlink:href="textedit://C:/Users/grego/AppData/Local/Temp/lilypond-intavolatura-MeruloI-Itone-02/a-stage5.ly:645:6:7">
<g transform="translate(12.0342, 24.6906)">
<path transform="scale(0.0040, -0.0040)" d="M0 119c0 8 5 15 13 18l46 17v158c0 10 8 19 18 19s19 -9 19 -19v-145l83 31v158c0 10 9 19 19 19s18 -9 18 -19v-145l32 12c2 1 5 1 7 1c11 0 20 -9 20 -20v-60c0 -8 -5 -16 -13 -19l-46 -16v-160l32 11c2 1 5 1 7 1c11 0 20 -9 20 -20v-60c0 -8 -5 -15 -13 -18l-46 -17
v-158c0 -10 -8 -19 -18 -19s-19 9 -19 19v145l-83 -31v-158c0 -10 -9 -19 -19 -19s-18 9 -18 19v145l-32 -12c-2 -1 -5 -1 -7 -1c-11 0 -20 9 -20 20v60c0 8 5 16 13 19l46 16v160l-32 -11c-2 -1 -5 -1 -7 -1c-11 0 -20 9 -20 20v60zM179 95l-83 -30v-160l83 30v160z" fill="currentColor"/>
</g>
<g transform="translate(13.1342, 26.1906)">
<path transform="scale(0.0040, -0.0040)" d="M0 119c0 8 5 15 13 18l46 17v158c0 10 8 19 18 19s19 -9 19 -19v-145l83 31v158c0 10 9 19 19 19s18 -9 18 -19v-145l32 12c2 1 5 1 7 1c11 0 20 -9 20 -20v-60c0 -8 -5 -16 -13 -19l-46 -16v-160l32 11c2 1 5 1 7 1c11 0 20 -9 20 -20v-60c0 -8 -5 -15 -13 -18l-46 -17
v-158c0 -10 -8 -19 -18 -19s-19 9 -19 19v145l-83 -31v-158c0 -10 -9 -19 -19 -19s-18 9 -18 19v145l-32 -12c-2 -1 -5 -1 -7 -1c-11 0 -20 9 -20 20v60c0 8 5 16 13 19l46 16v160l-32 -11c-2 -1 -5 -1 -7 -1c-11 0 -20 9 -20 20v60zM179 95l-83 -30v-160l83 30v160z" fill="currentColor"/>
</g>
<g transform="translate(14.2342, 24.1906)">
<path transform="scale(0.0040, -0.0040)" d="M0 119c0 8 5 15 13 18l46 17v158c0 10 8 19 18 19s19 -9 19 -19v-145l83 31v158c0 10 9 19 19 19s18 -9 18 -19v-145l32 12c2 1 5 1 7 1c11 0 20 -9 20 -20v-60c0 -8 -5 -16 -13 -19l-46 -16v-160l32 11c2 1 5 1 7 1c11 0 20 -9 20 -20v-60c0 -8 -5 -15 -13 -18l-46 -17
v-158c0 -10 -8 -19 -18 -19s-19 9 -19 19v145l-83 -31v-158c0 -10 -9 -19 -19 -19s-18 9 -18 19v145l-32 -12c-2 -1 -5 -1 -7 -1c-11 0 -20 9 -20 20v60c0 8 5 16 13 19l46 16v160l-32 -11c-2 -1 -5 -1 -7 -1c-11 0 -20 9 -20 20v60zM179 95l-83 -30v-160l83 30v160z" fill="currentColor"/>
</g>
</a>
<g transform="scale(0.7000, 0.7000)">
<g transform="translate(13.3369, 35.2722)">
<path transform="scale(0.0040, -0.0040)" d="M557 -125c0 28 23 51 51 51s51 -23 51 -51s-23 -51 -51 -51s-51 23 -51 51zM557 125c0 28 23 51 51 51s51 -23 51 -51s-23 -51 -51 -51s-51 23 -51 51zM232 263c172 0 293 -88 293 -251c0 -263 -263 -414 -516 -521c-3 -3 -6 -4 -9 -4c-7 0 -13 6 -13 13c0 3 1 6 4 9
c202 118 412 265 412 493c0 120 -63 235 -171 235c-74 0 -129 -54 -154 -126c11 5 22 8 34 8c55 0 100 -45 100 -100c0 -58 -44 -106 -100 -106c-60 0 -112 47 -112 106c0 133 102 244 232 244z" fill="currentColor"/>
</g>
</g>
<g transform="scale(0.4500, 0.4500)">
<g transform="translate(20.7463, 50.4234)">
<path transform="scale(0.0040, -0.0040)" d="M318 0c0 -33 7 -73 45 -73c29 0 57 31 88 31c123 0 229 -89 229 -208c0 -169 -93 -250 -265 -250c-83 0 -152 61 -152 142c0 42 34 77 76 77s76 -35 76 -77c0 -39 -49 -37 -49 -76c0 -23 24 -38 49 -38c116 0 140 90 140 222c0 106 -12 180 -104 180
c-72 0 -119 -71 -119 -149c0 -9 -7 -14 -14 -14s-13 5 -13 14c0 76 -31 147 -84 200v-471c0 -6 -4 -10 -10 -10h-21c-6 0 -10 4 -10 10v980c0 6 4 10 10 10h21c6 0 10 -4 10 -10v-471c53 53 84 124 84 200c0 9 6 14 13 14s14 -5 14 -14c0 -78 47 -149 119 -149
c92 0 104 74 104 180c0 132 -24 222 -140 222c-25 0 -49 -15 -49 -38c0 -39 49 -37 49 -76c0 -42 -34 -77 -76 -77s-76 35 -76 77c0 81 69 142 152 142c172 0 265 -81 265 -250c0 -119 -106 -208 -229 -208c-31 0 -59 31 -88 31c-38 0 -45 -40 -45 -73zM129 -500h-119
c-6 0 -10 4 -10 10v980c0 6 4 10 10 10h119c6 0 10 -4 10 -10v-980c0 -6 -4 -10 -10 -10z" fill="currentColor"/>
</g>
</g>
<a style="color:inherit;" xlink:href="textedit://C:/Users/grego/AppData/Local/Temp/lilypond-intavolatura-MeruloI-Itone-02/a-stage5.ly:660:6:7">
<g transform="translate(17.1907, 26.6906)">
<path transform="scale(0.0040, -0.0040)" d="M217 136c56 0 109 -27 109 -89c0 -18 -5 -38 -13 -55c-31 -66 -113 -128 -204 -128c-56 0 -109 27 -109 89c0 18 5 38 13 55c31 66 113 128 204 128z" fill="currentColor"/>
</g>
</a>
<a style="color:inherit;" xlink:href="textedit://C:/Users/grego/AppData/Local/Temp/lilypond-intavolatura-MeruloI-Itone-02/a-stage5.ly:549:6:7">
<g transform="translate(12.0342, 9.6906)">
<path transform="scale(0.0040, -0.0040)" d="M0 119c0 8 5 15 13 18l46 17v158c0 10 8 19 18 19s19 -9 19 -19v-145l83 31v158c0 10 9 19 19 19s18 -9 18 -19v-145l32 12c2 1 5 1 7 1c11 0 20 -9 20 -20v-60c0 -8 -5 -16 -13 -19l-46 -16v-160l32 11c2 1 5 1 7 1c11 0 20 -9 20 -20v-60c0 -8 -5 -15 -13 -18l-46 -17
v-158c0 -10 -8 -19 -18 -19s-19 9 -19 19v145l-83 -31v-158c0 -10 -9 -19 -19 -19s-18 9 -18 19v145l-32 -12c-2 -1 -5 -1 -7 -1c-11 0 -20 9 -20 20v60c0 8 5 16 13 19l46 16v160l-32 -11c-2 -1 -5 -1 -7 -1c-11 0 -20 9 -20 20v60zM179 95l-83 -30v-160l83 30v160z" fill="currentColor"/>
</g>
<g transform="translate(13.1342, 11.1906)">
<path transform="scale(0.0040, -0.0040)" d="M0 119c0 8 5 15 13 18l46 17v158c0 10 8 19 18 19s19 -9 19 -19v-145l83 31v158c0 10 9 19 19 19s18 -9 18 -19v-145l32 12c2 1 5 1 7 1c11 0 20 -9 20 -20v-60c0 -8 -5 -16 -13 -19l-46 -16v-160l32 11c2 1 5 1 7 1c11 0 20 -9 20 -20v-60c0 -8 -5 -15 -13 -18l-46 -17
v-158c0 -10 -8 -19 -18 -19s-19 9 -19 19v145l-83 -31v-158c0 -10 -9 -19 -19 -19s-18 9 -18 19v145l-32 -12c-2 -1 -5 -1 -7 -1c-11 0 -20 9 -20 20v60c0 8 5 16 13 19l46 16v160l-32 -11c-2 -1 -5 -1 -7 -1c-11 0 -20 9 -20 20v60zM179 95l-83 -30v-160l83 30v160z" fill="currentColor"/>
</g>
<g transform="translate(14.2342, 9.1906)">
<path transform="scale(0.0040, -0.0040)" d="M0 119c0 8 5 15 13 18l46 17v158c0 10 8 19 18 19s19 -9 19 -19v-145l83 31v158c0 10 9 19 19 19s18 -9 18 -19v-145l32 12c2 1 5 1 7 1c11 0 20 -9 20 -20v-60c0 -8 -5 -16 -13 -19l-46 -16v-160l32 11c2 1 5 1 7 1c11 0 20 -9 20 -20v-60c0 -8 -5 -15 -13 -18l-46 -17
v-158c0 -10 -8 -19 -18 -19s-19 9 -19 19v145l-83 -31v-158c0 -10 -9 -19 -19 -19s-18 9 -18 19v145l-32 -12c-2 -1 -5 -1 -7 -1c-11 0 -20 9 -20 20v60c0 8 5 16 13 19l46 16v160l-32 -11c-2 -1 -5 -1 -7 -1c-11 0 -20 9 -20 20v60zM179 95l-83 -30v-160l83 30v160z" fill="currentColor"/>
</g>
</a>
<g transform="scale(0.5000, 0.5000)">
<g transform="translate(18.6717, 25.3811)">
<path transform="scale(0.0040, -0.0040)" d="M266 -635h-6c-108 0 -195 88 -195 197c0 58 53 103 112 103c54 0 95 -47 95 -103c0 -52 -43 -95 -95 -95c-11 0 -21 2 -31 6c26 -39 68 -65 117 -65h4zM401 151c24 -116 46 -231 60 -354c77 27 112 92 112 160c0 90 -62 183 -172 194zM74 28c0 -135 129 -247 264 -247
c28 0 55 2 82 6c-14 127 -37 245 -63 364c-79 -8 -124 -61 -124 -119c0 -44 25 -91 81 -123c5 -5 7 -10 7 -15c0 -11 -10 -22 -22 -22c-3 0 -6 1 -9 2c-80 43 -117 115 -117 185c0 88 58 174 160 197c-14 58 -29 117 -46 175c-107 -121 -213 -243 -213 -403zM250 553
c-29 96 -52 193 -52 310c0 142 40 249 149 328c3 2 7 3 10 3c4 0 7 0 10 -3c71 -84 133 -245 133 -358c0 -143 -86 -255 -180 -364c21 -68 39 -138 56 -207c5 0 10 1 14 1c155 0 255 -129 255 -261c0 -76 -33 -155 -107 -210c-22 -17 -47 -28 -73 -36c3 -35 5 -70 5 -105
c0 -19 -1 -39 -2 -58c-7 -119 -88 -225 -202 -228l1 43c93 2 153 92 159 191c1 18 2 37 2 55c0 31 -1 61 -4 92c-29 -5 -58 -8 -89 -8c-188 0 -333 172 -333 374c0 177 131 306 248 441zM247 780c0 -71 17 -129 35 -188c80 97 147 200 147 327c0 39 -7 82 -21 126
c-104 -50 -161 -146 -161 -265z" fill="currentColor"/>
</g>
</g>
<g transform="scale(0.4500, 0.4500)">
<g transform="translate(20.7463, 32.6457)">
<path transform="scale(0.0040, -0.0040)" d="M318 0c0 -33 7 -73 45 -73c29 0 57 31 88 31c123 0 229 -89 229 -208c0 -169 -93 -250 -265 -250c-83 0 -152 61 -152 142c0 42 34 77 76 77s76 -35 76 -77c0 -39 -49 -37 -49 -76c0 -23 24 -38 49 -38c116 0 140 90 140 222c0 106 -12 180 -104 180
c-72 0 -119 -71 -119 -149c0 -9 -7 -14 -14 -14s-13 5 -13 14c0 76 -31 147 -84 200v-471c0 -6 -4 -10 -10 -10h-21c-6 0 -10 4 -10 10v980c0 6 4 10 10 10h21c6 0 10 -4 10 -10v-471c53 53 84 124 84 200c0 9 6 14 13 14s14 -5 14 -14c0 -78 47 -149 119 -149
c92 0 104 74 104 180c0 132 -24 222 -140 222c-25 0 -49 -15 -49 -38c0 -39 49 -37 49 -76c0 -42 -34 -77 -76 -77s-76 35 -76 77c0 81 69 142 152 142c172 0 265 -81 265 -250c0 -119 -106 -208 -229 -208c-31 0 -59 31 -88 31c-38 0 -45 -40 -45 -73zM129 -500h-119
c-6 0 -10 4 -10 10v980c0 6 4 10 10 10h119c6 0 10 -4 10 -10v-980c0 -6 -4 -10 -10 -10z" fill="currentColor"/>
</g>
</g>
<a style="color:inherit;" xlink:href="textedit://C:/Users/grego/AppData/Local/Temp/lilypond-intavolatura-MeruloI-Itone-02/a-stage5.ly:568:6:7">
<g transform="translate(17.1907, 14.1906)">
<path transform="scale(0.0040, -0.0040)" d="M303 37c7 9 11 18 11 27c0 22 -20 42 -43 42c-4 0 -7 0 -11 -1c-31 -9 -78 -40 -115 -64s-84 -53 -104 -78c-7 -9 -10 -18 -10 -27c0 -22 20 -42 43 -42c4 0 7 0 11 1c31 9 77 40 114 64s84 53 104 78zM262 136c46 0 82 -21 82 -71c0 -19 -4 -39 -10 -57
c-12 -37 -32 -72 -64 -94c-53 -36 -113 -50 -187 -50c-46 0 -83 21 -83 71c0 19 5 39 11 57c12 37 31 72 63 94c53 36 114 50 188 50z" fill="currentColor"/>
</g>
</a>
<a style="color:inherit;" xlink:href="textedit://C:/Users/grego/AppData/Local/Temp/lilypond-intavolatura-MeruloI-Itone-02/a-stage5.ly:559:6:7">
<g transform="translate(17.1907, 11.6906)">
<path transform="scale(0.0040, -0.0040)" d="M303 37c7 9 11 18 11 27c0 22 -20 42 -43 42c-4 0 -7 0 -11 -1c-31 -9 -78 -40 -115 -64s-84 -53 -104 -78c-7 -9 -10 -18 -10 -27c0 -22 20 -42 43 -42c4 0 7 0 11 1c31 9 77 40 114 64s84 53 104 78zM262 136c46 0 82 -21 82 -71c0 -19 -4 -39 -10 -57
c-12 -37 -32 -72 -64 -94c-53 -36 -113 -50 -187 -50c-46 0 -83 21 -83 71c0 19 5 39 11 57c12 37 31 72 63 94c53 36 114 50 188 50z" fill="currentColor"/>
</g>
</a>
<a style="color:inherit;" xlink:href="textedit://C:/Users/grego/AppData/Local/Temp/lilypond-intavolatura-MeruloI-Itone-02/a-stage5.ly:583:9:10">
<g transform="translate(90.3336, 11.6906)">
<path stroke-width="0.0800" stroke-linejoin="round" stroke-linecap="round" stroke="currentColor" fill="currentColor" d="M1.7124 0.3927C3.1360 -0.5882 15.6005 -0.5882 17.0241 0.3927L17.0241 0.3927C15.6005 -0.4682 3.1360 -0.4682 1.7124 0.3927z"/>
</g>
</a>
<g transform="translate(8.4758, 19.1906)">
<rect x="0.0000" y="-8.5500" width="0.1600" height="17.1000" ry="0.0500" fill="currentColor"/>
</g>
<g transform="translate(24.8883, 11.6906)">
<rect x="-0.0650" y="-2.0000" width="0.1300" height="3.2410" ry="0.0400" fill="currentColor"/>
</g>
<a style="color:inherit;" xlink:href="textedit://C:/Users/grego/AppData/Local/Temp/lilypond-intavolatura-MeruloI-Itone-02/a-stage5.ly:662:6:7">
<g transform="translate(23.5759, 25.6906)">
<path transform="scale(0.0040, -0.0040)" d="M217 136c56 0 109 -27 109 -89c0 -18 -5 -38 -13 -55c-31 -66 -113 -128 -204 -128c-56 0 -109 27 -109 89c0 18 5 38 13 55c31 66 113 128 204 128z" fill="currentColor"/>
</g>
</a>
<a style="color:inherit;" xlink:href="textedit://C:/Users/grego/AppData/Local/Temp/lilypond-intavolatura-MeruloI-Itone-02/a-stage5.ly:569:6:7">
<g transform="translate(23.5759, 14.1906)">
<path transform="scale(0.0040, -0.0040)" d="M303 37c7 9 11 18 11 27c0 22 -20 42 -43 42c-4 0 -7 0 -11 -1c-31 -9 -78 -40 -115 -64s-84 -53 -104 -78c-7 -9 -10 -18 -10 -27c0 -22 20 -42 43 -42c4 0 7 0 11 1c31 9 77 40 114 64s84 53 104 78zM262 136c46 0 82 -21 82 -71c0 -19 -4 -39 -10 -57
c-12 -37 -32 -72 -64 -94c-53 -36 -113 -50 -187 -50c-46 0 -83 21 -83 71c0 19 5 39 11 57c12 37 31 72 63 94c53 36 114 50 188 50z" fill="currentColor"/>
</g>
</a>
<a style="color:inherit;" xlink:href="textedit://C:/Users/grego/AppData/Local/Temp/lilypond-intavolatura-MeruloI-Itone-02/a-stage5.ly:560:6:7">
<g transform="translate(23.5759, 13.1906)">
<path transform="scale(0.0040, -0.0040)" d="M303 37c7 9 11 18 11 27c0 22 -20 42 -43 42c-4 0 -7 0 -11 -1c-31 -9 -78 -40 -115 -64s-84 -53 -104 -78c-7 -9 -10 -18 -10 -27c0 -22 20 -42 43 -42c4 0 7 0 11 1c31 9 77 40 114 64s84 53 104 78zM262 136c46 0 82 -21 82 -71c0 -19 -4 -39 -10 -57
c-12 -37 -32 -72 -64 -94c-53 -36 -113 -50 -187 -50c-46 0 -83 21 -83 71c0 19 5 39 11 57c12 37 31 72 63 94c53 36 114 50 188 50z" fill="currentColor"/>
</g>
</a>
<g transform="translate(20.9079, 29.4006)">
<path transform="scale(0.0040, -0.0040)" d="M0 0h-16v375h16v-375zM0 0v250c97 59 224 148 224 259c0 57 -15 112 -40 163v5c0 14 11 22 23 22c7 0 15 -3 20 -11c25 -56 40 -117 40 -179c0 -203 -267 -306 -267 -509z" fill="currentColor"/>
</g>
<g transform="translate(20.8429, 25.6906)">
<rect x="-0.0650" y="0.6862" width="0.1300" height="3.0638" ry="0.0400" fill="currentColor"/>
</g>
<a style="color:inherit;" xlink:href="textedit://C:/Users/grego/AppData/Local/Temp/lilypond-intavolatura-MeruloI-Itone-02/a-stage5.ly:661:6:7">
<g transform="translate(20.7779, 26.1906)">
<path transform="scale(0.0040, -0.0040)" d="M217 136c56 0 109 -27 109 -89c0 -18 -5 -38 -13 -55c-31 -66 -113 -128 -204 -128c-56 0 -109 27 -109 89c0 18 5 38 13 55c31 66 113 128 204 128z" fill="currentColor"/>
</g>
</a>
<g transform="translate(61.6014, 11.6906)">
<rect x="-0.0650" y="3.2590" width="0.1300" height="2.2410" ry="0.0400" fill="currentColor"/>
</g>
<g transform="translate(7.6481, 9.6201)">
<text font-family="serif" font-size="1.7459" text-anchor="start" fill="currentColor">
<tspan>5</tspan>
</text>
</g>
<g transform="translate(17.2557, 25.6906)">
<rect x="-0.0650" y="1.1862" width="0.1300" height="2.8138" ry="0.0400" fill="currentColor"/>
</g>
<g transform="translate(18.9449, 27.1906)">
<path transform="scale(0.0040, -0.0040)" d="M0 0c0 31 25 56 56 56s56 -25 56 -56s-25 -56 -56 -56s-56 25 -56 56z" fill="currentColor"/>
</g>
<g transform="translate(51.7399, 25.6906)">
<rect x="-0.0650" y="2.7590" width="0.1300" height="2.2410" ry="0.0400" fill="currentColor"/>
</g>
<g transform="translate(56.2101, 25.6906)">
<rect x="-0.0650" y="-2.9958" width="0.1300" height="2.3096" ry="0.0400" fill="currentColor"/>
</g>
<g transform="translate(56.2101, 11.6906)">
<rect x="-0.0650" y="-2.8031" width="0.1300" height="2.6169" ry="0.0400" fill="currentColor"/>
</g>
<a style="color:inherit;" xlink:href="textedit://C:/Users/grego/AppData/Local/Temp/lilypond-intavolatura-MeruloI-Itone-02/a-stage5.ly:655:6:7">
<g transform="translate(54.9709, 25.1906)">
<path transform="scale(0.0040, -0.0040)" d="M217 136c56 0 109 -27 109 -89c0 -18 -5 -38 -13 -55c-31 -66 -113 -128 -204 -128c-56 0 -109 27 -109 89c0 18 5 38 13 55c31 66 113 128 204 128z" fill="currentColor"/>
</g>
</a>
<a style="color:inherit;" xlink:href="textedit://C:/Users/grego/AppData/Local/Temp/lilypond-intavolatura-MeruloI-Itone-02/a-stage5.ly:563:6:7">
<g transform="translate(54.9709, 11.6906)">
<path transform="scale(0.0040, -0.0040)" d="M217 136c56 0 109 -27 109 -89c0 -18 -5 -38 -13 -55c-31 -66 -113 -128 -204 -128c-56 0 -109 27 -109 89c0 18 5 38 13 55c31 66 113 128 204 128z" fill="currentColor"/>
</g>
</a>
<g transform="translate(52.9141, 25.6906)">
<rect x="-0.0650" y="-4.0000" width="0.1300" height="2.8138" ry="0.0400" fill="currentColor"/>
</g>
<g transform="translate(51.7399, 11.6906)">
<rect x="-0.0650" y="3.2590" width="0.1300" height="2.2410" ry="0.0400" fill="currentColor"/>
</g>
<g transform="translate(52.9141, 11.6906)">
<rect x="-0.0650" y="-3.6667" width="0.1300" height="2.9805" ry="0.0400" fill="currentColor"/>
</g>
<a style="color:inherit;" xlink:href="textedit://C:/Users/grego/AppData/Local/Temp/lilypond-intavolatura-MeruloI-Itone-02/a-stage5.ly:579:6:7">
<g transform="translate(61.5364, 12.1906)">
<path transform="scale(0.0040, -0.0040)" d="M303 37c7 9 11 18 11 27c0 22 -20 42 -43 42c-4 0 -7 0 -11 -1c-31 -9 -78 -40 -115 -64s-84 -53 -104 -78c-7 -9 -10 -18 -10 -27c0 -22 20 -42 43 -42c4 0 7 0 11 1c31 9 77 40 114 64s84 53 104 78zM262 136c46 0 82 -21 82 -71c0 -19 -4 -39 -10 -57
c-12 -37 -32 -72 -64 -94c-53 -36 -113 -50 -187 -50c-46 0 -83 21 -83 71c0 19 5 39 11 57c12 37 31 72 63 94c53 36 114 50 188 50z" fill="currentColor"/>
</g>
</a>
<g transform="translate(62.8488, 11.6906)">
<rect x="-0.0650" y="-3.0000" width="0.1300" height="3.2410" ry="0.0400" fill="currentColor"/>
</g>
<a style="color:inherit;" xlink:href="textedit://C:/Users/grego/AppData/Local/Temp/lilypond-intavolatura-MeruloI-Itone-02/a-stage5.ly:682:6:7">
<g transform="translate(61.5364, 28.1906)">
<path transform="scale(0.0040, -0.0040)" d="M303 37c7 9 11 18 11 27c0 22 -20 42 -43 42c-4 0 -7 0 -11 -1c-31 -9 -78 -40 -115 -64s-84 -53 -104 -78c-7 -9 -10 -18 -10 -27c0 -22 20 -42 43 -42c4 0 7 0 11 1c31 9 77 40 114 64s84 53 104 78zM262 136c46 0 82 -21 82 -71c0 -19 -4 -39 -10 -57
c-12 -37 -32 -72 -64 -94c-53 -36 -113 -50 -187 -50c-46 0 -83 21 -83 71c0 19 5 39 11 57c12 37 31 72 63 94c53 36 114 50 188 50z" fill="currentColor"/>
</g>
</a>
<a style="color:inherit;" xlink:href="textedit://C:/Users/grego/AppData/Local/Temp/lilypond-intavolatura-MeruloI-Itone-02/a-stage5.ly:675:6:7">
<g transform="translate(61.5364, 26.1906)">
<path transform="scale(0.0040, -0.0040)" d="M217 136c56 0 109 -27 109 -89c0 -18 -5 -38 -13 -55c-31 -66 -113 -128 -204 -128c-56 0 -109 27 -109 89c0 18 5 38 13 55c31 66 113 128 204 128z" fill="currentColor"/>
</g>
</a>
<a style="color:inherit;" xlink:href="textedit://C:/Users/grego/AppData/Local/Temp/lilypond-intavolatura-MeruloI-Itone-02/a-stage5.ly:592:6:7">
<g transform="translate(61.5364, 14.6906)">
<path transform="scale(0.0040, -0.0040)" d="M303 37c7 9 11 18 11 27c0 22 -20 42 -43 42c-4 0 -7 0 -11 -1c-31 -9 -78 -40 -115 -64s-84 -53 -104 -78c-7 -9 -10 -18 -10 -27c0 -22 20 -42 43 -42c4 0 7 0 11 1c31 9 77 40 114 64s84 53 104 78zM262 136c46 0 82 -21 82 -71c0 -19 -4 -39 -10 -57
c-12 -37 -32 -72 -64 -94c-53 -36 -113 -50 -187 -50c-46 0 -83 21 -83 71c0 19 5 39 11 57c12 37 31 72 63 94c53 36 114 50 188 50z" fill="currentColor"/>
</g>
</a>
<g transform="translate(59.0081, 25.6906)">
<rect x="-0.0650" y="-2.8142" width="0.1300" height="2.6280" ry="0.0400" fill="currentColor"/>
</g>
<g transform="translate(59.0081, 11.6906)">
<rect x="-0.0650" y="-2.5069" width="0.1300" height="2.8207" ry="0.0400" fill="currentColor"/>
</g>
<a style="color:inherit;" xlink:href="textedit://C:/Users/grego/AppData/Local/Temp/lilypond-intavolatura-MeruloI-Itone-02/a-stage5.ly:655:9:10">
<g transform="translate(57.7689, 25.6906)">
<path transform="scale(0.0040, -0.0040)" d="M217 136c56 0 109 -27 109 -89c0 -18 -5 -38 -13 -55c-31 -66 -113 -128 -204 -128c-56 0 -109 27 -109 89c0 18 5 38 13 55c31 66 113 128 204 128z" fill="currentColor"/>
</g>
</a>
<a style="color:inherit;" xlink:href="textedit://C:/Users/grego/AppData/Local/Temp/lilypond-intavolatura-MeruloI-Itone-02/a-stage5.ly:563:11:12">
<g transform="translate(57.7689, 12.1906)">
<path transform="scale(0.0040, -0.0040)" d="M217 136c56 0 109 -27 109 -89c0 -18 -5 -38 -13 -55c-31 -66 -113 -128 -204 -128c-56 0 -109 27 -109 89c0 18 5 38 13 55c31 66 113 128 204 128z" fill="currentColor"/>
</g>
</a>
<g transform="translate(47.1397, 11.6906)">
<rect x="-0.0650" y="3.1862" width="0.1300" height="2.6238" ry="0.0400" fill="currentColor"/>
</g>
<a style="color:inherit;" xlink:href="textedit://C:/Users/grego/AppData/Local/Temp/lilypond-intavolatura-MeruloI-Itone-02/a-stage5.ly:667:6:7">
<g transform="translate(51.6749, 28.1906)">
<path transform="scale(0.0040, -0.0040)" d="M303 37c7 9 11 18 11 27c0 22 -20 42 -43 42c-4 0 -7 0 -11 -1c-31 -9 -78 -40 -115 -64s-84 -53 -104 -78c-7 -9 -10 -18 -10 -27c0 -22 20 -42 43 -42c4 0 7 0 11 1c31 9 77 40 114 64s84 53 104 78zM262 136c46 0 82 -21 82 -71c0 -19 -4 -39 -10 -57
c-12 -37 -32 -72 -64 -94c-53 -36 -113 -50 -187 -50c-46 0 -83 21 -83 71c0 19 5 39 11 57c12 37 31 72 63 94c53 36 114 50 188 50z" fill="currentColor"/>
</g>
</a>
<g transform="translate(44.8396, 11.6906)">
<rect x="-0.0650" y="2.6862" width="0.1300" height="3.1238" ry="0.0400" fill="currentColor"/>
</g>
<a style="color:inherit;" xlink:href="textedit://C:/Users/grego/AppData/Local/Temp/lilypond-intavolatura-MeruloI-Itone-02/a-stage5.ly:571:12:13">
<g transform="translate(44.7746, 14.1906)">
<path transform="scale(0.0040, -0.0040)" d="M217 136c56 0 109 -27 109 -89c0 -18 -5 -38 -13 -55c-31 -66 -113 -128 -204 -128c-56 0 -109 27 -109 89c0 18 5 38 13 55c31 66 113 128 204 128z" fill="currentColor"/>
</g>
</a>
<a style="color:inherit;" xlink:href="textedit://C:/Users/grego/AppData/Local/Temp/lilypond-intavolatura-MeruloI-Itone-02/a-stage5.ly:571:15:16">
<g transform="translate(47.0747, 14.6906)">
<path transform="scale(0.0040, -0.0040)" d="M217 136c56 0 109 -27 109 -89c0 -18 -5 -38 -13 -55c-31 -66 -113 -128 -204 -128c-56 0 -109 27 -109 89c0 18 5 38 13 55c31 66 113 128 204 128z" fill="currentColor"/>
</g>
</a>
<g transform="translate(42.5396, 11.6906)">
<rect x="-0.0650" y="3.1862" width="0.1300" height="2.6238" ry="0.0400" fill="currentColor"/>
</g>
<a style="color:inherit;" xlink:href="textedit://C:/Users/grego/AppData/Local/Temp/lilypond-intavolatura-MeruloI-Itone-02/a-stage5.ly:571:6:7">
<g transform="translate(42.4746, 14.6906)">
<path transform="scale(0.0040, -0.0040)" d="M217 136c56 0 109 -27 109 -89c0 -18 -5 -38 -13 -55c-31 -66 -113 -128 -204 -128c-56 0 -109 27 -109 89c0 18 5 38 13 55c31 66 113 128 204 128z" fill="currentColor"/>
</g>
</a>
<g transform="translate(40.4910, 25.6906)">
<rect x="-0.0650" y="-4.0000" width="0.1300" height="2.7410" ry="0.0400" fill="currentColor"/>
</g>
<a style="color:inherit;" xlink:href="textedit://C:/Users/grego/AppData/Local/Temp/lilypond-intavolatura-MeruloI-Itone-02/a-stage5.ly:654:6:7">
<g transform="translate(51.6749, 24.6906)">
<path transform="scale(0.0040, -0.0040)" d="M217 136c56 0 109 -27 109 -89c0 -18 -5 -38 -13 -55c-31 -66 -113 -128 -204 -128c-56 0 -109 27 -109 89c0 18 5 38 13 55c31 66 113 128 204 128z" fill="currentColor"/>
</g>
</a>
<a style="color:inherit;" xlink:href="textedit://C:/Users/grego/AppData/Local/Temp/lilypond-intavolatura-MeruloI-Itone-02/a-stage5.ly:572:6:7">
<g transform="translate(51.6749, 14.6906)">
<path transform="scale(0.0040, -0.0040)" d="M303 37c7 9 11 18 11 27c0 22 -20 42 -43 42c-4 0 -7 0 -11 -1c-31 -9 -78 -40 -115 -64s-84 -53 -104 -78c-7 -9 -10 -18 -10 -27c0 -22 20 -42 43 -42c4 0 7 0 11 1c31 9 77 40 114 64s84 53 104 78zM262 136c46 0 82 -21 82 -71c0 -19 -4 -39 -10 -57
c-12 -37 -32 -72 -64 -94c-53 -36 -113 -50 -187 -50c-46 0 -83 21 -83 71c0 19 5 39 11 57c12 37 31 72 63 94c53 36 114 50 188 50z" fill="currentColor"/>
</g>
</a>
<a style="color:inherit;" xlink:href="textedit://C:/Users/grego/AppData/Local/Temp/lilypond-intavolatura-MeruloI-Itone-02/a-stage5.ly:571:18:19">
<g transform="translate(49.3748, 14.1906)">
<path transform="scale(0.0040, -0.0040)" d="M217 136c56 0 109 -27 109 -89c0 -18 -5 -38 -13 -55c-31 -66 -113 -128 -204 -128c-56 0 -109 27 -109 89c0 18 5 38 13 55c31 66 113 128 204 128z" fill="currentColor"/>
</g>
</a>
<g transform="translate(49.4398, 11.6906)">
<rect x="-0.0650" y="2.6862" width="0.1300" height="3.1238" ry="0.0400" fill="currentColor"/>
</g>
<a style="color:inherit;" xlink:href="textedit://C:/Users/grego/AppData/Local/Temp/lilypond-intavolatura-MeruloI-Itone-02/a-stage5.ly:562:6:7">
<g transform="translate(51.6749, 11.1906)">
<path transform="scale(0.0040, -0.0040)" d="M217 136c56 0 109 -27 109 -89c0 -18 -5 -38 -13 -55c-31 -66 -113 -128 -204 -128c-56 0 -109 27 -109 89c0 18 5 38 13 55c31 66 113 128 204 128z" fill="currentColor"/>
</g>
</a>
<g transform="translate(8.5358, 42.6906)">
<line stroke-linejoin="round" stroke-linecap="round" stroke-width="0.1000" stroke="currentColor" x1="0.0500" y1="0" x2="64.5720" y2="0"/>
</g>
<g transform="translate(8.5358, 43.6906)">
<line stroke-linejoin="round" stroke-linecap="round" stroke-width="0.1000" stroke="currentColor" x1="0.0500" y1="0" x2="64.5720" y2="0"/>
</g>
<g transform="translate(8.5358, 44.6906)">
<line stroke-linejoin="round" stroke-linecap="round" stroke-width="0.1000" stroke="currentColor" x1="0.0500" y1="0" x2="64.5720" y2="0"/>
</g>
<g transform="translate(8.5358, 45.6906)">
<line stroke-linejoin="round" stroke-linecap="round" stroke-width="0.1000" stroke="currentColor" x1="0.0500" y1="0" x2="64.5720" y2="0"/>
</g>
<g color="rgba(100.0000%, 100.0000%, 100.0000%, 100.0000%)">
<g transform="translate(8.5358, 43.6906)">
<line stroke-linejoin="round" stroke-linecap="round" stroke-width="0.1200" stroke="currentColor" x1="0.0500" y1="-2.0000" x2="64.5720" y2="-2.0000"/>
</g>
</g>
<g color="rgba(0.0000%, 0.0000%, 0.0000%, 100.0000%)">
<g transform="translate(8.5358, 43.6906)">
<line stroke-linejoin="round" stroke-linecap="round" stroke-width="0.1200" stroke="currentColor" x1="0.0500" y1="3.0000" x2="64.5720" y2="3.0000"/>
</g>
</g>
<g transform="translate(8.5358, 54.6906)">
<rect x="29.8933" y="-0.1000" width="1.9563" height="0.2000" ry="0.1000" fill="currentColor"/>
</g>
<g transform="translate(8.5358, 54.6906)">
<rect x="8.9540" y="-0.1000" width="2.0661" height="0.2000" ry="0.1000" fill="currentColor"/>
</g>
<g transform="translate(8.5358, 55.6906)">
<line stroke-linejoin="round" stroke-linecap="round" stroke-width="0.1000" stroke="currentColor" x1="0.0500" y1="0" x2="64.5720" y2="0"/>
</g>
<g transform="translate(8.5358, 56.6906)">
<line stroke-linejoin="round" stroke-linecap="round" stroke-width="0.1000" stroke="currentColor" x1="0.0500" y1="0" x2="64.5720" y2="0"/>
</g>
<g transform="translate(8.5358, 57.6906)">
<line stroke-linejoin="round" stroke-linecap="round" stroke-width="0.1000" stroke="currentColor" x1="0.0500" y1="0" x2="64.5720" y2="0"/>
</g>
<g transform="translate(8.5358, 58.6906)">
<line stroke-linejoin="round" stroke-linecap="round" stroke-width="0.1000" stroke="currentColor" x1="0.0500" y1="0" x2="64.5720" y2="0"/>
</g>
<g transform="translate(8.5358, 59.6906)">
<line stroke-linejoin="round" stroke-linecap="round" stroke-width="0.1000" stroke="currentColor" x1="0.0500" y1="0" x2="64.5720" y2="0"/>
</g>
<g color="rgba(0.0000%, 0.0000%, 0.0000%, 100.0000%)">
<g transform="translate(8.5358, 57.6906)">
<line stroke-linejoin="round" stroke-linecap="round" stroke-width="0.1200" stroke="currentColor" x1="0.0500" y1="-5.0000" x2="64.5720" y2="-5.0000"/>
</g>
</g>
<g color="rgba(0.0000%, 0.0000%, 0.0000%, 100.0000%)">
<g transform="translate(8.5358, 57.6906)">
<line stroke-linejoin="round" stroke-linecap="round" stroke-width="0.1200" stroke="currentColor" x1="0.0500" y1="-4.0000" x2="64.5720" y2="-4.0000"/>
</g>
</g>
<g color="rgba(0.0000%, 0.0000%, 0.0000%, 100.0000%)">
<g transform="translate(8.5358, 57.6906)">
<line stroke-linejoin="round" stroke-linecap="round" stroke-width="0.1200" stroke="currentColor" x1="0.0500" y1="-3.0000" x2="64.5720" y2="-3.0000"/>
</g>
</g>
<g transform="translate(56.0112, 43.6906)">
<rect x="-0.0650" y="-1.5000" width="0.1300" height="3.3138" ry="0.0400" fill="currentColor"/>
</g>
<a style="color:inherit;" xlink:href="textedit://C:/Users/grego/AppData/Local/Temp/lilypond-intavolatura-MeruloI-Itone-02/a-stage5.ly:586:18:19">
<g transform="translate(47.3636, 45.6906)">
<path transform="scale(0.0040, -0.0040)" d="M217 136c56 0 109 -27 109 -89c0 -18 -5 -38 -13 -55c-31 -66 -113 -128 -204 -128c-56 0 -109 27 -109 89c0 18 5 38 13 55c31 66 113 128 204 128z" fill="currentColor"/>
</g>
</a>
<g transform="translate(48.6028, 43.6906)">
<rect x="-0.0650" y="-1.5000" width="0.1300" height="3.3138" ry="0.0400" fill="currentColor"/>
</g>
<a style="color:inherit;" xlink:href="textedit://C:/Users/grego/AppData/Local/Temp/lilypond-intavolatura-MeruloI-Itone-02/a-stage5.ly:586:23:24">
<g transform="translate(51.0678, 45.1906)">
<path transform="scale(0.0040, -0.0040)" d="M217 136c56 0 109 -27 109 -89c0 -18 -5 -38 -13 -55c-31 -66 -113 -128 -204 -128c-56 0 -109 27 -109 89c0 18 5 38 13 55c31 66 113 128 204 128z" fill="currentColor"/>
</g>
</a>
<a style="color:inherit;" xlink:href="textedit://C:/Users/grego/AppData/Local/Temp/lilypond-intavolatura-MeruloI-Itone-02/a-stage5.ly:692:13:14">
<g transform="translate(51.0678, 55.1906)">
<path transform="scale(0.0040, -0.0040)" d="M217 136c56 0 109 -27 109 -89c0 -18 -5 -38 -13 -55c-31 -66 -113 -128 -204 -128c-56 0 -109 27 -109 89c0 18 5 38 13 55c31 66 113 128 204 128z" fill="currentColor"/>
</g>
</a>
<g transform="translate(52.3070, 43.6906)">
<rect x="-0.0650" y="-1.5000" width="0.1300" height="2.8138" ry="0.0400" fill="currentColor"/>
</g>
<g transform="translate(52.3070, 57.6906)">
<rect x="-0.0650" y="-5.0000" width="0.1300" height="2.3138" ry="0.0400" fill="currentColor"/>
</g>
<a style="color:inherit;" xlink:href="textedit://C:/Users/grego/AppData/Local/Temp/lilypond-intavolatura-MeruloI-Itone-02/a-stage5.ly:586:26:27">
<g transform="translate(54.7720, 45.6906)">
<path transform="scale(0.0040, -0.0040)" d="M217 136c56 0 109 -27 109 -89c0 -18 -5 -38 -13 -55c-31 -66 -113 -128 -204 -128c-56 0 -109 27 -109 89c0 18 5 38 13 55c31 66 113 128 204 128z" fill="currentColor"/>
</g>
</a>
<g transform="translate(39.9944, 43.6906)">
<rect x="-0.0650" y="-1.5000" width="0.1300" height="3.3138" ry="0.0400" fill="currentColor"/>
</g>
<g transform="translate(39.9944, 57.6906)">
<rect x="-0.0650" y="-5.5000" width="0.1300" height="2.3138" ry="0.0400" fill="currentColor"/>
</g>
<g transform="translate(38.8202, 57.6906)">
<rect x="-0.0650" y="-1.2410" width="0.1300" height="3.2410" ry="0.0400" fill="currentColor"/>
</g>
<g transform="translate(38.8202, 57.6906)">
<rect x="-0.0650" y="0.7590" width="0.1300" height="2.9077" ry="0.0400" fill="currentColor"/>
</g>
<a style="color:inherit;" xlink:href="textedit://C:/Users/grego/AppData/Local/Temp/lilypond-intavolatura-MeruloI-Itone-02/a-stage5.ly:586:13:14">
<g transform="translate(43.6594, 45.1906)">
<path transform="scale(0.0040, -0.0040)" d="M217 136c56 0 109 -27 109 -89c0 -18 -5 -38 -13 -55c-31 -66 -113 -128 -204 -128c-56 0 -109 27 -109 89c0 18 5 38 13 55c31 66 113 128 204 128z" fill="currentColor"/>
</g>
</a>
<g transform="translate(44.8986, 43.6906)">
<rect x="-0.0650" y="-1.5000" width="0.1300" height="2.8138" ry="0.0400" fill="currentColor"/>
</g>
<g transform="translate(67.0928, 57.6906)">
<rect x="-0.0650" y="-4.6667" width="0.1300" height="2.4077" ry="0.0400" fill="currentColor"/>
</g>
<g transform="translate(65.8454, 57.6906)">
<rect x="-0.0650" y="-0.7410" width="0.1300" height="3.2410" ry="0.0400" fill="currentColor"/>
</g>
<g transform="translate(67.0928, 43.6906)">
<rect x="-0.0650" y="-2.0000" width="0.1300" height="3.2410" ry="0.0400" fill="currentColor"/>
</g>
<g transform="translate(65.8454, 57.6906)">
<rect x="-0.0650" y="0.2590" width="0.1300" height="3.0743" ry="0.0400" fill="currentColor"/>
</g>
<a style="color:inherit;" xlink:href="textedit://C:/Users/grego/AppData/Local/Temp/lilypond-intavolatura-MeruloI-Itone-02/a-stage5.ly:692:7:8">
<g transform="translate(17.8342, 57.6906)">
<path stroke-width="0.0800" stroke-linejoin="round" stroke-linecap="round" stroke="currentColor" fill="currentColor" d="M1.7124 -3.7500C3.2329 -4.7483 19.8526 -4.7483 21.3731 -3.7500L21.3731 -3.7500C19.8526 -4.6283 3.2329 -4.6283 1.7124 -3.7500z"/>
</g>
</a>
<a style="color:inherit;" xlink:href="textedit://C:/Users/grego/AppData/Local/Temp/lilypond-intavolatura-MeruloI-Itone-02/a-stage5.ly:703:8:9">
<g transform="translate(17.8342, 57.6906)">
<path stroke-width="0.0800" stroke-linejoin="round" stroke-linecap="round" stroke="currentColor" fill="currentColor" d="M0.8887 1.5949C2.4099 2.5934 19.0648 2.5934 20.5860 1.5949L20.5860 1.5949C19.0648 2.4734 2.4099 2.4734 0.8887 1.5949z"/>
</g>
</a>
<a style="color:inherit;" xlink:href="textedit://C:/Users/grego/AppData/Local/Temp/lilypond-intavolatura-MeruloI-Itone-02/a-stage5.ly:585:12:13">
<g transform="translate(25.1126, 42.1906)">
<polygon stroke-linejoin="round" stroke-linecap="round" stroke-width="0.0800" fill="currentColor" stroke="currentColor" points="11.2026 -0.2000 11.2026 0.2000 0.0400 0.2000 0.0400 -0.2000"/>
</g>
<g transform="translate(25.1126, 43.0006)">
<polygon stroke-linejoin="round" stroke-linecap="round" stroke-width="0.0800" fill="currentColor" stroke="currentColor" points="11.2026 -0.2000 11.2026 0.2000 0.0400 0.2000 0.0400 -0.2000"/>
</g>
</a>
<a style="color:inherit;" xlink:href="textedit://C:/Users/grego/AppData/Local/Temp/lilypond-intavolatura-MeruloI-Itone-02/a-stage5.ly:586:11:12">
<g transform="translate(39.9294, 42.1906)">
<polygon stroke-linejoin="round" stroke-linecap="round" stroke-width="0.0800" fill="currentColor" stroke="currentColor" points="23.5152 -0.2000 23.5152 0.2000 0.0400 0.2000 0.0400 -0.2000"/>
</g>
<g transform="translate(44.8336, 43.0006)">
<polygon stroke-linejoin="round" stroke-linecap="round" stroke-width="0.0800" fill="currentColor" stroke="currentColor" points="18.6110 -0.2000 18.6110 0.2000 0.0400 0.2000 0.0400 -0.2000"/>
</g>
</a>
<a style="color:inherit;" xlink:href="textedit://C:/Users/grego/AppData/Local/Temp/lilypond-intavolatura-MeruloI-Itone-02/a-stage5.ly:586:31:32">
<g transform="translate(58.4762, 46.1906)">
<path transform="scale(0.0040, -0.0040)" d="M217 136c56 0 109 -27 109 -89c0 -18 -5 -38 -13 -55c-31 -66 -113 -128 -204 -128c-56 0 -109 27 -109 89c0 18 5 38 13 55c31 66 113 128 204 128z" fill="currentColor"/>
</g>
</a>
<g transform="translate(59.7154, 43.6906)">
<rect x="-0.0650" y="-1.5000" width="0.1300" height="3.8138" ry="0.0400" fill="currentColor"/>
</g>
<g transform="translate(57.0262, 46.1906)">
<path transform="scale(0.0040, -0.0040)" d="M0 119c0 8 5 15 13 18l46 17v158c0 10 8 19 18 19s19 -9 19 -19v-145l83 31v158c0 10 9 19 19 19s18 -9 18 -19v-145l32 12c2 1 5 1 7 1c11 0 20 -9 20 -20v-60c0 -8 -5 -16 -13 -19l-46 -16v-160l32 11c2 1 5 1 7 1c11 0 20 -9 20 -20v-60c0 -8 -5 -15 -13 -18l-46 -17
v-158c0 -10 -8 -19 -18 -19s-19 9 -19 19v145l-83 -31v-158c0 -10 -9 -19 -19 -19s-18 9 -18 19v145l-32 -12c-2 -1 -5 -1 -7 -1c-11 0 -20 9 -20 20v60c0 8 5 16 13 19l46 16v160l-32 -11c-2 -1 -5 -1 -7 -1c-11 0 -20 9 -20 20v60zM179 95l-83 -30v-160l83 30v160z" fill="currentColor"/>
</g>
<a style="color:inherit;" xlink:href="textedit://C:/Users/grego/AppData/Local/Temp/lilypond-intavolatura-MeruloI-Itone-02/a-stage5.ly:586:36:37">
<g transform="translate(62.1804, 45.6906)">
<path transform="scale(0.0040, -0.0040)" d="M217 136c56 0 109 -27 109 -89c0 -18 -5 -38 -13 -55c-31 -66 -113 -128 -204 -128c-56 0 -109 27 -109 89c0 18 5 38 13 55c31 66 113 128 204 128z" fill="currentColor"/>
</g>
</a>
<g transform="translate(63.4196, 43.6906)">
<rect x="-0.0650" y="-1.5000" width="0.1300" height="3.3138" ry="0.0400" fill="currentColor"/>
</g>
<a style="color:inherit;" xlink:href="textedit://C:/Users/grego/AppData/Local/Temp/lilypond-intavolatura-MeruloI-Itone-02/a-stage5.ly:602:4:5">
<g transform="translate(65.7804, 45.1906)">
<path transform="scale(0.0040, -0.0040)" d="M303 37c7 9 11 18 11 27c0 22 -20 42 -43 42c-4 0 -7 0 -11 -1c-31 -9 -78 -40 -115 -64s-84 -53 -104 -78c-7 -9 -10 -18 -10 -27c0 -22 20 -42 43 -42c4 0 7 0 11 1c31 9 77 40 114 64s84 53 104 78zM262 136c46 0 82 -21 82 -71c0 -19 -4 -39 -10 -57
c-12 -37 -32 -72 -64 -94c-53 -36 -113 -50 -187 -50c-46 0 -83 21 -83 71c0 19 5 39 11 57c12 37 31 72 63 94c53 36 114 50 188 50z" fill="currentColor"/>
</g>
</a>
<a style="color:inherit;" xlink:href="textedit://C:/Users/grego/AppData/Local/Temp/lilypond-intavolatura-MeruloI-Itone-02/a-stage5.ly:692:16:17">
<g transform="translate(65.7804, 55.6906)">
<path transform="scale(0.0040, -0.0040)" d="M303 37c7 9 11 18 11 27c0 22 -20 42 -43 42c-4 0 -7 0 -11 -1c-31 -9 -78 -40 -115 -64s-84 -53 -104 -78c-7 -9 -10 -18 -10 -27c0 -22 20 -42 43 -42c4 0 7 0 11 1c31 9 77 40 114 64s84 53 104 78zM262 136c46 0 82 -21 82 -71c0 -19 -4 -39 -10 -57
c-12 -37 -32 -72 -64 -94c-53 -36 -113 -50 -187 -50c-46 0 -83 21 -83 71c0 19 5 39 11 57c12 37 31 72 63 94c53 36 114 50 188 50z" fill="currentColor"/>
</g>
</a>
<a style="color:inherit;" xlink:href="textedit://C:/Users/grego/AppData/Local/Temp/lilypond-intavolatura-MeruloI-Itone-02/a-stage5.ly:698:13:14">
<g transform="translate(65.7804, 56.6906)">
<path transform="scale(0.0040, -0.0040)" d="M303 37c7 9 11 18 11 27c0 22 -20 42 -43 42c-4 0 -7 0 -11 -1c-31 -9 -78 -40 -115 -64s-84 -53 -104 -78c-7 -9 -10 -18 -10 -27c0 -22 20 -42 43 -42c4 0 7 0 11 1c31 9 77 40 114 64s84 53 104 78zM262 136c46 0 82 -21 82 -71c0 -19 -4 -39 -10 -57
c-12 -37 -32 -72 -64 -94c-53 -36 -113 -50 -187 -50c-46 0 -83 21 -83 71c0 19 5 39 11 57c12 37 31 72 63 94c53 36 114 50 188 50z" fill="currentColor"/>
</g>
</a>
<a style="color:inherit;" xlink:href="textedit://C:/Users/grego/AppData/Local/Temp/lilypond-intavolatura-MeruloI-Itone-02/a-stage5.ly:705:6:7">
<g transform="translate(65.7804, 57.6906)">
<path transform="scale(0.0040, -0.0040)" d="M303 37c7 9 11 18 11 27c0 22 -20 42 -43 42c-4 0 -7 0 -11 -1c-31 -9 -78 -40 -115 -64s-84 -53 -104 -78c-7 -9 -10 -18 -10 -27c0 -22 20 -42 43 -42c4 0 7 0 11 1c31 9 77 40 114 64s84 53 104 78zM262 136c46 0 82 -21 82 -71c0 -19 -4 -39 -10 -57
c-12 -37 -32 -72 -64 -94c-53 -36 -113 -50 -187 -50c-46 0 -83 21 -83 71c0 19 5 39 11 57c12 37 31 72 63 94c53 36 114 50 188 50z" fill="currentColor"/>
</g>
</a>
<a style="color:inherit;" xlink:href="textedit://C:/Users/grego/AppData/Local/Temp/lilypond-intavolatura-MeruloI-Itone-02/a-stage5.ly:703:6:7">
<g transform="translate(17.8342, 58.1906)">
<path transform="scale(0.0040, -0.0040)" d="M303 37c7 9 11 18 11 27c0 22 -20 42 -43 42c-4 0 -7 0 -11 -1c-31 -9 -78 -40 -115 -64s-84 -53 -104 -78c-7 -9 -10 -18 -10 -27c0 -22 20 -42 43 -42c4 0 7 0 11 1c31 9 77 40 114 64s84 53 104 78zM262 136c46 0 82 -21 82 -71c0 -19 -4 -39 -10 -57
c-12 -37 -32 -72 -64 -94c-53 -36 -113 -50 -187 -50c-46 0 -83 21 -83 71c0 19 5 39 11 57c12 37 31 72 63 94c53 36 114 50 188 50z" fill="currentColor"/>
</g>
</a>
<a style="color:inherit;" xlink:href="textedit://C:/Users/grego/AppData/Local/Temp/lilypond-intavolatura-MeruloI-Itone-02/a-stage5.ly:584:6:7">
<g transform="translate(17.8342, 45.1906)">
<path transform="scale(0.0040, -0.0040)" d="M217 136c56 0 109 -27 109 -89c0 -18 -5 -38 -13 -55c-31 -66 -113 -128 -204 -128c-56 0 -109 27 -109 89c0 18 5 38 13 55c31 66 113 128 204 128z" fill="currentColor"/>
</g>
</a>
<a style="color:inherit;" xlink:href="textedit://C:/Users/grego/AppData/Local/Temp/lilypond-intavolatura-MeruloI-Itone-02/a-stage5.ly:692:4:5">
<g transform="translate(17.8342, 54.6906)">
<path transform="scale(0.0040, -0.0040)" d="M303 37c7 9 11 18 11 27c0 22 -20 42 -43 42c-4 0 -7 0 -11 -1c-31 -9 -78 -40 -115 -64s-84 -53 -104 -78c-7 -9 -10 -18 -10 -27c0 -22 20 -42 43 -42c4 0 7 0 11 1c31 9 77 40 114 64s84 53 104 78zM262 136c46 0 82 -21 82 -71c0 -19 -4 -39 -10 -57
c-12 -37 -32 -72 -64 -94c-53 -36 -113 -50 -187 -50c-46 0 -83 21 -83 71c0 19 5 39 11 57c12 37 31 72 63 94c53 36 114 50 188 50z" fill="currentColor"/>
</g>
</a>
<a style="color:inherit;" xlink:href="textedit://C:/Users/grego/AppData/Local/Temp/lilypond-intavolatura-MeruloI-Itone-02/a-stage5.ly:698:6:7">
<g transform="translate(17.8342, 55.6906)">
<path transform="scale(0.0040, -0.0040)" d="M303 37c7 9 11 18 11 27c0 22 -20 42 -43 42c-4 0 -7 0 -11 -1c-31 -9 -78 -40 -115 -64s-84 -53 -104 -78c-7 -9 -10 -18 -10 -27c0 -22 20 -42 43 -42c4 0 7 0 11 1c31 9 77 40 114 64s84 53 104 78zM262 136c46 0 82 -21 82 -71c0 -19 -4 -39 -10 -57
c-12 -37 -32 -72 -64 -94c-53 -36 -113 -50 -187 -50c-46 0 -83 21 -83 71c0 19 5 39 11 57c12 37 31 72 63 94c53 36 114 50 188 50z" fill="currentColor"/>
</g>
</a>
<g transform="translate(19.0734, 43.6906)">
<rect x="-0.0650" y="-2.0000" width="0.1300" height="3.3138" ry="0.0400" fill="currentColor"/>
</g>
<g transform="translate(19.1466, 57.6906)">
<rect x="-0.0650" y="-5.5000" width="0.1300" height="2.2410" ry="0.0400" fill="currentColor"/>
</g>
<a style="color:inherit;" xlink:href="textedit://C:/Users/grego/AppData/Local/Temp/lilypond-intavolatura-MeruloI-Itone-02/a-stage5.ly:704:6:7">
<g transform="translate(38.7552, 58.1906)">
<path transform="scale(0.0040, -0.0040)" d="M303 37c7 9 11 18 11 27c0 22 -20 42 -43 42c-4 0 -7 0 -11 -1c-31 -9 -78 -40 -115 -64s-84 -53 -104 -78c-7 -9 -10 -18 -10 -27c0 -22 20 -42 43 -42c4 0 7 0 11 1c31 9 77 40 114 64s84 53 104 78zM262 136c46 0 82 -21 82 -71c0 -19 -4 -39 -10 -57
c-12 -37 -32 -72 -64 -94c-53 -36 -113 -50 -187 -50c-46 0 -83 21 -83 71c0 19 5 39 11 57c12 37 31 72 63 94c53 36 114 50 188 50z" fill="currentColor"/>
</g>
</a>
<g transform="translate(17.8992, 57.6906)">
<rect x="-0.0650" y="-1.7410" width="0.1300" height="3.2410" ry="0.0400" fill="currentColor"/>
</g>
<g transform="scale(0.5000, 0.5000)">
<g transform="translate(18.6717, 89.3811)">
<path transform="scale(0.0040, -0.0040)" d="M266 -635h-6c-108 0 -195 88 -195 197c0 58 53 103 112 103c54 0 95 -47 95 -103c0 -52 -43 -95 -95 -95c-11 0 -21 2 -31 6c26 -39 68 -65 117 -65h4zM401 151c24 -116 46 -231 60 -354c77 27 112 92 112 160c0 90 -62 183 -172 194zM74 28c0 -135 129 -247 264 -247
c28 0 55 2 82 6c-14 127 -37 245 -63 364c-79 -8 -124 -61 -124 -119c0 -44 25 -91 81 -123c5 -5 7 -10 7 -15c0 -11 -10 -22 -22 -22c-3 0 -6 1 -9 2c-80 43 -117 115 -117 185c0 88 58 174 160 197c-14 58 -29 117 -46 175c-107 -121 -213 -243 -213 -403zM250 553
c-29 96 -52 193 -52 310c0 142 40 249 149 328c3 2 7 3 10 3c4 0 7 0 10 -3c71 -84 133 -245 133 -358c0 -143 -86 -255 -180 -364c21 -68 39 -138 56 -207c5 0 10 1 14 1c155 0 255 -129 255 -261c0 -76 -33 -155 -107 -210c-22 -17 -47 -28 -73 -36c3 -35 5 -70 5 -105
c0 -19 -1 -39 -2 -58c-7 -119 -88 -225 -202 -228l1 43c93 2 153 92 159 191c1 18 2 37 2 55c0 31 -1 61 -4 92c-29 -5 -58 -8 -89 -8c-188 0 -333 172 -333 374c0 177 131 306 248 441zM247 780c0 -71 17 -129 35 -188c80 97 147 200 147 327c0 39 -7 82 -21 126
c-104 -50 -161 -146 -161 -265z" fill="currentColor"/>
</g>
</g>
<g transform="scale(0.4500, 0.4500)">
<g transform="translate(20.7463, 103.7568)">
<path transform="scale(0.0040, -0.0040)" d="M318 0c0 -33 7 -73 45 -73c29 0 57 31 88 31c123 0 229 -89 229 -208c0 -169 -93 -250 -265 -250c-83 0 -152 61 -152 142c0 42 34 77 76 77s76 -35 76 -77c0 -39 -49 -37 -49 -76c0 -23 24 -38 49 -38c116 0 140 90 140 222c0 106 -12 180 -104 180
c-72 0 -119 -71 -119 -149c0 -9 -7 -14 -14 -14s-13 5 -13 14c0 76 -31 147 -84 200v-471c0 -6 -4 -10 -10 -10h-21c-6 0 -10 4 -10 10v980c0 6 4 10 10 10h21c6 0 10 -4 10 -10v-471c53 53 84 124 84 200c0 9 6 14 13 14s14 -5 14 -14c0 -78 47 -149 119 -149
c92 0 104 74 104 180c0 132 -24 222 -140 222c-25 0 -49 -15 -49 -38c0 -39 49 -37 49 -76c0 -42 -34 -77 -76 -77s-76 35 -76 77c0 81 69 142 152 142c172 0 265 -81 265 -250c0 -119 -106 -208 -229 -208c-31 0 -59 31 -88 31c-38 0 -45 -40 -45 -73zM129 -500h-119
c-6 0 -10 4 -10 10v980c0 6 4 10 10 10h119c6 0 10 -4 10 -10v-980c0 -6 -4 -10 -10 -10z" fill="currentColor"/>
</g>
</g>
<g transform="translate(8.4758, 51.1906)">
<rect x="0.0000" y="-8.5500" width="0.1600" height="17.1000" ry="0.0500" fill="currentColor"/>
</g>
<a style="color:inherit;" xlink:href="textedit://C:/Users/grego/AppData/Local/Temp/lilypond-intavolatura-MeruloI-Itone-02/a-stage5.ly:583:9:10">
<g transform="translate(8.5358, 43.6906)">
<path stroke-width="0.0800" stroke-linejoin="round" stroke-linecap="round" stroke="currentColor" fill="currentColor" d="M6.9984 0.7750C7.6132 0.1015 9.1356 0.1015 9.7505 0.7750L9.7505 0.7750C9.1356 0.2215 7.6132 0.2215 6.9984 0.7750z"/>
</g>
</a>
<g transform="translate(12.0342, 41.6906)">
<path transform="scale(0.0040, -0.0040)" d="M0 119c0 8 5 15 13 18l46 17v158c0 10 8 19 18 19s19 -9 19 -19v-145l83 31v158c0 10 9 19 19 19s18 -9 18 -19v-145l32 12c2 1 5 1 7 1c11 0 20 -9 20 -20v-60c0 -8 -5 -16 -13 -19l-46 -16v-160l32 11c2 1 5 1 7 1c11 0 20 -9 20 -20v-60c0 -8 -5 -15 -13 -18l-46 -17
v-158c0 -10 -8 -19 -18 -19s-19 9 -19 19v145l-83 -31v-158c0 -10 -9 -19 -19 -19s-18 9 -18 19v145l-32 -12c-2 -1 -5 -1 -7 -1c-11 0 -20 9 -20 20v60c0 8 5 16 13 19l46 16v160l-32 -11c-2 -1 -5 -1 -7 -1c-11 0 -20 9 -20 20v60zM179 95l-83 -30v-160l83 30v160z" fill="currentColor"/>
</g>
<g transform="translate(13.1342, 43.1906)">
<path transform="scale(0.0040, -0.0040)" d="M0 119c0 8 5 15 13 18l46 17v158c0 10 8 19 18 19s19 -9 19 -19v-145l83 31v158c0 10 9 19 19 19s18 -9 18 -19v-145l32 12c2 1 5 1 7 1c11 0 20 -9 20 -20v-60c0 -8 -5 -16 -13 -19l-46 -16v-160l32 11c2 1 5 1 7 1c11 0 20 -9 20 -20v-60c0 -8 -5 -15 -13 -18l-46 -17
v-158c0 -10 -8 -19 -18 -19s-19 9 -19 19v145l-83 -31v-158c0 -10 -9 -19 -19 -19s-18 9 -18 19v145l-32 -12c-2 -1 -5 -1 -7 -1c-11 0 -20 9 -20 20v60c0 8 5 16 13 19l46 16v160l-32 -11c-2 -1 -5 -1 -7 -1c-11 0 -20 9 -20 20v60zM179 95l-83 -30v-160l83 30v160z" fill="currentColor"/>
</g>
<g transform="translate(14.2342, 41.1906)">
<path transform="scale(0.0040, -0.0040)" d="M0 119c0 8 5 15 13 18l46 17v158c0 10 8 19 18 19s19 -9 19 -19v-145l83 31v158c0 10 9 19 19 19s18 -9 18 -19v-145l32 12c2 1 5 1 7 1c11 0 20 -9 20 -20v-60c0 -8 -5 -16 -13 -19l-46 -16v-160l32 11c2 1 5 1 7 1c11 0 20 -9 20 -20v-60c0 -8 -5 -15 -13 -18l-46 -17
v-158c0 -10 -8 -19 -18 -19s-19 9 -19 19v145l-83 -31v-158c0 -10 -9 -19 -19 -19s-18 9 -18 19v145l-32 -12c-2 -1 -5 -1 -7 -1c-11 0 -20 9 -20 20v60c0 8 5 16 13 19l46 16v160l-32 -11c-2 -1 -5 -1 -7 -1c-11 0 -20 9 -20 20v60zM179 95l-83 -30v-160l83 30v160z" fill="currentColor"/>
</g>
<g transform="scale(0.7000, 0.7000)">
<g transform="translate(13.3369, 80.9865)">
<path transform="scale(0.0040, -0.0040)" d="M557 -125c0 28 23 51 51 51s51 -23 51 -51s-23 -51 -51 -51s-51 23 -51 51zM557 125c0 28 23 51 51 51s51 -23 51 -51s-23 -51 -51 -51s-51 23 -51 51zM232 263c172 0 293 -88 293 -251c0 -263 -263 -414 -516 -521c-3 -3 -6 -4 -9 -4c-7 0 -13 6 -13 13c0 3 1 6 4 9
c202 118 412 265 412 493c0 120 -63 235 -171 235c-74 0 -129 -54 -154 -126c11 5 22 8 34 8c55 0 100 -45 100 -100c0 -58 -44 -106 -100 -106c-60 0 -112 47 -112 106c0 133 102 244 232 244z" fill="currentColor"/>
</g>
</g>
<g transform="scale(0.4500, 0.4500)">
<g transform="translate(20.7463, 121.5346)">
<path transform="scale(0.0040, -0.0040)" d="M318 0c0 -33 7 -73 45 -73c29 0 57 31 88 31c123 0 229 -89 229 -208c0 -169 -93 -250 -265 -250c-83 0 -152 61 -152 142c0 42 34 77 76 77s76 -35 76 -77c0 -39 -49 -37 -49 -76c0 -23 24 -38 49 -38c116 0 140 90 140 222c0 106 -12 180 -104 180
c-72 0 -119 -71 -119 -149c0 -9 -7 -14 -14 -14s-13 5 -13 14c0 76 -31 147 -84 200v-471c0 -6 -4 -10 -10 -10h-21c-6 0 -10 4 -10 10v980c0 6 4 10 10 10h21c6 0 10 -4 10 -10v-471c53 53 84 124 84 200c0 9 6 14 13 14s14 -5 14 -14c0 -78 47 -149 119 -149
c92 0 104 74 104 180c0 132 -24 222 -140 222c-25 0 -49 -15 -49 -38c0 -39 49 -37 49 -76c0 -42 -34 -77 -76 -77s-76 35 -76 77c0 81 69 142 152 142c172 0 265 -81 265 -250c0 -119 -106 -208 -229 -208c-31 0 -59 31 -88 31c-38 0 -45 -40 -45 -73zM129 -500h-119
c-6 0 -10 4 -10 10v980c0 6 4 10 10 10h119c6 0 10 -4 10 -10v-980c0 -6 -4 -10 -10 -10z" fill="currentColor"/>
</g>
</g>
<g transform="translate(12.0342, 56.6906)">
<path transform="scale(0.0040, -0.0040)" d="M0 119c0 8 5 15 13 18l46 17v158c0 10 8 19 18 19s19 -9 19 -19v-145l83 31v158c0 10 9 19 19 19s18 -9 18 -19v-145l32 12c2 1 5 1 7 1c11 0 20 -9 20 -20v-60c0 -8 -5 -16 -13 -19l-46 -16v-160l32 11c2 1 5 1 7 1c11 0 20 -9 20 -20v-60c0 -8 -5 -15 -13 -18l-46 -17
v-158c0 -10 -8 -19 -18 -19s-19 9 -19 19v145l-83 -31v-158c0 -10 -9 -19 -19 -19s-18 9 -18 19v145l-32 -12c-2 -1 -5 -1 -7 -1c-11 0 -20 9 -20 20v60c0 8 5 16 13 19l46 16v160l-32 -11c-2 -1 -5 -1 -7 -1c-11 0 -20 9 -20 20v60zM179 95l-83 -30v-160l83 30v160z" fill="currentColor"/>
</g>
<g transform="translate(13.1342, 58.1906)">
<path transform="scale(0.0040, -0.0040)" d="M0 119c0 8 5 15 13 18l46 17v158c0 10 8 19 18 19s19 -9 19 -19v-145l83 31v158c0 10 9 19 19 19s18 -9 18 -19v-145l32 12c2 1 5 1 7 1c11 0 20 -9 20 -20v-60c0 -8 -5 -16 -13 -19l-46 -16v-160l32 11c2 1 5 1 7 1c11 0 20 -9 20 -20v-60c0 -8 -5 -15 -13 -18l-46 -17
v-158c0 -10 -8 -19 -18 -19s-19 9 -19 19v145l-83 -31v-158c0 -10 -9 -19 -19 -19s-18 9 -18 19v145l-32 -12c-2 -1 -5 -1 -7 -1c-11 0 -20 9 -20 20v60c0 8 5 16 13 19l46 16v160l-32 -11c-2 -1 -5 -1 -7 -1c-11 0 -20 9 -20 20v60zM179 95l-83 -30v-160l83 30v160z" fill="currentColor"/>
</g>
<g transform="translate(14.2342, 56.1906)">
<path transform="scale(0.0040, -0.0040)" d="M0 119c0 8 5 15 13 18l46 17v158c0 10 8 19 18 19s19 -9 19 -19v-145l83 31v158c0 10 9 19 19 19s18 -9 18 -19v-145l32 12c2 1 5 1 7 1c11 0 20 -9 20 -20v-60c0 -8 -5 -16 -13 -19l-46 -16v-160l32 11c2 1 5 1 7 1c11 0 20 -9 20 -20v-60c0 -8 -5 -15 -13 -18l-46 -17
v-158c0 -10 -8 -19 -18 -19s-19 9 -19 19v145l-83 -31v-158c0 -10 -9 -19 -19 -19s-18 9 -18 19v145l-32 -12c-2 -1 -5 -1 -7 -1c-11 0 -20 9 -20 20v60c0 8 5 16 13 19l46 16v160l-32 -11c-2 -1 -5 -1 -7 -1c-11 0 -20 9 -20 20v60zM179 95l-83 -30v-160l83 30v160z" fill="currentColor"/>
</g>
<g transform="translate(7.6481, 41.6167)">
<text font-family="serif" font-size="1.7459" text-anchor="start" fill="currentColor">
<tspan>7</tspan>
</text>
</g>
<a style="color:inherit;" xlink:href="textedit://C:/Users/grego/AppData/Local/Temp/lilypond-intavolatura-MeruloI-Itone-02/a-stage5.ly:585:14:15">
<g transform="translate(27.6426, 45.1906)">
<path transform="scale(0.0040, -0.0040)" d="M217 136c56 0 109 -27 109 -89c0 -18 -5 -38 -13 -55c-31 -66 -113 -128 -204 -128c-56 0 -109 27 -109 89c0 18 5 38 13 55c31 66 113 128 204 128z" fill="currentColor"/>
</g>
</a>
<a style="color:inherit;" xlink:href="textedit://C:/Users/grego/AppData/Local/Temp/lilypond-intavolatura-MeruloI-Itone-02/a-stage5.ly:585:17:18">
<g transform="translate(31.3468, 45.6906)">
<path transform="scale(0.0040, -0.0040)" d="M217 136c56 0 109 -27 109 -89c0 -18 -5 -38 -13 -55c-31 -66 -113 -128 -204 -128c-56 0 -109 27 -109 89c0 18 5 38 13 55c31 66 113 128 204 128z" fill="currentColor"/>
</g>
</a>
<g transform="translate(32.5860, 43.6906)">
<rect x="-0.0650" y="-1.5000" width="0.1300" height="3.3138" ry="0.0400" fill="currentColor"/>
</g>
<g transform="translate(28.8818, 43.6906)">
<rect x="-0.0650" y="-1.5000" width="0.1300" height="2.8138" ry="0.0400" fill="currentColor"/>
</g>
<a style="color:inherit;" xlink:href="textedit://C:/Users/grego/AppData/Local/Temp/lilypond-intavolatura-MeruloI-Itone-02/a-stage5.ly:585:22:23">
<g transform="translate(35.0510, 45.1906)">
<path transform="scale(0.0040, -0.0040)" d="M217 136c56 0 109 -27 109 -89c0 -18 -5 -38 -13 -55c-31 -66 -113 -128 -204 -128c-56 0 -109 27 -109 89c0 18 5 38 13 55c31 66 113 128 204 128z" fill="currentColor"/>
</g>
</a>
<g transform="translate(36.2902, 43.6906)">
<rect x="-0.0650" y="-1.5000" width="0.1300" height="2.8138" ry="0.0400" fill="currentColor"/>
</g>
<a style="color:inherit;" xlink:href="textedit://C:/Users/grego/AppData/Local/Temp/lilypond-intavolatura-MeruloI-Itone-02/a-stage5.ly:586:6:7">
<g transform="translate(38.7552, 45.6906)">
<path transform="scale(0.0040, -0.0040)" d="M217 136c56 0 109 -27 109 -89c0 -18 -5 -38 -13 -55c-31 -66 -113 -128 -204 -128c-56 0 -109 27 -109 89c0 18 5 38 13 55c31 66 113 128 204 128z" fill="currentColor"/>
</g>
</a>
<a style="color:inherit;" xlink:href="textedit://C:/Users/grego/AppData/Local/Temp/lilypond-intavolatura-MeruloI-Itone-02/a-stage5.ly:692:9:10">
<g transform="translate(38.7552, 54.6906)">
<path transform="scale(0.0040, -0.0040)" d="M217 136c56 0 109 -27 109 -89c0 -18 -5 -38 -13 -55c-31 -66 -113 -128 -204 -128c-56 0 -109 27 -109 89c0 18 5 38 13 55c31 66 113 128 204 128z" fill="currentColor"/>
</g>
</a>
<a style="color:inherit;" xlink:href="textedit://C:/Users/grego/AppData/Local/Temp/lilypond-intavolatura-MeruloI-Itone-02/a-stage5.ly:698:10:11">
<g transform="translate(38.7552, 56.1906)">
<path transform="scale(0.0040, -0.0040)" d="M303 37c7 9 11 18 11 27c0 22 -20 42 -43 42c-4 0 -7 0 -11 -1c-31 -9 -78 -40 -115 -64s-84 -53 -104 -78c-7 -9 -10 -18 -10 -27c0 -22 20 -42 43 -42c4 0 7 0 11 1c31 9 77 40 114 64s84 53 104 78zM262 136c46 0 82 -21 82 -71c0 -19 -4 -39 -10 -57
c-12 -37 -32 -72 -64 -94c-53 -36 -113 -50 -187 -50c-46 0 -83 21 -83 71c0 19 5 39 11 57c12 37 31 72 63 94c53 36 114 50 188 50z" fill="currentColor"/>
</g>
</a>
<a style="color:inherit;" xlink:href="textedit://C:/Users/grego/AppData/Local/Temp/lilypond-intavolatura-MeruloI-Itone-02/a-stage5.ly:585:6:7">
<g transform="translate(23.9384, 45.6906)">
<path transform="scale(0.0040, -0.0040)" d="M217 136c56 0 109 -27 109 -89c0 -18 -5 -38 -13 -55c-31 -66 -113 -128 -204 -128c-56 0 -109 27 -109 89c0 18 5 38 13 55c31 66 113 128 204 128z" fill="currentColor"/>
</g>
</a>
<g transform="translate(25.1776, 43.6906)">
<rect x="-0.0650" y="-1.5000" width="0.1300" height="3.3138" ry="0.0400" fill="currentColor"/>
</g>
<g transform="translate(17.8992, 57.6906)">
<rect x="-0.0650" y="0.7590" width="0.1300" height="2.9077" ry="0.0400" fill="currentColor"/>
</g>
<g transform="translate(22.4884, 45.6906)">
<path transform="scale(0.0040, -0.0040)" d="M0 119c0 8 5 15 13 18l46 17v158c0 10 8 19 18 19s19 -9 19 -19v-145l83 31v158c0 10 9 19 19 19s18 -9 18 -19v-145l32 12c2 1 5 1 7 1c11 0 20 -9 20 -20v-60c0 -8 -5 -16 -13 -19l-46 -16v-160l32 11c2 1 5 1 7 1c11 0 20 -9 20 -20v-60c0 -8 -5 -15 -13 -18l-46 -17
v-158c0 -10 -8 -19 -18 -19s-19 9 -19 19v145l-83 -31v-158c0 -10 -9 -19 -19 -19s-18 9 -18 19v145l-32 -12c-2 -1 -5 -1 -7 -1c-11 0 -20 9 -20 20v60c0 8 5 16 13 19l46 16v160l-32 -11c-2 -1 -5 -1 -7 -1c-11 0 -20 9 -20 20v60zM179 95l-83 -30v-160l83 30v160z" fill="currentColor"/>
</g>
</svg>
