<?xml version="1.0"?>
<svg version="1.1" xmlns="http://www.w3.org/2000/svg" viewBox="0 0 400 100" role="img" aria-label="The University of Iowa Organ Studio"><path fill="#FFCD00" d="M172.51,13.23h-1.73V25.69h1.73v4.54H163V25.69h1.73V13.23H163V8.77h9.51Z"/><path fill="#FFCD00" d="M185.29,30.23H178.4c-2.5,0-4.14-1.64-4.14-4.33V13.09a4,4,0,0,1,3.66-4.31,3.85,3.85,0,0,1,.48,0h6.89c2.5,0,4.13,1.67,4.13,4.32V25.87a4,4,0,0,1-3.62,4.35A4.34,4.34,0,0,1,185.29,30.23Zm-2-4.51V13.23h-3V25.69Z"/><path fill="#FFCD00" d="M192.13,13.24h-1.52V8.78h9v4.46h-1.7l1.55,10.31,3.21-14.79h4.57l3.43,14.79,1.25-10.31h-1.57V8.78h8.89v4.46h-1.48l-2.69,17h-7.25L205,17.58l-2.88,12.66h-7Z"/><path fill="#FFCD00" d="M217.67,25.69h1.63l3.25-16.92h9.72l3.21,16.92H237v4.54h-7.26L229.06,25h-3.61l-.65,5.22h-7.13Zm11-4.63-1.39-8.65-1.42,8.65Z"/><rect x="159" y="35.16" width="82" height="0.733" style="fill:#000000"/><path fill="#000000" d="M182.00390625,44.47453125C182.00390625,45.03442578125,181.90494921875,45.5253125,181.70703125,45.9471875C181.50911328125,46.3690625,181.22591015625,46.69458203125,180.857421875,46.92375C180.48893359375,47.15291796875,180.06640625,47.2675,179.58984375,47.2675C179.11848828125,47.2675,178.69791796875,47.15421875,178.328125,46.92765625C177.95833203125,46.70109375,177.671875,46.37752734375,177.46875,45.956953125C177.265625,45.53637890625,177.16276171875,45.05265625,177.16015625,44.50578125C177.16015625,44.50578125,177.16015625,44.22453125,177.16015625,44.22453125C177.16015625,43.66463671875,177.26106640625,43.171796875,177.462890625,42.746015625C177.66471484375,42.320234375,177.94987109375,41.99341015625,178.318359375,41.765546875C178.68684765625,41.53768359375,179.10807421875,41.42375,179.58203125,41.42375C180.05598828125,41.42375,180.47721484375,41.53768359375,180.845703125,41.765546875C181.21419140625,41.99341015625,181.49934765625,42.320234375,181.701171875,42.746015625C181.90299609375,43.171796875,182.00390625,43.66333203125,182.00390625,44.220625C182.00390625,44.220625,182.00390625,44.47453125,182.00390625,44.47453125Z M180.81640625,44.21671875C180.81640625,43.62036328125,180.70963671875,43.16723828125,180.49609375,42.85734375C180.28255078125,42.54744921875,179.97786328125,42.3925,179.58203125,42.3925C179.18880078125,42.3925,178.88541796875,42.54549609375,178.671875,42.851484375C178.45833203125,43.15747265625,178.35026171875,43.60604296875,178.34765625,44.1971875C178.34765625,44.1971875,178.34765625,44.47453125,178.34765625,44.47453125C178.34765625,45.05526171875,178.45442578125,45.50578125,178.66796875,45.82609375C178.88151171875,46.14640625,179.18880078125,46.3065625,179.58984375,46.3065625C179.98307421875,46.3065625,180.28515625,46.152265625,180.49609375,45.843671875C180.70703125,45.535078125,180.81380078125,45.08520703125,180.81640625,44.4940625C180.81640625,44.4940625,180.81640625,44.21671875,180.81640625,44.21671875Z M185.15625,44.02140625C185.00260546875,44.00057421875,184.8671875,43.99015625,184.75,43.99015625C184.32291796875,43.99015625,184.04296875,44.1346875,183.91015625,44.42375C183.91015625,44.42375,183.91015625,47.189375,183.91015625,47.189375C183.91015625,47.189375,182.78125,47.189375,182.78125,47.189375C182.78125,47.189375,182.78125,42.9628125,182.78125,42.9628125C182.78125,42.9628125,183.84765625,42.9628125,183.84765625,42.9628125C183.84765625,42.9628125,183.87890625,43.46671875,183.87890625,43.46671875C184.10546875,43.07869921875,184.41926953125,42.8846875,184.8203125,42.8846875C184.9453125,42.8846875,185.0625,42.90161328125,185.171875,42.93546875C185.171875,42.93546875,185.15625,44.02140625,185.15625,44.02140625Z M185.6015625,45.04484375C185.6015625,44.39640625,185.755859375,43.87426953125,186.064453125,43.4784375C186.373046875,43.08260546875,186.7890625,42.8846875,187.3125,42.8846875C187.77604296875,42.8846875,188.13671875,43.04354296875,188.39453125,43.36125C188.39453125,43.36125,188.44140625,42.9628125,188.44140625,42.9628125C188.44140625,42.9628125,189.46484375,42.9628125,189.46484375,42.9628125C189.46484375,42.9628125,189.46484375,47.04875,189.46484375,47.04875C189.46484375,47.41854296875,189.380859375,47.74015625,189.212890625,48.01359375C189.044921875,48.28703125,188.80859375,48.49536328125,188.50390625,48.63859375C188.19921875,48.78182421875,187.84244921875,48.8534375,187.43359375,48.8534375C187.12369921875,48.8534375,186.82161328125,48.79158984375,186.52734375,48.667890625C186.23307421875,48.54419140625,186.01041796875,48.3846875,185.859375,48.189375C185.859375,48.189375,186.359375,47.501875,186.359375,47.501875C186.640625,47.81698046875,186.98176953125,47.97453125,187.3828125,47.97453125C187.68229296875,47.97453125,187.91536328125,47.894453125,188.08203125,47.734296875C188.24869921875,47.574140625,188.33203125,47.34692578125,188.33203125,47.05265625C188.33203125,47.05265625,188.33203125,46.82609375,188.33203125,46.82609375C188.07161328125,47.12036328125,187.72916796875,47.2675,187.3046875,47.2675C186.796875,47.2675,186.38606640625,47.06893359375,186.072265625,46.671796875C185.75846484375,46.27466015625,185.6015625,45.74796875,185.6015625,45.09171875C185.6015625,45.09171875,185.6015625,45.04484375,185.6015625,45.04484375Z M186.73046875,45.126875C186.73046875,45.5096875,186.80729296875,45.80981640625,186.9609375,46.027265625C187.11458203125,46.24471484375,187.32551953125,46.3534375,187.59375,46.3534375C187.9375,46.3534375,188.18359375,46.22453125,188.33203125,45.96671875C188.33203125,45.96671875,188.33203125,44.189375,188.33203125,44.189375C188.18098828125,43.9315625,187.9375,43.80265625,187.6015625,43.80265625C187.33073046875,43.80265625,187.11783984375,43.91333203125,186.962890625,44.1346875C186.80794140625,44.35604296875,186.73046875,44.68676953125,186.73046875,45.126875Z M192.78125,47.189375C192.72916796875,47.0878125,192.69140625,46.96151171875,192.66796875,46.81046875C192.39453125,47.11515625,192.0390625,47.2675,191.6015625,47.2675C191.1875,47.2675,190.84440234375,47.14770703125,190.572265625,46.908125C190.30012890625,46.66854296875,190.1640625,46.36645703125,190.1640625,46.001875C190.1640625,45.55395703125,190.330078125,45.21020703125,190.662109375,44.970625C190.994140625,44.73104296875,191.47395703125,44.60994921875,192.1015625,44.60734375C192.1015625,44.60734375,192.62109375,44.60734375,192.62109375,44.60734375C192.62109375,44.60734375,192.62109375,44.36515625,192.62109375,44.36515625C192.62109375,44.16984375,192.57096484375,44.01359375,192.470703125,43.89640625C192.37044140625,43.77921875,192.21223828125,43.720625,191.99609375,43.720625C191.80598828125,43.720625,191.65690234375,43.76619921875,191.548828125,43.85734375C191.44075390625,43.94848828125,191.38671875,44.07348828125,191.38671875,44.23234375C191.38671875,44.23234375,190.2578125,44.23234375,190.2578125,44.23234375C190.2578125,43.98755078125,190.33333203125,43.76098828125,190.484375,43.55265625C190.63541796875,43.34432421875,190.84895703125,43.18091015625,191.125,43.062421875C191.40104296875,42.94393359375,191.7109375,42.8846875,192.0546875,42.8846875C192.57551953125,42.8846875,192.98893359375,43.015546875,193.294921875,43.277265625C193.60091015625,43.538984375,193.75390625,43.90682421875,193.75390625,44.38078125C193.75390625,44.38078125,193.75390625,46.2128125,193.75390625,46.2128125C193.75651171875,46.61385546875,193.8125,46.91723828125,193.921875,47.12296875C193.921875,47.12296875,193.921875,47.189375,193.921875,47.189375C193.921875,47.189375,192.78125,47.189375,192.78125,47.189375Z M191.84765625,46.40421875C192.01432421875,46.40421875,192.16796875,46.367109375,192.30859375,46.292890625C192.44921875,46.218671875,192.55338671875,46.1190625,192.62109375,45.9940625C192.62109375,45.9940625,192.62109375,45.2675,192.62109375,45.2675C192.62109375,45.2675,192.19921875,45.2675,192.19921875,45.2675C191.63411328125,45.2675,191.33333203125,45.4628125,191.296875,45.8534375C191.296875,45.8534375,191.29296875,45.91984375,191.29296875,45.91984375C191.29296875,46.06046875,191.34244921875,46.17635546875,191.44140625,46.2675C191.54036328125,46.35864453125,191.67578125,46.40421875,191.84765625,46.40421875Z M195.70703125,42.9628125C195.70703125,42.9628125,195.7421875,43.45109375,195.7421875,43.45109375C196.04426953125,43.07348828125,196.44921875,42.8846875,196.95703125,42.8846875C197.40494921875,42.8846875,197.73828125,43.01619921875,197.95703125,43.27921875C198.17578125,43.54223828125,198.28776171875,43.93546875,198.29296875,44.45890625C198.29296875,44.45890625,198.29296875,47.189375,198.29296875,47.189375C198.29296875,47.189375,197.1640625,47.189375,197.1640625,47.189375C197.1640625,47.189375,197.1640625,44.48625,197.1640625,44.48625C197.1640625,44.24666796875,197.11198046875,44.07283984375,197.0078125,43.964765625C196.90364453125,43.85669140625,196.73046875,43.80265625,196.48828125,43.80265625C196.17057421875,43.80265625,195.93229296875,43.93807421875,195.7734375,44.20890625C195.7734375,44.20890625,195.7734375,47.189375,195.7734375,47.189375C195.7734375,47.189375,194.64453125,47.189375,194.64453125,47.189375C194.64453125,47.189375,194.64453125,42.9628125,194.64453125,42.9628125C194.64453125,42.9628125,195.70703125,42.9628125,195.70703125,42.9628125Z M198.32421875,47.189375Z M204.1640625,45.6971875C204.1640625,45.47583203125,204.0859375,45.30591015625,203.9296875,45.187421875C203.7734375,45.06893359375,203.4921875,44.94393359375,203.0859375,44.812421875C202.6796875,44.68091015625,202.35807421875,44.55135546875,202.12109375,44.42375C201.47526171875,44.07479296875,201.15234375,43.60473828125,201.15234375,43.01359375C201.15234375,42.70630078125,201.23893359375,42.43221484375,201.412109375,42.191328125C201.58528515625,41.95044140625,201.833984375,41.76229296875,202.158203125,41.626875C202.482421875,41.49145703125,202.84635546875,41.42375,203.25,41.42375C203.65625,41.42375,204.01823046875,41.49731640625,204.3359375,41.644453125C204.65364453125,41.79158984375,204.900390625,41.99926953125,205.076171875,42.2675C205.251953125,42.53573046875,205.33984375,42.84041796875,205.33984375,43.1815625C205.33984375,43.1815625,204.16796875,43.1815625,204.16796875,43.1815625C204.16796875,42.92114453125,204.0859375,42.718671875,203.921875,42.574140625C203.7578125,42.429609375,203.52734375,42.35734375,203.23046875,42.35734375C202.94401171875,42.35734375,202.72135546875,42.417890625,202.5625,42.538984375C202.40364453125,42.660078125,202.32421875,42.81958203125,202.32421875,43.0175C202.32421875,43.20239453125,202.41731640625,43.35734375,202.603515625,43.48234375C202.78971484375,43.60734375,203.06380078125,43.72453125,203.42578125,43.83390625C204.09244921875,44.03442578125,204.578125,44.283125,204.8828125,44.58C205.1875,44.876875,205.33984375,45.24666796875,205.33984375,45.689375C205.33984375,46.1815625,205.15364453125,46.56762890625,204.78125,46.847578125C204.40885546875,47.12752734375,203.90755078125,47.2675,203.27734375,47.2675C202.83984375,47.2675,202.44140625,47.187421875,202.08203125,47.027265625C201.72265625,46.867109375,201.44856640625,46.64770703125,201.259765625,46.3690625C201.07096484375,46.09041796875,200.9765625,45.7675,200.9765625,45.4003125C200.9765625,45.4003125,202.15234375,45.4003125,202.15234375,45.4003125C202.15234375,46.02791796875,202.52734375,46.34171875,203.27734375,46.34171875C203.55598828125,46.34171875,203.7734375,46.285078125,203.9296875,46.171796875C204.0859375,46.058515625,204.1640625,45.9003125,204.1640625,45.6971875Z M207.41015625,41.92375C207.41015625,41.92375,207.41015625,42.9628125,207.41015625,42.9628125C207.41015625,42.9628125,208.1328125,42.9628125,208.1328125,42.9628125C208.1328125,42.9628125,208.1328125,43.7909375,208.1328125,43.7909375C208.1328125,43.7909375,207.41015625,43.7909375,207.41015625,43.7909375C207.41015625,43.7909375,207.41015625,45.9003125,207.41015625,45.9003125C207.41015625,46.0565625,207.44010546875,46.16854296875,207.5,46.23625C207.55989453125,46.30395703125,207.67448046875,46.3378125,207.84375,46.3378125C207.96875,46.3378125,208.07942578125,46.32869921875,208.17578125,46.31046875C208.17578125,46.31046875,208.17578125,47.1659375,208.17578125,47.1659375C207.95442578125,47.23364453125,207.7265625,47.2675,207.4921875,47.2675C206.70051953125,47.2675,206.296875,46.86776171875,206.28125,46.06828125C206.28125,46.06828125,206.28125,43.7909375,206.28125,43.7909375C206.28125,43.7909375,205.6640625,43.7909375,205.6640625,43.7909375C205.6640625,43.7909375,205.6640625,42.9628125,205.6640625,42.9628125C205.6640625,42.9628125,206.28125,42.9628125,206.28125,42.9628125C206.28125,42.9628125,206.28125,41.92375,206.28125,41.92375C206.28125,41.92375,207.41015625,41.92375,207.41015625,41.92375Z M211.29296875,46.7596875C211.01432421875,47.09823046875,210.62890625,47.2675,210.13671875,47.2675C209.68359375,47.2675,209.337890625,47.13729296875,209.099609375,46.876875C208.861328125,46.61645703125,208.73958203125,46.23494921875,208.734375,45.73234375C208.734375,45.73234375,208.734375,42.9628125,208.734375,42.9628125C208.734375,42.9628125,209.86328125,42.9628125,209.86328125,42.9628125C209.86328125,42.9628125,209.86328125,45.69328125,209.86328125,45.69328125C209.86328125,46.13338671875,210.06380078125,46.3534375,210.46484375,46.3534375C210.84765625,46.3534375,211.11067578125,46.220625,211.25390625,45.955C211.25390625,45.955,211.25390625,42.9628125,211.25390625,42.9628125C211.25390625,42.9628125,212.38671875,42.9628125,212.38671875,42.9628125C212.38671875,42.9628125,212.38671875,47.189375,212.38671875,47.189375C212.38671875,47.189375,211.32421875,47.189375,211.32421875,47.189375C211.32421875,47.189375,211.29296875,46.7596875,211.29296875,46.7596875Z M213.0625,45.04484375C213.0625,44.38598828125,213.21028515625,43.86125,213.505859375,43.470625C213.80143359375,43.08,214.20573046875,42.8846875,214.71875,42.8846875C215.13020703125,42.8846875,215.47005078125,43.03833203125,215.73828125,43.345625C215.73828125,43.345625,215.73828125,41.189375,215.73828125,41.189375C215.73828125,41.189375,216.87109375,41.189375,216.87109375,41.189375C216.87109375,41.189375,216.87109375,47.189375,216.87109375,47.189375C216.87109375,47.189375,215.8515625,47.189375,215.8515625,47.189375C215.8515625,47.189375,215.796875,46.74015625,215.796875,46.74015625C215.515625,47.09171875,215.15364453125,47.2675,214.7109375,47.2675C214.21354296875,47.2675,213.814453125,47.07153515625,213.513671875,46.679609375C213.212890625,46.28768359375,213.0625,45.74276171875,213.0625,45.04484375Z M214.19140625,45.126875C214.19140625,45.52270703125,214.26041796875,45.82609375,214.3984375,46.03703125C214.53645703125,46.24796875,214.73698046875,46.3534375,215,46.3534375C215.34895703125,46.3534375,215.59505078125,46.20630078125,215.73828125,45.91203125C215.73828125,45.91203125,215.73828125,44.2440625,215.73828125,44.2440625C215.59765625,43.94979296875,215.35416796875,43.80265625,215.0078125,43.80265625C214.46354296875,43.80265625,214.19140625,44.2440625,214.19140625,45.126875Z M218.9375,47.189375C218.9375,47.189375,217.8046875,47.189375,217.8046875,47.189375C217.8046875,47.189375,217.8046875,42.9628125,217.8046875,42.9628125C217.8046875,42.9628125,218.9375,42.9628125,218.9375,42.9628125C218.9375,42.9628125,218.9375,47.189375,218.9375,47.189375Z M217.73828125,41.8690625C217.73828125,41.69979296875,217.794921875,41.56046875,217.908203125,41.45109375C218.021484375,41.34171875,218.17578125,41.28703125,218.37109375,41.28703125C218.56380078125,41.28703125,218.71744921875,41.34171875,218.83203125,41.45109375C218.94661328125,41.56046875,219.00390625,41.69979296875,219.00390625,41.8690625C219.00390625,42.0409375,218.94596484375,42.1815625,218.830078125,42.2909375C218.71419140625,42.4003125,218.56119921875,42.455,218.37109375,42.455C218.18098828125,42.455,218.02799609375,42.4003125,217.912109375,42.2909375C217.79622265625,42.1815625,217.73828125,42.0409375,217.73828125,41.8690625Z M219.69140625,45.03703125C219.69140625,44.61776171875,219.77213671875,44.2440625,219.93359375,43.9159375C220.09505078125,43.5878125,220.32747265625,43.33390625,220.630859375,43.15421875C220.93424609375,42.97453125,221.28645703125,42.8846875,221.6875,42.8846875C222.2578125,42.8846875,222.72330859375,43.05916796875,223.083984375,43.408125C223.44466015625,43.75708203125,223.64583203125,44.23104296875,223.6875,44.83C223.6875,44.83,223.6953125,45.1190625,223.6953125,45.1190625C223.6953125,45.7675,223.51432421875,46.28768359375,223.15234375,46.679609375C222.79036328125,47.07153515625,222.3046875,47.2675,221.6953125,47.2675C221.0859375,47.2675,220.599609375,47.0721875,220.236328125,46.6815625C219.873046875,46.2909375,219.69140625,45.7596875,219.69140625,45.0878125C219.69140625,45.0878125,219.69140625,45.03703125,219.69140625,45.03703125Z M220.8203125,45.1190625C220.8203125,45.52010546875,220.89583203125,45.82674609375,221.046875,46.038984375C221.19791796875,46.25122265625,221.4140625,46.35734375,221.6953125,46.35734375C221.96875,46.35734375,222.18229296875,46.25252734375,222.3359375,46.042890625C222.48958203125,45.83325390625,222.56640625,45.49796875,222.56640625,45.03703125C222.56640625,44.64380078125,222.48958203125,44.33911328125,222.3359375,44.12296875C222.18229296875,43.90682421875,221.96614453125,43.79875,221.6875,43.79875C221.41145703125,43.79875,221.19791796875,43.906171875,221.046875,44.121015625C220.89583203125,44.335859375,220.8203125,44.66854296875,220.8203125,45.1190625Z"/></svg>
